<svg width="27" height="17" viewBox="0 0 27 17" fill="none" xmlns="http://www.w3.org/2000/svg">
<path d="M11.7483 0.774852L0.580625 13.23C-0.737333 14.7003 0.333799 17 2.33402 17H24.6695C25.1171 17.0004 25.5554 16.8748 25.9318 16.6384C26.3082 16.4019 26.6068 16.0646 26.7918 15.6668C26.9768 15.269 27.0404 14.8276 26.975 14.3954C26.9095 13.9632 26.7179 13.5586 26.4229 13.23L15.2551 0.777124C15.0366 0.533044 14.767 0.337419 14.4646 0.203382C14.1622 0.0693459 13.8339 0 13.5017 0C13.1696 0 12.8413 0.0693459 12.5389 0.203382C12.2364 0.337419 11.9669 0.530772 11.7483 0.774852Z" fill="#80D280"/>
</svg>
