<svg width="430" height="385" viewBox="0 0 430 385" fill="none" xmlns="http://www.w3.org/2000/svg">
<g opacity="0.3" clip-path="url(#clip0_879_1345)">
<mask id="mask0_879_1345" style="mask-type:luminance" maskUnits="userSpaceOnUse" x="321" y="108" width="171" height="400">
<path d="M332.4 507.049L491.273 500.976L483.86 230.634L321.478 108.992L332.4 507.049Z" fill="white"/>
</mask>
<g mask="url(#mask0_879_1345)">
<path d="M518.168 231.727L305.558 71.7843" stroke="#BB6067" stroke-width="2" stroke-miterlimit="10"/>
<path d="M518.421 240.943L305.81 81.0001" stroke="#BB6067" stroke-width="2" stroke-miterlimit="10"/>
<path d="M518.673 250.167L306.07 90.2236" stroke="#BB6067" stroke-width="2" stroke-miterlimit="10"/>
<path d="M518.925 259.39L306.322 99.4471" stroke="#BB6067" stroke-width="2" stroke-miterlimit="10"/>
<path d="M519.177 268.614L306.574 108.671" stroke="#BB6067" stroke-width="2" stroke-miterlimit="10"/>
<path d="M519.429 277.837L306.826 117.894" stroke="#BB6067" stroke-width="2" stroke-miterlimit="10"/>
<path d="M519.682 287.053L307.079 127.11" stroke="#BB6067" stroke-width="2" stroke-miterlimit="10"/>
<path d="M519.934 296.277L307.331 136.334" stroke="#BB6067" stroke-width="2" stroke-miterlimit="10"/>
<path d="M520.186 305.5L307.583 145.557" stroke="#BB6067" stroke-width="2" stroke-miterlimit="10"/>
<path d="M520.446 314.724L307.835 154.781" stroke="#BB6067" stroke-width="2" stroke-miterlimit="10"/>
<path d="M520.698 323.947L308.087 164.004" stroke="#BB6067" stroke-width="2" stroke-miterlimit="10"/>
<path d="M520.95 333.171L308.347 173.228" stroke="#BB6067" stroke-width="2" stroke-miterlimit="10"/>
<path d="M521.203 342.387L308.6 182.444" stroke="#BB6067" stroke-width="2" stroke-miterlimit="10"/>
<path d="M521.455 351.61L308.852 191.667" stroke="#BB6067" stroke-width="2" stroke-miterlimit="10"/>
<path d="M521.707 360.834L309.104 200.891" stroke="#BB6067" stroke-width="2" stroke-miterlimit="10"/>
<path d="M521.959 370.057L309.356 210.114" stroke="#BB6067" stroke-width="2" stroke-miterlimit="10"/>
<path d="M522.211 379.281L309.608 219.338" stroke="#BB6067" stroke-width="2" stroke-miterlimit="10"/>
<path d="M522.463 388.497L309.86 228.553" stroke="#BB6067" stroke-width="2" stroke-miterlimit="10"/>
<path d="M522.724 397.72L310.113 237.777" stroke="#BB6067" stroke-width="2" stroke-miterlimit="10"/>
<path d="M522.976 406.944L310.365 247" stroke="#BB6067" stroke-width="2" stroke-miterlimit="10"/>
<path d="M523.228 416.167L310.625 256.224" stroke="#BB6067" stroke-width="2" stroke-miterlimit="10"/>
<path d="M523.48 425.391L310.877 265.448" stroke="#BB6067" stroke-width="2" stroke-miterlimit="10"/>
<path d="M523.732 434.614L311.129 274.671" stroke="#BB6067" stroke-width="2" stroke-miterlimit="10"/>
<path d="M523.984 443.83L311.381 283.887" stroke="#BB6067" stroke-width="2" stroke-miterlimit="10"/>
<path d="M524.237 453.054L311.634 293.11" stroke="#BB6067" stroke-width="2" stroke-miterlimit="10"/>
<path d="M524.489 462.277L311.886 302.334" stroke="#BB6067" stroke-width="2" stroke-miterlimit="10"/>
<path d="M524.741 471.501L312.138 311.557" stroke="#BB6067" stroke-width="2" stroke-miterlimit="10"/>
<path d="M525.001 480.724L312.391 320.781" stroke="#BB6067" stroke-width="2" stroke-miterlimit="10"/>
<path d="M525.253 489.94L312.643 330.005" stroke="#BB6067" stroke-width="2" stroke-miterlimit="10"/>
<path d="M525.506 499.164L312.895 339.22" stroke="#BB6067" stroke-width="2" stroke-miterlimit="10"/>
<path d="M525.758 508.387L313.155 348.444" stroke="#BB6067" stroke-width="2" stroke-miterlimit="10"/>
<path d="M526.01 517.611L313.407 357.667" stroke="#BB6067" stroke-width="2" stroke-miterlimit="10"/>
<path d="M526.262 526.834L313.659 366.891" stroke="#BB6067" stroke-width="2" stroke-miterlimit="10"/>
<path d="M526.514 536.058L313.911 376.115" stroke="#BB6067" stroke-width="2" stroke-miterlimit="10"/>
<path d="M526.767 545.273L314.164 385.33" stroke="#BB6067" stroke-width="2" stroke-miterlimit="10"/>
</g>
<mask id="mask1_879_1345" style="mask-type:luminance" maskUnits="userSpaceOnUse" x="144" y="108" width="189" height="402">
<path d="M332.362 504.41L151.607 509.381L144.797 261.111L321.509 108.992L332.362 504.41Z" fill="white"/>
</mask>
<g mask="url(#mask1_879_1345)">
<path d="M131.842 242.335L335.358 70.9659" stroke="#3F001F" stroke-width="2" stroke-miterlimit="10"/>
<path d="M132.095 251.559L335.61 80.1818" stroke="#3F001F" stroke-width="2" stroke-miterlimit="10"/>
<path d="M132.354 260.782L335.863 89.4053" stroke="#3F001F" stroke-width="2" stroke-miterlimit="10"/>
<path d="M132.606 270.006L336.115 98.6289" stroke="#3F001F" stroke-width="2" stroke-miterlimit="10"/>
<path d="M132.859 279.229L336.375 107.852" stroke="#3F001F" stroke-width="2" stroke-miterlimit="10"/>
<path d="M133.111 288.445L336.626 117.076" stroke="#3F001F" stroke-width="2" stroke-miterlimit="10"/>
<path d="M133.363 297.669L336.879 126.292" stroke="#3F001F" stroke-width="2" stroke-miterlimit="10"/>
<path d="M133.615 306.892L337.131 135.515" stroke="#3F001F" stroke-width="2" stroke-miterlimit="10"/>
<path d="M133.868 316.116L337.383 144.739" stroke="#3F001F" stroke-width="2" stroke-miterlimit="10"/>
<path d="M134.12 325.339L337.636 153.962" stroke="#3F001F" stroke-width="2" stroke-miterlimit="10"/>
<path d="M134.372 334.563L337.888 163.186" stroke="#3F001F" stroke-width="2" stroke-miterlimit="10"/>
<path d="M134.625 343.779L338.14 172.409" stroke="#3F001F" stroke-width="2" stroke-miterlimit="10"/>
<path d="M134.884 353.002L338.392 181.625" stroke="#3F001F" stroke-width="2" stroke-miterlimit="10"/>
<path d="M135.136 362.226L338.652 190.849" stroke="#3F001F" stroke-width="2" stroke-miterlimit="10"/>
<path d="M135.389 371.449L338.904 200.072" stroke="#3F001F" stroke-width="2" stroke-miterlimit="10"/>
<path d="M135.641 380.673L339.156 209.296" stroke="#3F001F" stroke-width="2" stroke-miterlimit="10"/>
<path d="M135.893 389.889L339.409 218.519" stroke="#3F001F" stroke-width="2" stroke-miterlimit="10"/>
<path d="M136.145 399.112L339.661 227.735" stroke="#3F001F" stroke-width="2" stroke-miterlimit="10"/>
<path d="M136.397 408.336L339.913 236.959" stroke="#3F001F" stroke-width="2" stroke-miterlimit="10"/>
<path d="M136.65 417.559L340.166 246.182" stroke="#3F001F" stroke-width="2" stroke-miterlimit="10"/>
<path d="M136.902 426.783L340.418 255.406" stroke="#3F001F" stroke-width="2" stroke-miterlimit="10"/>
<path d="M137.162 436.006L340.67 264.629" stroke="#3F001F" stroke-width="2" stroke-miterlimit="10"/>
<path d="M137.414 445.222L340.922 273.853" stroke="#3F001F" stroke-width="2" stroke-miterlimit="10"/>
<path d="M137.666 454.446L341.182 283.069" stroke="#3F001F" stroke-width="2" stroke-miterlimit="10"/>
<path d="M137.918 463.669L341.434 292.292" stroke="#3F001F" stroke-width="2" stroke-miterlimit="10"/>
<path d="M138.17 472.893L341.686 301.516" stroke="#3F001F" stroke-width="2" stroke-miterlimit="10"/>
<path d="M138.423 482.116L341.939 310.739" stroke="#3F001F" stroke-width="2" stroke-miterlimit="10"/>
<path d="M138.675 491.34L342.191 319.963" stroke="#3F001F" stroke-width="2" stroke-miterlimit="10"/>
<path d="M138.927 500.555L342.443 329.178" stroke="#3F001F" stroke-width="2" stroke-miterlimit="10"/>
<path d="M139.18 509.779L342.695 338.402" stroke="#3F001F" stroke-width="2" stroke-miterlimit="10"/>
<path d="M139.439 519.002L342.948 347.625" stroke="#3F001F" stroke-width="2" stroke-miterlimit="10"/>
<path d="M139.691 528.226L343.199 356.849" stroke="#3F001F" stroke-width="2" stroke-miterlimit="10"/>
<path d="M139.944 537.45L343.46 366.073" stroke="#3F001F" stroke-width="2" stroke-miterlimit="10"/>
<path d="M140.196 546.665L343.711 375.296" stroke="#3F001F" stroke-width="2" stroke-miterlimit="10"/>
<path d="M140.448 555.889L343.964 384.512" stroke="#3F001F" stroke-width="2" stroke-miterlimit="10"/>
</g>
<mask id="mask2_879_1345" style="mask-type:luminance" maskUnits="userSpaceOnUse" x="139" y="38" width="116" height="400">
<path d="M150.559 437.031L254.985 431.241L246.402 118.59L139.638 38.9744L150.559 437.031Z" fill="white"/>
</mask>
<g mask="url(#mask2_879_1345)">
<path d="M336.328 161.702L123.725 1.75903" stroke="#BB6067" stroke-width="2" stroke-miterlimit="10"/>
<path d="M336.581 170.926L123.978 10.9825" stroke="#BB6067" stroke-width="2" stroke-miterlimit="10"/>
<path d="M336.833 180.149L124.229 20.2061" stroke="#BB6067" stroke-width="2" stroke-miterlimit="10"/>
<path d="M337.085 189.373L124.482 29.4296" stroke="#BB6067" stroke-width="2" stroke-miterlimit="10"/>
<path d="M337.337 198.596L124.734 38.6531" stroke="#BB6067" stroke-width="2" stroke-miterlimit="10"/>
<path d="M337.589 207.812L124.986 47.869" stroke="#BB6067" stroke-width="2" stroke-miterlimit="10"/>
<path d="M337.841 217.036L125.238 57.0925" stroke="#BB6067" stroke-width="2" stroke-miterlimit="10"/>
<path d="M338.101 226.259L125.491 66.316" stroke="#BB6067" stroke-width="2" stroke-miterlimit="10"/>
<path d="M338.353 235.483L125.743 75.5396" stroke="#BB6067" stroke-width="2" stroke-miterlimit="10"/>
<path d="M338.606 244.706L126.002 84.7631" stroke="#BB6067" stroke-width="2" stroke-miterlimit="10"/>
<path d="M338.858 253.922L126.255 93.9866" stroke="#BB6067" stroke-width="2" stroke-miterlimit="10"/>
<path d="M339.11 263.146L126.507 103.202" stroke="#BB6067" stroke-width="2" stroke-miterlimit="10"/>
<path d="M339.362 272.369L126.759 112.426" stroke="#BB6067" stroke-width="2" stroke-miterlimit="10"/>
<path d="M339.615 281.593L127.012 121.649" stroke="#BB6067" stroke-width="2" stroke-miterlimit="10"/>
<path d="M339.867 290.816L127.264 130.873" stroke="#BB6067" stroke-width="2" stroke-miterlimit="10"/>
<path d="M340.119 300.04L127.516 140.096" stroke="#BB6067" stroke-width="2" stroke-miterlimit="10"/>
<path d="M340.379 309.256L127.768 149.312" stroke="#BB6067" stroke-width="2" stroke-miterlimit="10"/>
<path d="M340.631 318.479L128.021 158.536" stroke="#BB6067" stroke-width="2" stroke-miterlimit="10"/>
<path d="M340.883 327.703L128.28 167.759" stroke="#BB6067" stroke-width="2" stroke-miterlimit="10"/>
<path d="M341.136 336.926L128.533 176.983" stroke="#BB6067" stroke-width="2" stroke-miterlimit="10"/>
<path d="M341.388 346.15L128.785 186.206" stroke="#BB6067" stroke-width="2" stroke-miterlimit="10"/>
<path d="M341.64 355.365L129.037 195.43" stroke="#BB6067" stroke-width="2" stroke-miterlimit="10"/>
<path d="M341.892 364.589L129.289 204.646" stroke="#BB6067" stroke-width="2" stroke-miterlimit="10"/>
<path d="M342.145 373.813L129.542 213.869" stroke="#BB6067" stroke-width="2" stroke-miterlimit="10"/>
<path d="M342.397 383.036L129.793 223.093" stroke="#BB6067" stroke-width="2" stroke-miterlimit="10"/>
<path d="M342.657 392.26L130.046 232.316" stroke="#BB6067" stroke-width="2" stroke-miterlimit="10"/>
<path d="M342.909 401.483L130.298 241.54" stroke="#BB6067" stroke-width="2" stroke-miterlimit="10"/>
<path d="M343.161 410.699L130.55 250.756" stroke="#BB6067" stroke-width="2" stroke-miterlimit="10"/>
<path d="M343.413 419.922L130.81 259.979" stroke="#BB6067" stroke-width="2" stroke-miterlimit="10"/>
<path d="M343.666 429.146L131.062 269.203" stroke="#BB6067" stroke-width="2" stroke-miterlimit="10"/>
<path d="M343.918 438.369L131.314 278.426" stroke="#BB6067" stroke-width="2" stroke-miterlimit="10"/>
<path d="M344.17 447.593L131.567 287.65" stroke="#BB6067" stroke-width="2" stroke-miterlimit="10"/>
<path d="M344.422 456.809L131.819 296.873" stroke="#BB6067" stroke-width="2" stroke-miterlimit="10"/>
<path d="M344.674 466.032L132.071 306.089" stroke="#BB6067" stroke-width="2" stroke-miterlimit="10"/>
<path d="M344.934 475.256L132.323 315.313" stroke="#BB6067" stroke-width="2" stroke-miterlimit="10"/>
<path d="M345.186 484.479L132.576 324.536" stroke="#BB6067" stroke-width="2" stroke-miterlimit="10"/>
<path d="M345.438 493.703L132.828 333.76" stroke="#BB6067" stroke-width="2" stroke-miterlimit="10"/>
<path d="M345.691 502.926L133.088 342.983" stroke="#BB6067" stroke-width="2" stroke-miterlimit="10"/>
<path d="M345.943 512.142L133.34 352.199" stroke="#BB6067" stroke-width="2" stroke-miterlimit="10"/>
<path d="M346.195 521.366L133.592 361.423" stroke="#BB6067" stroke-width="2" stroke-miterlimit="10"/>
<path d="M346.447 530.589L133.844 370.646" stroke="#BB6067" stroke-width="2" stroke-miterlimit="10"/>
<path d="M346.7 539.813L134.097 379.87" stroke="#BB6067" stroke-width="2" stroke-miterlimit="10"/>
</g>
<mask id="mask3_879_1345" style="mask-type:luminance" maskUnits="userSpaceOnUse" x="-57" y="38" width="209" height="438">
<path d="M151.354 464.832L-49.211 475.524L-56.6323 205.174L139.668 38.9744L151.354 464.832Z" fill="white"/>
</mask>
<g mask="url(#mask3_879_1345)">
<path d="M-49.9907 172.318L153.517 0.940674" stroke="#3F001F" stroke-width="2" stroke-miterlimit="10"/>
<path d="M-49.7383 181.541L153.77 10.1642" stroke="#3F001F" stroke-width="2" stroke-miterlimit="10"/>
<path d="M-49.4863 190.765L154.029 19.3877" stroke="#3F001F" stroke-width="2" stroke-miterlimit="10"/>
<path d="M-49.2339 199.988L154.282 28.6112" stroke="#3F001F" stroke-width="2" stroke-miterlimit="10"/>
<path d="M-48.9819 209.204L154.534 37.8347" stroke="#3F001F" stroke-width="2" stroke-miterlimit="10"/>
<path d="M-48.7295 218.428L154.786 47.0507" stroke="#3F001F" stroke-width="2" stroke-miterlimit="10"/>
<path d="M-48.4775 227.651L155.038 56.2742" stroke="#3F001F" stroke-width="2" stroke-miterlimit="10"/>
<path d="M-48.2251 236.875L155.291 65.4977" stroke="#3F001F" stroke-width="2" stroke-miterlimit="10"/>
<path d="M-47.9731 246.098L155.543 74.7212" stroke="#3F001F" stroke-width="2" stroke-miterlimit="10"/>
<path d="M-47.7207 255.322L155.795 83.9447" stroke="#3F001F" stroke-width="2" stroke-miterlimit="10"/>
<path d="M-47.4609 264.537L156.047 93.1605" stroke="#3F001F" stroke-width="2" stroke-miterlimit="10"/>
<path d="M-47.2085 273.761L156.3 102.384" stroke="#3F001F" stroke-width="2" stroke-miterlimit="10"/>
<path d="M-46.9565 282.984L156.559 111.608" stroke="#3F001F" stroke-width="2" stroke-miterlimit="10"/>
<path d="M-46.7041 292.208L156.812 120.831" stroke="#3F001F" stroke-width="2" stroke-miterlimit="10"/>
<path d="M-46.4521 301.432L157.064 130.055" stroke="#3F001F" stroke-width="2" stroke-miterlimit="10"/>
<path d="M-46.1997 310.647L157.316 139.278" stroke="#3F001F" stroke-width="2" stroke-miterlimit="10"/>
<path d="M-45.9478 319.871L157.568 148.494" stroke="#3F001F" stroke-width="2" stroke-miterlimit="10"/>
<path d="M-45.6953 329.094L157.82 157.718" stroke="#3F001F" stroke-width="2" stroke-miterlimit="10"/>
<path d="M-45.4434 338.318L158.072 166.941" stroke="#3F001F" stroke-width="2" stroke-miterlimit="10"/>
<path d="M-45.1831 347.541L158.325 176.165" stroke="#3F001F" stroke-width="2" stroke-miterlimit="10"/>
<path d="M-44.9312 356.765L158.577 185.388" stroke="#3F001F" stroke-width="2" stroke-miterlimit="10"/>
<path d="M-44.6787 365.981L158.837 194.604" stroke="#3F001F" stroke-width="2" stroke-miterlimit="10"/>
<path d="M-44.4268 375.204L159.089 203.827" stroke="#3F001F" stroke-width="2" stroke-miterlimit="10"/>
<path d="M-44.1743 384.428L159.341 213.051" stroke="#3F001F" stroke-width="2" stroke-miterlimit="10"/>
<path d="M-43.9224 393.651L159.593 222.275" stroke="#3F001F" stroke-width="2" stroke-miterlimit="10"/>
<path d="M-43.6699 402.875L159.846 231.498" stroke="#3F001F" stroke-width="2" stroke-miterlimit="10"/>
<path d="M-43.418 412.091L160.098 240.722" stroke="#3F001F" stroke-width="2" stroke-miterlimit="10"/>
<path d="M-43.1655 421.314L160.35 249.937" stroke="#3F001F" stroke-width="2" stroke-miterlimit="10"/>
<path d="M-42.9058 430.538L160.602 259.161" stroke="#3F001F" stroke-width="2" stroke-miterlimit="10"/>
<path d="M-42.6533 439.761L160.855 268.384" stroke="#3F001F" stroke-width="2" stroke-miterlimit="10"/>
<path d="M-42.4014 448.985L161.114 277.608" stroke="#3F001F" stroke-width="2" stroke-miterlimit="10"/>
<path d="M-42.1489 458.208L161.367 286.831" stroke="#3F001F" stroke-width="2" stroke-miterlimit="10"/>
<path d="M-41.897 467.424L161.619 296.047" stroke="#3F001F" stroke-width="2" stroke-miterlimit="10"/>
<path d="M-41.6445 476.648L161.871 305.271" stroke="#3F001F" stroke-width="2" stroke-miterlimit="10"/>
<path d="M-41.3926 485.871L162.123 314.494" stroke="#3F001F" stroke-width="2" stroke-miterlimit="10"/>
<path d="M-41.1401 495.095L162.376 323.718" stroke="#3F001F" stroke-width="2" stroke-miterlimit="10"/>
<path d="M-40.8882 504.318L162.627 332.941" stroke="#3F001F" stroke-width="2" stroke-miterlimit="10"/>
<path d="M-40.6279 513.534L162.88 342.165" stroke="#3F001F" stroke-width="2" stroke-miterlimit="10"/>
<path d="M-40.376 522.758L163.132 351.381" stroke="#3F001F" stroke-width="2" stroke-miterlimit="10"/>
<path d="M-40.1235 531.981L163.392 360.604" stroke="#3F001F" stroke-width="2" stroke-miterlimit="10"/>
<path d="M-39.8716 541.205L163.644 369.828" stroke="#3F001F" stroke-width="2" stroke-miterlimit="10"/>
<path d="M-39.6191 550.428L163.897 379.051" stroke="#3F001F" stroke-width="2" stroke-miterlimit="10"/>
</g>
<mask id="mask4_879_1345" style="mask-type:luminance" maskUnits="userSpaceOnUse" x="3" y="215" width="311" height="267">
<path d="M11 481.344L313.025 473.046L312.146 441.146L3.69336 215.017L11 481.344Z" fill="white"/>
</mask>
<g mask="url(#mask4_879_1345)">
<path d="M343.597 444.251L-12.2192 177.801" stroke="#BB6067" stroke-width="2" stroke-miterlimit="10"/>
<path d="M343.849 453.474L-11.9668 187.025" stroke="#BB6067" stroke-width="2" stroke-miterlimit="10"/>
<path d="M344.101 462.698L-11.7148 196.248" stroke="#BB6067" stroke-width="2" stroke-miterlimit="10"/>
<path d="M344.354 471.921L-11.4624 205.472" stroke="#BB6067" stroke-width="2" stroke-miterlimit="10"/>
<path d="M344.606 481.145L-11.2104 214.695" stroke="#BB6067" stroke-width="2" stroke-miterlimit="10"/>
<path d="M344.858 490.361L-10.958 223.911" stroke="#BB6067" stroke-width="2" stroke-miterlimit="10"/>
<path d="M345.11 499.584L-10.7061 233.135" stroke="#BB6067" stroke-width="2" stroke-miterlimit="10"/>
<path d="M345.37 508.808L-10.4463 242.358" stroke="#BB6067" stroke-width="2" stroke-miterlimit="10"/>
<path d="M345.622 518.031L-10.1938 251.582" stroke="#BB6067" stroke-width="2" stroke-miterlimit="10"/>
<path d="M345.874 527.255L-9.94189 260.805" stroke="#BB6067" stroke-width="2" stroke-miterlimit="10"/>
<path d="M346.127 536.478L-9.68945 270.021" stroke="#BB6067" stroke-width="2" stroke-miterlimit="10"/>
<path d="M346.379 545.694L-9.43701 279.245" stroke="#BB6067" stroke-width="2" stroke-miterlimit="10"/>
<path d="M346.631 554.918L-9.18506 288.468" stroke="#BB6067" stroke-width="2" stroke-miterlimit="10"/>
<path d="M346.883 564.141L-8.93262 297.692" stroke="#BB6067" stroke-width="2" stroke-miterlimit="10"/>
<path d="M347.135 573.365L-8.68066 306.915" stroke="#BB6067" stroke-width="2" stroke-miterlimit="10"/>
<path d="M347.388 582.588L-8.42822 316.139" stroke="#BB6067" stroke-width="2" stroke-miterlimit="10"/>
<path d="M347.648 591.804L-8.16846 325.355" stroke="#BB6067" stroke-width="2" stroke-miterlimit="10"/>
<path d="M347.9 601.028L-7.9165 334.578" stroke="#BB6067" stroke-width="2" stroke-miterlimit="10"/>
<path d="M348.152 610.251L-7.66406 343.802" stroke="#BB6067" stroke-width="2" stroke-miterlimit="10"/>
<path d="M348.404 619.475L-7.41162 353.025" stroke="#BB6067" stroke-width="2" stroke-miterlimit="10"/>
<path d="M348.656 628.698L-7.15967 362.249" stroke="#BB6067" stroke-width="2" stroke-miterlimit="10"/>
<path d="M348.909 637.922L-6.90723 371.465" stroke="#BB6067" stroke-width="2" stroke-miterlimit="10"/>
<path d="M349.161 647.138L-6.65527 380.688" stroke="#BB6067" stroke-width="2" stroke-miterlimit="10"/>
</g>
<mask id="mask5_879_1345" style="mask-type:luminance" maskUnits="userSpaceOnUse" x="-214" y="215" width="226" height="272">
<path d="M11.0152 480.579L-211.279 486.69L-214 387.648L3.72383 215.017L11.0152 480.579Z" fill="white"/>
</mask>
<g mask="url(#mask5_879_1345)">
<path d="M-185.935 348.36L17.5806 176.983" stroke="#3F001F" stroke-width="2" stroke-miterlimit="10"/>
<path d="M-185.683 357.584L17.833 186.207" stroke="#3F001F" stroke-width="2" stroke-miterlimit="10"/>
<path d="M-185.431 366.807L18.085 195.43" stroke="#3F001F" stroke-width="2" stroke-miterlimit="10"/>
<path d="M-185.178 376.031L18.3374 204.654" stroke="#3F001F" stroke-width="2" stroke-miterlimit="10"/>
<path d="M-184.926 385.247L18.5894 213.87" stroke="#3F001F" stroke-width="2" stroke-miterlimit="10"/>
<path d="M-184.674 394.47L18.8418 223.093" stroke="#3F001F" stroke-width="2" stroke-miterlimit="10"/>
<path d="M-184.422 403.694L19.0938 232.317" stroke="#3F001F" stroke-width="2" stroke-miterlimit="10"/>
<path d="M-184.162 412.917L19.3459 241.54" stroke="#3F001F" stroke-width="2" stroke-miterlimit="10"/>
<path d="M-183.91 422.141L19.5984 250.764" stroke="#3F001F" stroke-width="2" stroke-miterlimit="10"/>
<path d="M-183.657 431.357L19.8584 259.988" stroke="#3F001F" stroke-width="2" stroke-miterlimit="10"/>
<path d="M-183.405 440.58L20.1104 269.203" stroke="#3F001F" stroke-width="2" stroke-miterlimit="10"/>
<path d="M-183.153 449.804L20.3628 278.427" stroke="#3F001F" stroke-width="2" stroke-miterlimit="10"/>
<path d="M-182.901 459.027L20.6148 287.65" stroke="#3F001F" stroke-width="2" stroke-miterlimit="10"/>
<path d="M-182.648 468.251L20.8672 296.874" stroke="#3F001F" stroke-width="2" stroke-miterlimit="10"/>
<path d="M-182.396 477.474L21.1192 306.097" stroke="#3F001F" stroke-width="2" stroke-miterlimit="10"/>
<path d="M-182.144 486.69L21.3716 315.313" stroke="#3F001F" stroke-width="2" stroke-miterlimit="10"/>
<path d="M-181.892 495.914L21.6236 324.537" stroke="#3F001F" stroke-width="2" stroke-miterlimit="10"/>
<path d="M-181.632 505.137L21.8757 333.76" stroke="#3F001F" stroke-width="2" stroke-miterlimit="10"/>
<path d="M-181.38 514.361L22.1282 342.984" stroke="#3F001F" stroke-width="2" stroke-miterlimit="10"/>
<path d="M-181.127 523.584L22.3882 352.207" stroke="#3F001F" stroke-width="2" stroke-miterlimit="10"/>
<path d="M-180.875 532.8L22.6402 361.431" stroke="#3F001F" stroke-width="2" stroke-miterlimit="10"/>
<path d="M-180.623 542.024L22.8926 370.647" stroke="#3F001F" stroke-width="2" stroke-miterlimit="10"/>
<path d="M-180.371 551.247L23.1446 379.87" stroke="#3F001F" stroke-width="2" stroke-miterlimit="10"/>
</g>
<path d="M245.5 121.259L253.227 402.607" stroke="#BB6067" stroke-width="2" stroke-miterlimit="10"/>
</g>
<defs>
<clipPath id="clip0_879_1345">
<rect width="744" height="421" fill="white" transform="translate(-214)"/>
</clipPath>
</defs>
</svg>
