<svg width="390" height="459" viewBox="0 0 390 459" fill="none" xmlns="http://www.w3.org/2000/svg">
<g opacity="0.3" clip-path="url(#clip0_3327_302)">
<path d="M304.282 449.723C305.189 444.255 306.296 438.802 306.987 433.305C312.425 390.065 315.115 346.667 313.475 303.11C312.54 278.562 310.483 254.072 308.9 229.552C308.037 216.257 309.576 214.386 322.942 215.681C328.855 216.257 334.84 217.969 340.393 220.185C354.435 225.797 368.289 231.912 382.129 237.999C386.273 239.826 386.388 241.107 385.553 245.51C382.661 260.993 379.554 276.462 377.238 292.031C368.749 349.199 369.282 406.742 370.692 464.314C370.835 470.285 370.864 470.285 376.806 470.285C396.948 470.285 417.089 470.271 437.231 470.271C438.18 470.271 439.13 470.357 440.223 470.415C440.41 471.005 440.698 471.537 440.755 472.084C441.388 478.415 441.086 478.703 434.67 478.703C275.811 478.703 116.966 478.703 -41.893 478.703C-47.0339 478.703 -49.2399 475.964 -48.5109 470.487C-46.9716 470.415 -45.3315 470.285 -43.7058 470.285C-23.3197 470.285 -2.94795 470.213 17.4381 470.357C20.5745 470.372 21.6247 469.48 21.6247 466.343C21.5384 442.241 21.8405 418.138 21.4089 394.036C21.2794 387.058 19.1789 380.122 17.9705 373.172C16.7907 366.366 15.5966 359.574 14.4313 352.955C14.978 352.581 15.1506 352.351 15.3664 352.322C19.529 351.794 21.6103 349.372 21.6103 345.055C21.6103 334.378 22.0419 323.687 21.4521 313.053C21.0492 305.686 19.3084 298.391 18.0568 291.095C17.0353 285.081 15.8412 279.109 14.7766 273.109C14.5752 271.972 14.6327 270.778 14.5752 269.77C15.1075 269.483 15.3089 269.296 15.5247 269.267C21.5672 268.36 21.2938 268.346 21.6679 262.072C22.2865 251.51 19.8407 241.352 18.028 231.121C16.9778 225.236 15.8556 219.365 14.8054 213.465C14.6183 212.444 14.6759 211.364 14.6039 210.156C15.6254 209.954 16.4167 209.71 17.2223 209.666C22.6318 209.436 22.6318 209.451 22.6318 204.17C22.6318 189.665 22.6749 175.146 22.5455 160.642C22.5167 157.534 23.3511 155.735 26.4155 154.397C32.4436 151.764 38.2127 148.541 44.1257 145.634C46.183 144.612 47.4778 145.001 47.6648 147.692C48.2259 155.994 48.2834 156.009 56.6278 156.052C62.1379 156.081 67.6625 155.951 73.1726 156.052C76.424 156.109 78.1504 155.045 77.7908 151.476C77.5893 149.476 77.7476 147.447 77.7476 144.555C81.0422 145.965 83.8332 147.015 86.4948 148.325C90.9259 150.498 95.3427 152.714 99.6299 155.189C100.709 155.807 101.845 157.419 101.874 158.599C102.133 170.945 102.176 183.291 102.263 195.637C102.291 198.99 102.234 202.357 102.263 205.709C102.291 208.458 103.514 210.055 106.478 209.666C109.816 209.22 110.665 210.659 110.046 213.811C108.19 223.293 106.147 232.761 104.867 242.33C103.802 250.23 103.629 258.259 103.356 266.231C103.327 267.152 104.953 268.475 106.104 268.965C107.197 269.44 108.636 269.065 110.621 269.065C109.744 274.404 108.996 279.296 108.147 284.16C106.91 291.326 104.967 298.434 104.478 305.643C103.601 318.637 103.514 331.688 103.227 344.71C103.083 351.559 103.198 351.559 110.492 352.509C109.672 357.387 108.866 362.236 108.032 367.1C106.809 374.15 104.737 381.187 104.507 388.266C103.716 412.066 103.586 435.881 103.212 459.695C103.169 462.098 103.241 464.486 103.212 466.889C103.212 469.264 104.277 470.372 106.723 470.314C118.203 470.055 116.808 472.084 116.808 460.601C116.837 309.758 116.822 158.915 116.822 8.07238C116.822 7.10829 116.822 6.1586 116.822 5.19452C116.851 0.892117 119.815 -1.108 123.771 0.733835C124.533 1.09357 125.095 2.61883 125.123 3.62608C125.267 8.77745 125.008 13.9432 125.31 19.0802C125.454 21.5839 126.03 24.3179 127.281 26.4331C132.202 34.8077 137.87 42.7506 142.431 51.2834C145.366 56.7657 147.265 62.9244 148.933 68.9535C152.933 83.2996 156.559 97.7609 160.27 112.179C162.385 120.424 164.284 128.727 166.442 136.957C166.816 138.367 167.852 139.691 168.859 140.799C173.161 145.533 177.707 150.052 181.85 154.915C183.174 156.469 184.224 158.786 184.282 160.786C184.541 170.499 184.383 180.212 184.483 189.924C184.498 191.392 184.713 193.378 185.634 194.212C189.85 198.011 190.152 203.306 191.432 208.184C193.863 217.465 196.137 226.775 198.381 236.1C200.366 244.287 202.208 252.518 204.136 260.734C206.207 269.569 208.351 278.39 210.351 287.253C210.84 289.441 211.099 291.743 211.099 293.988C211.142 350.466 211.128 406.944 211.128 463.422C211.128 464.256 211.214 465.105 211.113 465.94C210.667 469.494 212.336 470.386 215.688 470.4C219.127 470.4 219.601 468.789 219.587 465.954C219.299 420.988 218.709 376.021 218.968 331.069C219.155 299.067 219.961 267.051 221.529 235.092C222.306 219.422 224.493 203.68 229.759 188.687C233.513 178.01 238.635 167.995 250.533 164.7C268.646 159.678 282.126 165.362 289.795 181.204C293.679 189.219 295.808 197.81 297.362 206.601C301.779 231.682 302.815 257.007 303.03 282.376C303.347 319.658 303.448 356.941 303.491 394.238C303.52 411.505 303.203 428.758 303.045 446.025C303.045 447.205 303.045 448.399 303.045 449.579C303.448 449.637 303.851 449.694 304.253 449.752L304.282 449.723ZM229.643 248.143C231.111 248.143 232.391 248.143 233.686 248.143C245.08 248.143 256.46 248.172 267.855 248.1C270.617 248.086 271.854 249.165 271.682 251.942C271.523 254.388 272.171 256.878 267.999 256.748C257.942 256.446 247.857 256.576 237.786 256.676C226.838 256.777 228.507 255.007 228.032 266.519C227.888 270.001 229.039 271.08 232.478 271.037C243.858 270.878 255.252 270.965 266.646 270.994C271.279 270.994 271.365 271.368 271.638 275.857C271.897 280.059 269.092 279.066 266.891 279.08C255.266 279.124 243.627 279.124 232.003 279.095C229.974 279.095 228.032 279.052 227.917 281.829C227.816 284.332 227.687 286.851 227.572 289.354C227.428 292.434 228.608 293.671 231.96 293.614C243.584 293.398 255.223 293.556 266.848 293.484C269.941 293.47 271.811 294.117 271.696 297.887C271.581 301.427 270.113 302.377 266.833 302.333C256.532 302.19 246.217 302.218 235.902 302.29C226.032 302.348 227.039 300.866 226.953 311.399C226.91 316.003 227.557 316.421 232.132 316.392C243.757 316.291 255.381 316.349 267.02 316.291C270.185 316.277 271.782 317.226 271.71 320.867C271.638 324.579 269.682 324.853 266.848 324.824C256.662 324.738 246.462 324.752 236.276 324.752C224.881 324.752 227.155 324.292 226.939 334.206C226.838 338.609 227.342 339.055 231.96 339.069C243.354 339.098 254.734 339.098 266.128 339.069C271.552 339.069 271.394 339.069 271.638 343.947C271.869 348.739 268.459 347.559 265.956 347.573C256 347.66 246.059 347.602 236.103 347.617C229.898 347.617 226.843 350.734 226.939 356.97C227.011 361.272 227.442 361.675 231.744 361.675C243.728 361.675 255.727 361.776 267.711 361.617C271.149 361.574 271.61 363.2 271.61 366.035C271.61 368.87 270.862 370.136 267.725 370.093C257.18 369.934 246.62 369.963 236.074 370.064C226.075 370.15 226.996 368.28 227.011 379.287C227.011 383.95 227.514 384.396 232.247 384.396C244.117 384.396 255.986 384.396 267.855 384.396C270.027 384.396 272.013 384.295 271.696 387.518C271.437 390.18 271.897 392.727 267.682 392.626C257.496 392.382 247.296 392.439 237.11 392.583C227.342 392.727 226.45 390.051 227.442 402.886C227.672 405.836 228.68 407.016 231.816 406.972C243.685 406.814 255.554 407.044 267.423 406.814C270.919 406.742 271.639 408.052 271.653 411.16C271.653 414.325 270.488 415.361 267.394 415.318C257.324 415.189 247.253 415.275 237.182 415.275C227.845 415.275 227.989 415.275 227.888 424.801C227.845 428.427 228.967 429.564 232.607 429.506C244.232 429.305 255.871 429.405 267.495 429.506C268.761 429.506 270.66 429.938 271.164 430.815C273.279 434.47 271.164 437.809 266.963 437.823C255.094 437.823 243.225 437.881 231.355 437.78C228.881 437.765 227.845 438.543 228.032 441.075C228.19 443.349 228.277 445.651 228.032 447.896C227.658 451.277 229.054 452.212 232.305 452.169C243.93 452.025 255.568 452.256 267.193 452.054C270.818 451.997 271.595 453.45 271.653 456.716C271.725 460.4 269.624 460.342 267.035 460.342C255.166 460.285 243.297 460.371 231.427 460.27C228.996 460.256 227.802 460.947 228.09 463.522C228.205 464.587 228.234 465.695 228.118 466.76C227.845 469.379 228.823 470.314 231.557 470.314C251.339 470.213 271.121 470.228 290.902 470.314C293.679 470.314 294.614 469.523 294.643 466.674C294.902 437.694 295.564 408.699 295.549 379.719C295.549 345.933 294.916 312.161 294.672 278.375C294.514 256.835 294.082 235.323 290.341 214.041C289.09 206.889 288.011 199.623 285.766 192.759C280.314 176.125 272.286 169.952 256.532 171.707C251.296 172.283 245.469 176.269 244.318 180.413C252.303 180.413 260.201 180.37 268.085 180.456C269.121 180.456 270.631 180.859 271.077 181.593C273.322 185.19 271.25 188.845 267.135 188.845C258.748 188.845 250.346 188.975 241.959 188.744C239.124 188.672 237.714 189.91 236.966 192.241C235.93 195.493 235.11 198.802 234.075 202.501C235.571 202.688 236.693 202.961 237.83 202.961C247.9 203.033 257.971 203.119 268.027 203.033C270.66 203.004 271.739 203.939 271.739 206.544C271.739 211.134 271.638 211.321 266.92 211.336C256.604 211.35 246.303 211.292 235.988 211.408C234.794 211.408 232.751 212.185 232.578 212.933C231.672 216.904 231.24 220.991 230.607 225.365C233.053 225.495 234.592 225.653 236.117 225.653C246.792 225.667 257.453 225.754 268.128 225.61C271.221 225.567 271.811 227.077 271.739 229.581C271.667 231.898 271.854 234.186 268.286 234.085C262.301 233.898 256.302 234.027 250.303 234.027C244.663 234.027 239.024 233.912 233.398 234.128C232.132 234.171 229.931 235.279 229.859 236.056C229.485 239.927 229.687 243.87 229.687 248.172L229.643 248.143ZM189.159 283.512V290.376C189.159 328.148 189.303 365.92 189.015 403.692C188.972 409.721 190.224 413.779 196.338 415.433C199.201 416.21 200.035 418.11 200.007 421.074C199.863 435.708 199.949 450.327 199.978 464.961C199.978 466.616 200.136 468.271 200.222 470.012C203.503 470.199 202.884 467.94 202.884 466.357C202.913 408.555 202.913 350.768 202.884 292.966C202.884 291.671 202.711 290.347 202.409 289.081C201.273 284.491 199.949 279.944 198.856 275.339C196.726 266.346 194.784 257.324 192.641 248.33C189.936 236.949 186.8 225.653 184.44 214.199C182.699 205.738 179.606 198.543 172.686 192.86C166.572 187.838 161.22 181.866 155.465 176.226C154.962 176.902 154.573 177.19 154.573 177.478C154.472 185.377 154.357 193.277 154.458 201.162C154.458 201.795 156.012 202.86 156.918 202.947C159.537 203.206 162.184 202.975 164.817 203.148C165.766 203.206 167.133 203.565 167.55 204.242C169.593 207.652 167.421 211.292 163.507 211.336C153.48 211.465 154.257 209.393 154.185 221.207C154.17 224.444 155.163 226.128 158.702 225.71C160.587 225.495 162.543 225.811 164.442 225.653C168.715 225.279 167.651 228.344 167.895 230.689C168.183 233.524 166.759 234.056 164.27 234.056C153.408 234.056 153.206 234.373 154.213 245.366C154.386 247.28 155.048 248.215 157.048 248.158C159.796 248.086 162.558 248.129 165.32 248.158C168.701 248.187 167.737 250.805 167.838 252.633C167.924 254.446 168.471 256.734 165.334 256.662C162.817 256.604 160.299 256.705 157.781 256.633C155.58 256.576 154.3 257.496 154.3 259.741C154.3 262.849 154.257 265.986 154.587 269.065C154.659 269.771 156.184 270.735 157.12 270.835C159.738 271.109 162.4 270.85 165.018 271.109C165.982 271.209 167.421 271.943 167.694 272.735C169.276 277.181 167.766 279.152 163.133 279.109C161.939 279.109 160.731 279.08 159.537 279.095C154.659 279.138 154.156 279.541 154.213 284.462C154.357 294.664 152.991 293.498 163.176 293.527C167.938 293.527 167.809 293.527 167.924 298.319C167.996 301.211 167.176 302.636 164.04 302.247C162.5 302.06 160.932 302.247 159.364 302.262C156.036 302.281 154.29 303.907 154.127 307.139C153.681 316.176 154.688 317.154 163.925 316.435C166.183 316.262 167.895 316.291 167.91 319.399C167.924 324.392 167.881 324.666 164.04 324.709C153.221 324.838 153.307 324.824 154.357 335.832C154.602 338.393 155.71 339.141 157.997 339.084C160.515 339.026 163.047 338.969 165.536 339.184C166.342 339.256 167.564 340.077 167.751 340.782C169.104 345.832 167.694 347.559 162.5 347.559C161.421 347.559 160.342 347.559 159.263 347.559C154.242 347.559 154.17 347.588 154.185 352.48C154.213 363.085 153.696 361.445 163.263 361.589C167.967 361.661 167.881 361.689 167.91 366.495C167.924 369.373 166.831 370.38 164.054 370.064C162.515 369.891 160.946 370.021 159.378 370.021C154.242 370.021 154.07 370.049 154.185 375.201C154.4 385.475 152.962 384.424 163.522 384.295C167.018 384.252 168.097 385.23 167.953 388.727C167.823 391.705 166.888 392.9 163.925 392.54C162.63 392.382 161.292 392.511 159.968 392.511C154.228 392.511 154.17 392.583 154.17 398.296C154.17 420.354 154.17 442.413 154.199 464.486C154.199 465.911 154.199 467.436 154.688 468.717C154.962 469.408 156.314 470.127 157.105 470.055C157.853 469.998 158.846 469.048 159.148 468.256C159.522 467.307 159.306 466.127 159.306 465.048C159.306 448.255 159.306 431.477 159.306 414.685C159.306 412.958 158.774 410.814 161.594 410.742C165.881 410.656 170.212 410.296 174.456 410.685C179.678 411.16 180.642 410.642 180.642 405.447C180.642 366.956 180.642 328.464 180.642 289.973C180.642 285.062 183.471 282.894 189.13 283.469L189.159 283.512ZM136.216 157.937C137.021 163.405 135.007 166.139 130.173 166.139C129.209 166.139 128.217 166.024 127.31 166.254C126.605 166.441 125.497 167.103 125.483 167.563C125.397 171.607 125.138 175.736 125.929 179.65C126.073 180.355 130.72 180.154 133.295 180.37C133.54 180.384 133.77 180.399 134.014 180.37C137.496 180.154 136.561 182.758 136.618 184.6C136.676 186.557 137.208 188.672 133.871 188.831C125.195 189.219 125.21 189.349 125.195 197.982C125.195 198.097 125.195 198.227 125.195 198.342C125.195 201.45 126.797 203.028 130 203.076C134.652 203.153 136.825 205.527 136.518 210.199C136.518 210.415 136.316 210.602 135.942 211.307C134.446 211.307 132.676 211.307 130.921 211.307C127.123 211.288 125.214 213.177 125.195 216.976C125.195 217.221 125.195 217.451 125.195 217.696C125.166 225.451 125.167 225.538 132.863 225.61C135.583 225.639 136.762 226.43 136.69 229.337C136.575 233.898 136.503 234.114 131.439 234.071C127.325 234.042 125.238 236.104 125.181 240.258C125.181 240.503 125.181 240.733 125.181 240.978C125.267 249.525 124.447 248.158 132.13 248.057C135.525 248.014 136.604 249.05 136.777 252.561C137.021 257.439 134 256.604 131.209 256.619C127.219 256.638 125.21 258.566 125.181 262.403C125.138 270.504 125.138 270.634 133.122 270.936C136.705 271.066 136.59 273.109 136.705 275.699C136.82 278.49 135.683 279.368 133.137 279.109C132.432 279.037 131.698 279.095 130.979 279.08C125.253 279.037 125.238 279.066 125.166 284.879C125.066 293.024 125.08 292.966 133.309 293.585C134.417 293.671 136.115 294.333 136.446 295.168C138.388 299.916 136.244 302.65 131.195 302.218C125.282 301.715 125.138 301.844 125.138 307.758C125.138 315.759 125.138 315.716 133.166 316.406C134.331 316.507 136.043 317.039 136.446 317.874C138.345 321.889 136.216 324.881 131.856 324.766C131.252 324.752 130.662 324.666 130.058 324.651C125.612 324.551 125.238 324.91 125.166 329.472C125.166 330.076 125.138 330.666 125.166 331.27C125.354 339.443 124.044 339.271 132.791 339.084C133.511 339.069 134.273 338.983 134.935 339.213C135.525 339.415 136.273 339.861 136.489 340.393C138.258 344.667 136.259 347.645 131.698 347.631C124.116 347.602 125.411 347.041 125.181 354.178C125.181 354.293 125.181 354.423 125.181 354.538C125.282 362.049 124.275 361.804 132.403 361.632C135.568 361.56 136.82 362.366 136.777 365.848C136.733 369.186 135.741 370.15 132.446 370.136C124.864 370.107 125.166 368.323 125.21 377.345C125.253 384.971 124.663 384.64 132.504 384.338C135.755 384.209 136.834 385.216 136.777 388.597C136.719 391.82 135.654 392.943 132.561 392.597C131.137 392.439 129.684 392.597 128.245 392.54C126.145 392.454 125.181 393.346 125.238 395.519C125.325 398.396 125.267 401.274 125.238 404.152C125.224 406.08 126.044 406.987 128.058 406.915C130.864 406.829 133.669 406.886 136.489 406.886C136.575 408.195 136.647 408.785 136.662 409.375C136.748 413.308 134.834 415.28 130.921 415.289C127.008 415.299 125.109 417.174 125.224 420.916C125.224 421.52 125.224 422.11 125.238 422.714C125.354 429.564 124.188 429.506 132.101 429.463C136.705 429.434 136.489 429.463 136.748 433.952C136.949 437.262 135.654 438.255 132.619 437.881C131.439 437.737 130.216 437.967 129.022 437.837C126.317 437.535 124.908 438.442 125.224 441.392C125.339 442.456 125.166 443.55 125.195 444.629C125.354 453.061 124.361 452.14 132.705 452.169C133.425 452.169 134.216 452.025 134.834 452.284C135.496 452.558 136.331 453.133 136.518 453.752C137.985 458.357 136.489 460.342 131.698 460.342C124.749 460.342 124.778 460.357 125.166 467.336C125.282 469.393 125.915 470.386 128.145 470.343C132.935 470.242 137.741 470.213 142.531 470.343C144.891 470.4 145.826 469.451 145.725 467.192C145.682 466.228 145.725 465.278 145.725 464.314C145.725 365.891 145.74 267.468 145.797 169.045C145.797 167.304 146.042 165.419 146.761 163.88C148.876 159.347 151.494 155.03 153.537 150.454C155.523 146.023 159.278 142.166 157.709 136.497C155.062 126.928 152.746 117.273 150.257 107.661C146.819 94.3938 142.762 81.2419 140.042 67.8311C137.956 57.5284 131.094 50.3337 125.958 41.8297C125.354 43.3118 125.195 44.6787 125.181 46.0457C125.152 50.4776 125.181 54.9239 125.181 59.3558C125.181 68.9391 124.706 67.5433 133.108 67.6297C134.201 67.6297 136.172 68.047 136.244 68.5218C136.59 70.6083 136.748 72.8818 136.187 74.8531C135.985 75.5582 133.554 75.9035 132.13 75.9179C123.829 76.0618 125.238 75.3567 125.195 82.7816C125.152 91.6742 124.792 90.2784 132.72 90.2065C135.525 90.1777 136.863 90.7389 136.676 93.9333C136.417 98.4803 136.633 98.4947 132.029 98.4659C131.195 98.4659 130.346 98.5523 129.511 98.4372C126.044 97.9623 124.634 99.4444 125.152 102.883C125.238 103.473 125.152 104.078 125.152 104.682C125.152 112.611 125.152 112.582 133.079 112.798C134.187 112.826 136.158 113.172 136.244 113.618C136.59 115.704 136.777 117.978 136.216 119.964C136.014 120.683 133.612 121.072 132.202 121.129C124.059 121.417 125.21 120.007 125.195 128.266C125.195 135.993 123.9 135.36 132.331 135.216C135.511 135.159 136.777 135.964 136.719 139.418C136.662 142.641 135.841 144.094 132.461 143.634C130.936 143.432 129.267 143.303 127.828 143.72C126.807 144.008 125.411 145.217 125.325 146.123C125.023 149.203 125.023 152.368 125.325 155.448C125.425 156.368 126.864 157.75 127.814 157.865C130.504 158.196 133.281 157.98 136.158 157.98L136.216 157.937ZM350.162 460.299C348.781 460.299 347.486 460.299 346.191 460.299C335.89 460.299 325.575 460.4 315.274 460.256C312.454 460.213 310.958 461.047 310.843 463.954C310.814 464.789 310.598 465.623 310.368 466.415C309.519 469.264 310.54 470.3 313.504 470.285C328.61 470.199 343.702 470.17 358.808 470.3C361.815 470.328 362.606 469.206 362.247 466.487C361.254 459.206 360.391 451.896 359.355 444.615C357.988 435.06 356.434 425.549 355.096 415.995C353.442 404.152 351.974 392.281 350.334 380.439C346.91 355.531 343.342 330.652 339.99 305.744C337.329 285.973 334.969 266.173 332.351 246.402C331.962 243.424 331.775 239.409 329.891 237.869C326.884 235.423 322.496 234.646 318.381 233.049C318.381 237.61 318.352 241.409 318.381 245.208C318.41 247.251 319.503 248.259 321.589 248.129C324.265 247.971 325.215 249.453 325.114 251.913C325.014 254.057 325.877 256.676 322.122 256.763C321.273 256.791 319.791 258.201 319.748 259.022C319.604 261.871 319.892 264.749 320.194 267.598C320.424 269.699 321.417 271.152 323.92 270.907C326.035 270.706 326.984 271.756 326.855 273.9C326.769 275.526 326.841 277.152 326.841 278.706C322.956 279.195 321.043 281.272 321.1 284.937C321.1 285.656 321.129 286.376 321.143 287.095C321.287 292.98 321.273 293.038 327.1 293.47C328.869 293.599 329.977 294.204 329.603 296.045C329.186 298.132 331.2 301.082 327.646 302.118C325.905 302.621 323.201 302.377 322.553 303.456C321.647 304.967 322.237 307.384 322.208 309.413C322.208 310.492 322.338 311.586 322.208 312.651C321.92 315.385 323.359 316.234 325.79 316.32C327.905 316.392 330.006 316.622 332.005 316.78C332.763 321.989 330.682 324.642 325.762 324.738C325.172 324.738 324.467 324.666 324.006 324.939C323.359 325.328 322.453 326.004 322.438 326.579C322.381 330.393 322.539 334.206 322.625 338.019C325.503 338.393 328.366 338.753 331.243 339.113C331.358 339.127 331.488 339.127 331.603 339.113C335.185 338.508 335.314 340.638 335.343 343.386C335.372 346.322 334.696 347.703 331.358 347.674C321.546 347.617 321.633 347.746 321.388 357.732C321.316 360.596 322.381 361.675 325.085 361.646C328.438 361.603 331.804 361.545 335.142 361.761C336.077 361.819 337.516 362.625 337.76 363.402C339.213 368.049 337.631 370.078 332.883 370.049C332.279 370.049 331.689 370.049 331.085 370.049C320.697 370.049 320.741 370.049 320.611 380.582C320.582 383.273 321.345 384.554 324.28 384.439C328.826 384.281 333.387 384.54 337.933 384.396C340.81 384.309 340.997 385.935 340.839 388.065C340.681 390.108 341.429 392.669 337.918 392.583C334.926 392.511 331.934 392.554 328.927 392.554C322.597 392.554 319.091 395.686 318.41 401.951C317.935 406.296 318.511 406.915 322.956 406.9C329.747 406.9 336.552 406.9 343.529 406.9C343.659 408.512 343.716 409.692 343.846 410.858C344.249 414.196 343.026 415.649 339.443 415.39C335.516 415.102 331.545 415.318 327.589 415.333C317.36 415.361 317.489 415.376 316.266 425.52C315.878 428.715 316.928 429.549 319.877 429.506C327.79 429.391 335.703 429.578 343.601 429.405C346.896 429.333 347.327 431.046 347.313 433.679C347.313 436.255 347.04 438.024 343.644 437.909C336.336 437.694 329.027 437.837 321.719 437.852C316.856 437.852 314.18 440.231 313.691 444.989C313.59 445.939 313.389 446.874 313.216 447.824C312.555 451.45 313.029 452.112 316.727 452.126C325.949 452.169 335.185 452.14 344.407 452.126C351.413 452.126 351.456 452.155 350.593 459.105C350.564 459.335 350.435 459.551 350.133 460.342L350.162 460.299ZM62.5695 195.594C58.4405 200.515 54.8007 205.047 50.945 209.379C48.4129 212.228 47.5353 215.336 47.5497 219.149C47.6792 250.546 47.6217 281.958 47.6217 313.356C47.6217 314.91 47.6504 316.478 47.6504 318.032C47.6504 320.234 48.6575 321.227 50.9738 321.198C58.757 321.112 66.5547 321.126 74.3379 321.169C76.7837 321.169 77.7908 320.075 77.7476 317.672C77.6757 313.96 77.5462 310.233 77.7908 306.535C78.0209 303.254 76.9419 302.003 73.561 302.218C69.8636 302.449 66.1375 302.218 62.4257 302.146C58.4549 302.074 59.3469 299.139 59.1886 296.707C59.016 294.002 60.4834 293.47 62.7422 293.527C65.7346 293.599 68.7271 293.57 71.7339 293.556C75.7143 293.537 77.7092 291.589 77.7188 287.714C77.7188 286.39 77.7332 285.081 77.7188 283.757C77.6757 279.57 77.2009 279.109 72.8561 279.08C69.7342 279.066 66.6122 278.865 63.5191 279.138C60.0231 279.455 58.9153 278.159 59.1167 274.706C59.275 271.972 60.095 270.691 62.9292 270.95C64.4686 271.094 66.0368 271.008 67.6049 270.979C79.8481 270.735 77.4167 272.317 77.7476 260.173C77.8195 257.741 76.6686 256.647 74.3092 256.647C70.5974 256.647 66.8712 256.504 63.1738 256.719C59.9943 256.906 59.1023 255.727 59.1311 252.575C59.1599 249.179 60.1526 247.64 63.6917 248.115C65.1016 248.302 66.5691 248.172 68.0077 248.172C78.021 248.172 77.9346 248.172 77.8052 237.985C77.7764 235.207 76.7405 234.013 74.0214 234.027C70.0651 234.056 66.1087 233.898 62.1523 234.027C58.9728 234.114 59.1599 232.071 59.2318 229.955C59.3037 227.84 58.7858 225.495 62.325 225.653C66.3964 225.84 70.4823 225.754 74.5394 225.581C75.5608 225.538 77.3735 224.703 77.3879 224.2C77.4886 220.545 78.4813 216.084 76.7981 213.364C72.9712 207.206 67.7632 201.896 62.5839 195.594H62.5695ZM66.3964 377.69C66.3964 386.036 66.3964 394.036 66.3964 402.051C66.3964 410.411 66.3964 410.354 74.6976 409.778C76.8269 409.634 77.7332 408.728 77.7332 406.685C77.7332 395.418 77.7044 384.151 77.7476 372.884C77.7476 370.884 76.9563 370.064 74.9853 370.078C71.1585 370.121 67.3028 369.862 63.4903 370.121C60.1957 370.337 59.1023 369.258 59.1167 365.92C59.1167 362.697 59.9511 361.186 63.3608 361.675C64.6556 361.862 65.9936 361.704 67.3172 361.675C79.6035 361.459 77.503 363.531 77.762 350.869C77.8195 348.264 76.7405 347.545 74.3523 347.602C70.2809 347.703 66.2094 347.602 62.1379 347.617C58.3398 347.631 59.4044 344.768 59.2318 342.695C59.0592 340.623 59.2893 338.925 62.1955 339.069C66.0224 339.256 69.8636 338.983 73.6905 339.127C77.9634 339.3 77.6181 336.465 77.7764 333.601C77.9346 330.637 77.1434 329.17 73.82 329.256C66.8712 329.429 59.9224 329.27 52.9735 329.285C47.636 329.285 47.6217 329.299 47.6217 334.652C47.6073 357.301 47.6216 379.949 47.5785 402.598C47.5641 410.124 47.708 410.268 55.2035 409.764C57.1745 409.634 58.0377 408.872 58.0233 406.944C58.0089 403.346 58.0233 399.749 58.0233 396.152C58.0233 390.065 58.0233 383.978 58.0233 377.676H66.3964V377.69ZM77.7476 444.327C77.7476 436.787 77.6613 429.247 77.7908 421.707C77.8339 419.103 76.9707 418.038 74.3092 418.067C66.4108 418.153 58.5124 418.139 50.6141 418.067C48.4561 418.052 47.6217 418.858 47.6217 421.016C47.6792 436.341 47.6792 451.666 47.6648 466.976C47.6648 469.35 48.528 470.357 51.0601 470.314C58.7139 470.199 66.382 470.17 74.0358 470.328C76.87 470.386 77.8483 469.364 77.8052 466.602C77.6901 459.177 77.762 451.752 77.762 444.341L77.7476 444.327ZM24.2575 360.337C25.0631 364.927 25.8113 368.654 26.3436 372.409C27.5377 380.769 28.8756 389.13 29.6381 397.547C30.1417 403.015 29.7245 408.57 29.7245 414.081C29.7245 431.463 29.6957 448.831 29.7676 466.213C29.7676 467.494 30.1417 469.436 30.9905 469.926C35.1914 472.343 39.4643 469.739 39.4643 465.004C39.4643 443.55 39.4643 422.096 39.4643 400.641C39.4643 388.655 39.5507 376.669 39.378 364.682C39.3636 363.229 38.1264 360.639 37.2488 360.538C33.1485 360.092 28.962 360.337 24.2719 360.337H24.2575ZM100.623 360.236C96.695 360.236 93.4724 360.437 90.2929 360.178C86.7394 359.891 85.8474 361.387 85.8618 364.74C85.9625 398.411 85.9049 432.067 85.9193 465.738C85.9193 470.228 86.0488 470.026 90.6382 470.357C94.3068 470.616 94.7096 468.918 94.7096 465.925C94.6377 443.636 94.35 421.347 94.8391 399.073C95.0118 390.957 97.0979 382.87 98.3351 374.769C99.0401 370.136 99.8026 365.502 100.637 360.236H100.623ZM167.679 444.356C167.679 451.91 167.708 459.45 167.665 467.005C167.665 468.933 167.996 470.285 170.355 470.257C176.585 470.199 182.814 470.285 189.044 470.185C189.821 470.185 190.972 469.58 191.288 468.918C193.533 464.299 191.015 460.184 185.893 460.357C182.627 460.472 181.85 459.22 181.865 456.169C181.879 453.09 182.8 451.622 185.994 452.083C186.584 452.169 187.188 452.054 187.792 452.112C190.497 452.356 191.835 451.32 191.633 448.428C191.475 446.169 191.475 443.867 191.633 441.607C191.864 438.543 190.483 437.492 187.605 437.794C186.425 437.909 185.188 437.938 184.023 437.737C183.332 437.622 182.412 437.104 182.167 436.514C180.397 432.312 182.34 429.549 186.871 429.405C188.598 429.348 191.072 430.283 191.461 427.376C191.821 424.729 191.677 422.527 188.555 420.901C182.455 417.707 176.11 419.419 169.881 419.103C167.636 418.987 167.665 420.786 167.665 422.412C167.665 429.722 167.665 437.032 167.665 444.341L167.679 444.356ZM39.4499 314.953H39.4212C39.4212 303.931 39.4356 292.908 39.4068 281.886C39.4068 279.843 39.4068 277.569 36.5007 277.469C33.2636 277.354 30.0266 277.31 26.8039 277.541C26.0127 277.598 24.6459 278.865 24.6747 279.526C24.8186 282.491 25.207 285.484 25.7969 288.405C27.7103 297.988 30.0266 307.47 29.7676 317.385C29.5231 327.198 29.7101 337.026 29.7101 346.854C29.7101 351.861 29.8827 352.048 34.616 352.077C38.9032 352.092 39.4356 351.502 39.4356 346.581C39.4356 336.033 39.4356 325.5 39.4356 314.953H39.4499ZM100.666 277.426C96.3641 277.426 93.012 277.584 89.6886 277.382C86.8688 277.21 85.8761 278.289 85.8761 281.066C85.9337 303.47 85.9625 325.889 85.8618 348.293C85.8474 352.48 88.4802 351.933 91.1273 352.12C94.2061 352.351 94.6809 350.768 94.6665 348.207C94.5945 338.379 94.8679 328.551 94.5945 318.723C94.3356 309.658 96.7957 301.082 98.3639 292.333C99.2127 287.584 99.8457 282.778 100.666 277.426ZM358.492 377.503C358.635 377.503 358.765 377.503 358.909 377.518C358.966 376.266 359.153 375.014 359.053 373.776C358.247 364.51 357.283 355.272 356.549 346.005C355.542 333.371 354.578 320.723 353.816 308.075C352.636 288.477 351.629 268.864 350.622 249.251C350.291 242.776 350.421 242.776 344.349 241.064C341.012 240.129 340.163 240.762 340.566 244.229C341.515 252.547 342.551 260.864 343.601 269.181C345.112 281.167 346.608 293.153 348.234 305.125C349.859 317.183 351.687 329.227 353.327 341.285C354.478 349.789 355.384 358.308 356.521 366.812C357.01 370.395 357.83 373.92 358.492 377.474V377.503ZM359.297 244.762C359.182 246.388 358.995 247.453 359.053 248.489C359.427 255.396 359.887 262.302 360.261 269.209C360.851 280.188 361.355 291.167 361.988 302.132C362.434 309.888 363.052 317.629 363.628 325.371C363.642 325.615 363.987 325.831 364.419 326.349C364.649 325.212 364.851 324.421 364.966 323.615C366.304 313.327 367.455 303.01 368.994 292.736C371.109 278.548 373.555 264.418 375.698 250.244C375.856 249.208 374.893 247.107 374.159 246.963C369.325 246.014 364.419 245.453 359.283 244.733L359.297 244.762ZM77.129 199.709C77.4743 197.824 77.6901 197.162 77.6901 196.486C77.7188 186.787 77.6901 177.089 77.762 167.391C77.7764 164.873 76.4096 164.398 74.3523 164.398C66.6985 164.398 59.0304 164.455 51.3766 164.297C48.528 164.239 47.5785 165.333 47.6073 168.067C47.6936 177.046 47.6073 186.025 47.636 195.004C47.636 196.184 47.9957 197.364 48.2691 199.004C54.4985 192.888 59.8217 187.176 58.0521 178.183C57.8651 177.262 57.9945 176.269 58.0377 175.319C58.1816 171.65 61.0158 172.686 63.0875 172.484C65.1879 172.283 66.5547 172.887 66.4252 175.42C66.2957 177.924 66.4252 180.442 66.3964 182.96C66.2957 190.658 72.741 193.824 77.1146 199.709H77.129ZM39.4643 243.51C39.4643 236.2 39.4499 228.891 39.4643 221.581C39.4643 219.753 39.2773 218.127 36.9323 218.055C33.5801 217.955 30.228 217.753 26.9047 217.94C26.0846 217.983 24.6891 219.394 24.7035 220.156C24.7466 222.646 25.1639 225.149 25.7249 227.581C28.4872 239.855 30.6452 252.187 29.6957 264.835C29.408 268.706 31.2782 269.166 34.3858 269.08C39.1047 268.936 39.4356 268.821 39.4643 264.705C39.5075 257.64 39.4643 250.575 39.4643 243.496V243.51ZM100.522 218.099C96.0476 218.099 92.2207 217.969 88.4082 218.199C87.545 218.257 86.0488 219.595 86.0488 220.358C85.9193 235.826 85.9337 251.295 86.0776 266.749C86.0776 267.511 87.3292 268.778 88.1493 268.907C90.1922 269.224 92.3214 269.008 95.0693 269.008C92.7386 251.338 98.5509 235.179 100.522 218.084V218.099ZM38.6299 158.541C38.2415 158.441 37.8674 158.34 37.479 158.239C35.4648 160.354 31.0481 159.477 31.0624 164.196C31.1344 178.197 31.1056 192.198 31.0624 206.213C31.0624 208.415 31.8393 209.494 34.1268 209.666C38.1264 209.969 39.4068 208.918 39.4212 204.558C39.4643 190.673 39.4643 176.787 39.3924 162.901C39.3924 161.448 38.8889 159.995 38.6155 158.556L38.6299 158.541ZM86.6386 158.455C86.3797 159.074 86.0632 159.505 86.0632 159.937C86.0056 175.607 85.9481 191.277 86.0776 206.932C86.0776 207.825 87.6457 209.292 88.6816 209.479C92.8825 210.256 94.1198 209.105 94.1342 204.846C94.1629 192.529 94.1629 180.212 94.1486 167.894C94.1486 160.93 93.8033 160.513 86.653 158.455H86.6386ZM175.607 183.665C175.938 182.701 176.196 182.284 176.196 181.866C176.24 175.42 176.312 168.959 176.196 162.513C176.182 161.433 175.563 160.167 174.83 159.333C172.226 156.412 169.276 153.793 166.802 150.771C164.73 148.239 163.45 149.375 162.299 151.318C160.371 154.57 158.573 157.894 156.832 161.246C155.854 163.131 155.537 164.887 157.465 166.7C162.529 171.463 167.392 176.427 172.37 181.276C173.233 182.125 174.326 182.744 175.578 183.679L175.607 183.665ZM319.935 223.897C319.791 224.387 319.647 224.862 319.503 225.351C329.243 228.229 338.983 231.121 348.737 233.999C348.867 233.538 349.011 233.078 349.14 232.617C339.659 228.862 330.394 224.358 319.935 223.897Z" fill="#8A1538"/>
<path d="M257.439 138.324C257.439 133.418 257.554 128.496 257.396 123.59C257.309 120.899 258.777 120.28 260.92 120.208C263.05 120.122 265.193 120.136 265.193 123.144C265.222 133.317 265.294 143.49 265.222 153.663C265.193 157.779 261.913 156.052 259.87 156.325C257.381 156.656 257.281 154.858 257.281 153.073C257.281 148.167 257.281 143.245 257.281 138.339C257.324 138.339 257.381 138.339 257.424 138.339L257.439 138.324Z" fill="#8A1538"/>
</g>
<defs>
<clipPath id="clip0_3327_302">
<rect width="490" height="514" fill="white" transform="translate(-49)"/>
</clipPath>
</defs>
</svg>
