<svg width="43" height="36" viewBox="0 0 43 36" fill="none" xmlns="http://www.w3.org/2000/svg">
<g clip-path="url(#clip0_3407_320)">
<path d="M2.55503 8.2914C2.55503 7.43107 2.55503 6.5973 2.55503 5.76237C2.55503 5.00828 2.71513 4.84083 3.43898 4.84083C6.86315 4.84083 10.2884 4.83621 13.7126 4.84776C14.0159 4.84776 14.1816 4.75191 14.353 4.49323C16.2562 1.6293 18.9193 0.260851 22.2815 0.534541C25.01 0.756264 27.1342 2.15705 28.6461 4.49554C28.8164 4.75884 28.9855 4.84891 29.2877 4.84776C32.6983 4.83621 36.109 4.84083 39.5196 4.84083C40.2998 4.84083 40.4453 4.99326 40.4453 5.80625C40.4453 6.62617 40.4453 7.44724 40.4453 8.33644C41.0192 8.33644 41.5626 8.33644 42.1049 8.33644C42.8536 8.33875 42.999 8.48426 42.999 9.24412C42.999 16.6776 42.999 24.1112 42.999 31.5458C42.999 32.2861 42.8367 32.4466 42.0937 32.4477C36.6817 32.4477 31.2698 32.4512 25.859 32.4396C25.4982 32.4396 25.2603 32.5447 25.0359 32.8334C24.5973 33.3981 24.1294 33.9386 23.6559 34.4733C22.4439 35.8429 20.5587 35.844 19.3444 34.4733C18.8517 33.9178 18.3657 33.3543 17.9114 32.7665C17.6971 32.4905 17.457 32.4373 17.1436 32.4373C11.7463 32.4431 6.34789 32.442 0.95062 32.442C0.130939 32.442 -0.000976562 32.3057 -0.000976562 31.4615C-0.000976562 24.0707 -0.000976562 16.6811 -0.000976562 9.29031C-0.000976562 8.47386 0.138832 8.33067 0.930326 8.32836C1.40951 8.3272 1.88869 8.32605 2.36787 8.32374C2.40959 8.32374 2.4513 8.30988 2.5539 8.29256L2.55503 8.2914ZM3.75129 28.6034H4.3342C8.63217 28.6034 12.9301 28.6126 17.2281 28.5987C18.6623 28.5941 19.8349 29.1057 20.7256 30.2686C20.7628 30.3171 20.8135 30.3552 20.8845 30.4233V17.904C18.0636 17.6015 15.8357 16.2896 14.3192 13.8472C12.805 11.4094 12.6302 8.78797 13.5345 6.0811H3.75129V28.6022V28.6034ZM29.4568 6.06955C30.3757 8.818 30.1874 11.4406 28.6631 13.8772C27.1421 16.3093 24.9097 17.6165 22.1203 17.904V30.4869C23.2105 28.8967 24.6977 28.5664 26.3979 28.5872C30.4975 28.638 34.5993 28.6034 38.6999 28.6034H39.2411V6.06955H29.4568ZM14.2189 9.19215C14.2166 13.2998 17.4536 16.658 21.4212 16.6661C25.514 16.6742 28.7736 13.3772 28.7814 9.22449C28.7893 5.08565 25.5354 1.72284 21.5159 1.71591C17.4931 1.70898 14.2211 5.0614 14.2189 9.19215ZM40.4453 9.564V10.1114C40.4453 16.3474 40.4453 22.5833 40.4453 28.8182C40.4453 28.9625 40.4543 29.108 40.4396 29.2512C40.4069 29.5596 40.2412 29.757 39.9334 29.7963C39.7665 29.8182 39.5963 29.8148 39.4272 29.8148C34.8755 29.8148 30.3227 29.8252 25.7711 29.809C24.6571 29.8055 23.7777 30.2086 23.1147 31.1278C22.772 31.6036 22.4044 32.0609 22.047 32.5251C21.6952 32.9836 21.2927 32.9755 20.9398 32.5078C20.6128 32.0736 20.2633 31.6567 19.9532 31.2098C19.2565 30.2074 18.3195 29.7986 17.1233 29.8044C12.5716 29.8286 8.01882 29.8148 3.46717 29.8136C2.69484 29.8136 2.5539 29.6681 2.5539 28.8817C2.5539 22.6168 2.5539 16.352 2.5539 10.0883V9.56862H1.20656V31.2329C1.39936 31.2329 1.5651 31.2329 1.72971 31.2329C6.90148 31.2329 12.0744 31.2386 17.2462 31.2248C17.8753 31.2236 18.3579 31.4199 18.7536 31.9223C19.2136 32.5066 19.7029 33.0656 20.1866 33.6291C20.9375 34.5044 22.0425 34.5091 22.7956 33.636C23.2816 33.0736 23.772 32.5147 24.2309 31.9304C24.6255 31.4269 25.1058 31.2271 25.7361 31.2282C30.9225 31.2421 36.109 31.2363 41.2943 31.2363C41.4578 31.2363 41.6212 31.2363 41.7915 31.2363V9.564H40.4441H40.4453Z" fill="#A29475"/>
<path d="M21.0828 12.8427V8.46823C20.687 8.65531 20.324 8.82968 19.9587 8.99944C19.5122 9.20615 19.1852 9.12301 19.0262 8.76501C18.8763 8.42665 19.0195 8.12409 19.4434 7.91392C20.0387 7.61944 20.6363 7.32958 21.235 7.04088C21.9025 6.71869 22.2745 6.95196 22.2757 7.69797C22.279 9.22809 22.2757 10.7582 22.2768 12.2872C22.2768 12.4442 22.2768 12.6013 22.2768 12.8403C22.6353 12.8403 22.9657 12.8334 23.296 12.8415C23.7594 12.8542 24.0255 13.0782 24.0289 13.442C24.0323 13.8081 23.7662 14.0448 23.3073 14.0483C22.2227 14.0552 21.1392 14.0564 20.0545 14.0483C19.6103 14.0448 19.3746 13.8254 19.3701 13.457C19.3656 13.0886 19.6024 12.8623 20.0376 12.8438C20.3725 12.8299 20.7073 12.8415 21.0828 12.8415V12.8427Z" fill="#A29475"/>
<path d="M21.5158 4.52787C21.9758 4.52325 22.349 4.89857 22.3524 5.37089C22.3569 5.85013 22.0006 6.22314 21.535 6.22891C21.0738 6.23353 20.695 5.85822 20.6905 5.39052C20.686 4.92166 21.0569 4.53249 21.5158 4.52787Z" fill="#A29475"/>
</g>
<defs>
<clipPath id="clip0_3407_320">
<rect width="43" height="35" fill="white" transform="translate(0 0.5)"/>
</clipPath>
</defs>
</svg>
