<svg width="37" height="34" viewBox="0 0 37 34" fill="none" xmlns="http://www.w3.org/2000/svg">
<g clip-path="url(#clip0_1520_234)">
<path d="M19.7401 19.8866C19.7401 23.7381 19.7422 27.5886 19.7391 31.4401C19.7381 32.8562 19.0628 33.3617 17.6755 32.9751C17.3531 32.8852 17.0233 32.7601 16.7469 32.5771C13.2646 30.2689 9.32491 29.3107 5.24697 28.7928C2.34058 28.4238 0.521999 26.5363 0.512576 23.6761C0.494777 17.6539 0.496871 11.6306 0.512576 5.6084C0.518858 3.02317 2.08617 1.0354 4.36751 0.949605C5.70554 0.898954 7.07392 1.16874 8.40253 1.42406C11.7863 2.07322 15.0246 3.12344 17.9404 5.0161C18.2105 5.1908 18.8 5.1877 19.0722 5.01197C22.9439 2.5177 27.2888 1.48505 31.7876 0.924796C33.9873 0.650871 36.0383 2.25308 36.3943 4.46205C36.4634 4.89413 36.4948 5.33655 36.4948 5.77379C36.5021 10.4264 36.5011 15.079 36.4948 19.7316C36.4948 20.0396 36.4874 20.359 36.4047 20.6516C36.2362 21.2532 35.7933 21.5385 35.1662 21.494C34.5359 21.4496 34.1611 21.0929 34.0658 20.4789C34.0271 20.2257 34.0438 19.9631 34.0438 19.7047C34.0428 15.078 34.0501 10.4512 34.0323 5.82444C34.0302 5.34482 33.9622 4.83624 33.7915 4.39176C33.5015 3.63614 32.8178 3.24954 31.9635 3.35601C27.7484 3.87802 23.6799 4.85588 20.115 7.2809C19.9003 7.42665 19.7558 7.82048 19.7538 8.09957C19.7307 12.0286 19.7381 15.9566 19.7381 19.8856L19.7401 19.8866ZM17.2662 29.8451V28.981C17.2662 22.138 17.2546 15.295 17.2829 8.45206C17.2861 7.75743 17.1437 7.30054 16.4747 6.9956C14.9859 6.31648 13.5745 5.41614 12.0282 4.92721C9.94995 4.27082 7.78272 3.87492 5.63644 3.45008C3.87858 3.10173 2.96981 3.86872 2.96667 5.61151C2.9562 11.6286 2.95725 17.6446 2.96667 23.6616C2.96876 25.1987 3.821 26.0618 5.33491 26.3533C7.7398 26.8164 10.1583 27.262 12.5119 27.9204C14.1242 28.3711 15.636 29.1712 17.2672 29.8462L17.2662 29.8451Z" fill="#A29475"/>
<path d="M29.7931 28.6336C29.7931 29.6393 29.8025 30.6451 29.791 31.6509C29.7805 32.5543 29.2727 33.1249 28.5262 33.1053C27.807 33.0856 27.3285 32.5347 27.3233 31.6695C27.3128 29.6063 27.3128 27.5441 27.3233 25.4809C27.3275 24.6167 27.8154 24.0792 28.5461 24.074C29.279 24.0688 29.7763 24.6064 29.7889 25.4622C29.8046 26.5197 29.792 27.5772 29.7931 28.6336Z" fill="#A29475"/>
<path d="M30.1909 20.296C30.2004 21.185 29.4685 21.9282 28.5734 21.9396C27.6845 21.9509 26.9296 21.217 26.9181 20.3311C26.9066 19.4318 27.6206 18.7176 28.5388 18.7093C29.4643 18.701 30.1826 19.3905 30.192 20.297L30.1909 20.296Z" fill="#A29475"/>
<path d="M13.4175 13.7446C13.2217 13.6877 13.0238 13.6257 12.8228 13.574C10.8304 13.0624 8.84224 12.531 6.84253 12.0493C5.91597 11.8261 5.45321 11.3557 5.58198 10.6053C5.71181 9.84554 6.33894 9.45171 7.24876 9.67085C9.4254 10.1949 11.5947 10.7531 13.7578 11.3289C14.3336 11.4819 14.7827 11.9232 14.6665 12.5155C14.5859 12.9269 14.1745 13.2856 13.875 13.6381C13.7965 13.7301 13.5819 13.7105 13.4164 13.7446H13.4175Z" fill="#A29475"/>
<path d="M7.09485 16.2202C8.07795 16.4311 9.31128 16.6513 10.5184 16.9727C11.1895 17.1516 11.4335 17.7056 11.2911 18.3816C11.1634 18.9874 10.5833 19.4009 9.94156 19.2861C8.78675 19.0804 7.63613 18.8447 6.49389 18.5822C5.80917 18.424 5.48985 17.9351 5.58721 17.2529C5.68458 16.5624 6.1463 16.2409 7.0959 16.2212L7.09485 16.2202Z" fill="#A29475"/>
</g>
<defs>
<clipPath id="clip0_1520_234">
<rect width="36" height="32.2105" fill="white" transform="translate(0.5 0.894775)"/>
</clipPath>
</defs>
</svg>
