<svg width="22" height="17" viewBox="0 0 22 17" fill="none" xmlns="http://www.w3.org/2000/svg">
<path d="M5.5 16.5001C3.98333 16.5001 2.6875 15.9751 1.6125 14.9251C0.5375 13.8751 0 12.5918 0 11.0751C0 9.7751 0.391667 8.61676 1.175 7.6001C1.95833 6.58343 2.98333 5.93343 4.25 5.6501C4.53333 4.4501 5.24167 3.30843 6.375 2.2251C7.50833 1.14176 8.71667 0.600098 10 0.600098C10.55 0.600098 11.0208 0.795931 11.4125 1.1876C11.8042 1.57926 12 2.0501 12 2.6001V8.6501L13.6 7.1001L15 8.5001L11 12.5001L7 8.5001L8.4 7.1001L10 8.6501V2.6001C8.73333 2.83343 7.75 3.44593 7.05 4.4376C6.35 5.42926 6 6.4501 6 7.5001H5.5C4.53333 7.5001 3.70833 7.84176 3.025 8.5251C2.34167 9.20843 2 10.0334 2 11.0001C2 11.9668 2.34167 12.7918 3.025 13.4751C3.70833 14.1584 4.53333 14.5001 5.5 14.5001H17.5C18.2 14.5001 18.7917 14.2584 19.275 13.7751C19.7583 13.2918 20 12.7001 20 12.0001C20 11.3001 19.7583 10.7084 19.275 10.2251C18.7917 9.74176 18.2 9.5001 17.5 9.5001H16V7.5001C16 6.7001 15.8167 5.95426 15.45 5.2626C15.0833 4.57093 14.6 3.98343 14 3.5001V1.1751C15.2333 1.75843 16.2083 2.62093 16.925 3.7626C17.6417 4.90426 18 6.1501 18 7.5001C19.15 7.63343 20.1042 8.12926 20.8625 8.9876C21.6208 9.84593 22 10.8501 22 12.0001C22 13.2501 21.5625 14.3126 20.6875 15.1876C19.8125 16.0626 18.75 16.5001 17.5 16.5001H5.5Z" fill="white"/>
</svg>
