<svg xmlns="http://www.w3.org/2000/svg" width="250.13" height="250.32" viewBox="0 0 250.13 250.32"><title>pic</title><g id="Layer_2" data-name="Layer 2"><g id="Layer_1-2" data-name="Layer 1"><path d="M74.92,243.93a5.63,5.63,0,0,1-6,6c-12.44-.17-25,1.37-37.31-.92C14.26,245.85.77,230,.1,212.11c-.18-4.81,0-9.64,0-14.46H0c0-5-.07-10,0-15,.1-4.8,2.41-7.46,6.24-7.43s6.08,2.68,6.14,7.4c.13,9.47-.55,19,.49,28.4,1.91,17.25,12.84,26.39,30.29,26.56,8.48.08,17,0,25.45.06C72.8,237.68,74.86,240.21,74.92,243.93Z" fill="#fbfbfb"/><path d="M1.51,29.64A40,40,0,0,1,38.71.16C48.18-.12,57.67,0,67.15.1,71.68.13,74.93,3,75,6.68S71.9,12.92,67,13c-8.65.07-17.3,0-25.95,0-16.12.16-27,10.78-28.16,27-.68,9.15-.38,18.28-.42,27.42,0,4.25-1.32,7.24-5.94,7.58-4.06.3-6.41-2.5-6.49-7.56-.08-4.83,0-9.65,0-16.73C.14,45.14-.52,37.31,1.51,29.64Z" fill="#fbfbfb"/><path d="M80.18,113.29c-.24,3.39-2.25,5.58-5.73,5.68-3.69.11-6.1-2-6.24-5.64-.23-6.62-.26-13.27,0-19.89C68.38,90.1,70.63,88,74.15,88s5.64,2,6,5.41.07,6.62.07,9.93h0C80.23,106.66,80.41,110,80.18,113.29Z" fill="#fbfbfb"/><path d="M109.94,151.09c.09-3.73,2.37-5.23,5.51-6.05s7.09,1.43,9-2.43c1.45-2.88.55-6.23.56-9.36q.1-18.69,0-37.38c0-3.31,1.09-5.88,4-7.39,2.31-1.19,4.52-.44,6.57.9,2.28,1.47,2.47,3.74,2.46,6.14,0,7.81,0,15.62,0,23.43,0,7.31.12,14.62,0,21.93-.31,14.36-12.27,18.83-23.84,16.7C111.18,157,109.87,154.34,109.94,151.09Z" fill="#fbfbfb"/><path d="M169.25,175.79c2.65,3.06,2.48,6.24-.62,9.26-8.49,8.25-18.74,13-30.14,15.66a51.19,51.19,0,0,1-12.89,1.19c-16.62,0-31.41-4.82-43.67-16.4-3.35-3.17-3.83-6.74-1.31-9.62s6.54-3,10.13.07C111,193,137.06,193.43,158,177c.66-.52,1.3-1,2-1.54C163.14,173.06,166.48,172.6,169.25,175.79Z" fill="#fbfbfb"/><path d="M177.46,119c-3.66,0-6.07-2.17-6.22-5.78-.28-6.45-.2-12.92-.07-19.38.07-3.55,2.48-5.43,5.72-5.77,3.49-.37,5.6,1.73,6.28,5a54.83,54.83,0,0,1,.91,10.41c-.27,3.3-.47,6.6-.83,9.88S180.93,118.94,177.46,119Z" fill="#fbfbfb"/><path d="M249.19,217.23c-2.54,17-18.21,31.62-35.37,32.67-5.3.32-10.64,0-16,0v.15c-4.82,0-9.65,0-14.47,0-5.47,0-8.24-2.22-8.27-6.42,0-3.8,2.84-6,8-6.06,9.8-.19,19.6.34,29.41-.54,13-1.15,24.09-12.22,24.48-25.28.29-9.47.08-19,.16-28.43.05-5,2.4-8,6.14-8.16s6.78,3.3,6.67,8.17C249.74,194.67,250.87,206,249.19,217.23Z" fill="#fbfbfb"/><path d="M175.12,6.73c-.08-4,3-6.57,8.17-6.63,4.66,0,9.31,0,15,0,5.43.33,11.9-.41,18.37.71C235.27,4,249.53,20.12,250,38.93c.22,9.31.11,18.63.06,27.95,0,5.61-2.27,8.27-6.53,8.13-4.08-.14-6.31-3-6.35-8.45-.06-8.48,0-17,0-25.45-.19-16.4-11.68-27.9-28.05-28.08-8.65-.1-17.3,0-25.95-.06C178,12.93,175.2,10.69,175.12,6.73Z" fill="#fbfbfb"/><path d="M250,66.88c0,5.61-2.27,8.27-6.53,8.13-4.08-.14-6.31-3-6.35-8.45-.06-8.48,0-17,0-25.45-.19-16.4-11.68-27.9-28.05-28.08-8.65-.1-17.3,0-25.95-.06-5.14,0-7.91-2.28-8-6.24s3-6.57,8.17-6.63c4.66,0,9.31,0,15,0,5.43.33,11.9-.41,18.37.71C235.27,4,249.53,20.12,250,38.93,250.2,48.24,250.09,57.56,250,66.88Z" fill="#999"/><path d="M75,6.68c.1,3.61-3.13,6.24-8,6.28-8.65.07-17.3,0-25.95,0-16.12.16-27,10.78-28.16,27-.68,9.15-.38,18.28-.42,27.42,0,4.25-1.32,7.24-5.94,7.58-4.06.3-6.41-2.5-6.49-7.56-.08-4.83,0-9.65,0-16.73.09-5.54-.57-13.37,1.46-21A40,40,0,0,1,38.71.16C48.18-.12,57.67,0,67.15.1,71.68.13,74.93,3,75,6.68Z" fill="#999"/><path d="M249.19,217.23c-2.54,17-18.21,31.62-35.37,32.67-5.3.32-10.64,0-16,0v.15c-4.82,0-9.65,0-14.47,0-5.47,0-8.24-2.22-8.27-6.42,0-3.8,2.84-6,8-6.06,9.8-.19,19.6.34,29.41-.54,13-1.15,24.09-12.22,24.48-25.28.29-9.47.08-19,.16-28.43.05-5,2.4-8,6.14-8.16s6.78,3.3,6.67,8.17C249.74,194.67,250.87,206,249.19,217.23Z" fill="#999"/><path d="M74.92,243.93a5.63,5.63,0,0,1-6,6c-12.44-.17-25,1.37-37.31-.92C14.26,245.85.77,230,.1,212.11c-.18-4.81,0-9.64,0-14.46H0c0-5-.07-10,0-15,.1-4.8,2.41-7.46,6.24-7.43s6.08,2.68,6.14,7.4c.13,9.47-.55,19,.49,28.4,1.91,17.25,12.84,26.39,30.29,26.56,8.48.08,17,0,25.45.06C72.8,237.68,74.86,240.21,74.92,243.93Z" fill="#999"/><path d="M168.63,185.05c-8.49,8.25-18.74,13-30.14,15.66a51.19,51.19,0,0,1-12.89,1.19c-16.62,0-31.41-4.82-43.67-16.4-3.35-3.17-3.83-6.74-1.31-9.62s6.54-3,10.13.07C111,193,137.06,193.43,158,177c.66-.52,1.3-1,2-1.54,3.2-2.38,6.54-2.84,9.31.35S171.73,182,168.63,185.05Z" fill="#999"/><path d="M138.05,140.88c-.31,14.36-12.27,18.83-23.84,16.7-3-.56-4.34-3.24-4.27-6.49.09-3.73,2.37-5.23,5.51-6.05s7.09,1.43,9-2.43c1.45-2.88.55-6.23.56-9.36q.1-18.69,0-37.38c0-3.31,1.09-5.88,4-7.39,2.31-1.19,4.52-.44,6.57.9,2.28,1.47,2.47,3.74,2.46,6.14,0,7.81,0,15.62,0,23.43C138.08,126.26,138.2,133.57,138.05,140.88Z" fill="#999"/><path d="M184.08,103.48c-.27,3.3-.47,6.6-.83,9.88s-2.32,5.58-5.79,5.6c-3.66,0-6.07-2.17-6.22-5.78-.28-6.45-.2-12.92-.07-19.38.07-3.55,2.48-5.43,5.72-5.77,3.49-.37,5.6,1.73,6.28,5A54.83,54.83,0,0,1,184.08,103.48Z" fill="#9a9a9a"/><path d="M80.18,113.29c-.24,3.39-2.25,5.58-5.73,5.68-3.69.11-6.1-2-6.24-5.64-.23-6.62-.26-13.27,0-19.89C68.38,90.1,70.63,88,74.15,88s5.64,2,6,5.41.07,6.62.07,9.93h0C80.23,106.66,80.41,110,80.18,113.29Z" fill="#999"/></g></g></svg>