<svg width="38" height="37" viewBox="0 0 38 37" fill="none" xmlns="http://www.w3.org/2000/svg">
<path d="M0.500105 16.9379C0.923651 15.3205 1.67733 13.9151 3.27447 13.2042C3.98189 12.889 4.78727 12.6608 5.55545 12.6373C7.91262 12.5639 10.2734 12.6029 12.6324 12.6119C13.3425 12.6146 13.7761 13.0846 13.4777 13.5664C13.3199 13.8218 12.8691 14.0246 12.5462 14.0301C10.3804 14.0699 8.21282 14.0491 6.04611 14.0518C3.39147 14.0545 1.9476 15.4989 1.94579 18.155C1.94397 21.5681 1.94125 24.9821 1.94579 28.3952C1.94941 30.9036 3.42865 32.3743 5.94544 32.3806C7.2451 32.3843 8.54749 32.3453 9.84443 32.4033C10.2272 32.4205 10.6634 32.6297 10.96 32.8841C11.5014 33.3487 11.9567 33.9129 12.4483 34.4363C12.5127 34.4109 12.578 34.3856 12.6424 34.3593C12.6424 34.0632 12.6397 33.768 12.6424 33.4719C12.6533 32.5907 12.8609 32.3834 13.7643 32.3815C16.0752 32.3779 18.3861 32.3815 20.6979 32.3797C23.3181 32.377 24.7783 30.9308 24.7828 28.3336C24.7855 26.939 24.7865 25.5454 24.7819 24.1508C24.7801 23.6355 24.8291 23.1284 25.4893 23.1157C26.1469 23.1021 26.233 23.5893 26.2303 24.1173C26.2249 25.6314 26.2494 27.1464 26.2231 28.6605C26.1723 31.6498 24.0446 33.7761 21.0489 33.8178C18.787 33.8495 16.5232 33.8332 14.2604 33.8395C14.2377 33.8395 14.2159 33.8513 14.0853 33.8866C14.0853 34.4924 14.1379 35.1354 14.0672 35.7657C14.02 36.1868 13.7969 36.5889 13.6518 36.9991H13.0732C12.1408 36.0718 11.2239 35.1273 10.2634 34.2298C10.0313 34.0134 9.65578 33.854 9.33926 33.8422C8.14117 33.797 6.93583 33.8911 5.7441 33.8006C4.92512 33.7381 4.07349 33.5697 3.32254 33.2482C1.69547 32.5527 0.922744 31.1346 0.498291 29.4946V16.9379H0.500105Z" fill="#A29475"/>
<path d="M26.0715 0.00455895C29.9778 -0.0896209 33.1902 1.27146 35.5292 4.45365C38.6092 8.64465 38.0188 14.6396 34.177 18.1613C33.7443 18.558 33.563 18.942 33.5883 19.5206C33.6337 20.5521 33.6355 21.5899 33.5793 22.6204C33.562 22.9292 33.3562 23.3802 33.1167 23.4816C32.8864 23.5794 32.4256 23.3919 32.1944 23.1855C31.4597 22.5298 30.7705 21.8199 30.093 21.1036C29.7982 20.7911 29.5279 20.7305 29.089 20.7893C26.203 21.1742 23.3344 21.2928 20.6053 19.9743C16.369 17.9286 14.0599 13.4179 14.8308 8.67544C15.5355 4.33955 19.2295 0.791504 23.6999 0.182957C24.4835 0.0760994 25.2807 0.0616102 26.0715 0.00546452V0.00455895ZM31.964 21.0266L32.1563 20.9496C32.1563 20.3329 32.2016 19.7117 32.1445 19.1004C32.0728 18.3262 32.3712 17.8199 32.9598 17.3155C37.8166 13.1526 36.7636 5.24875 31.0135 2.43875C28.6763 1.29682 26.2067 1.31674 23.7343 1.64274C19.6285 2.18337 16.3481 5.83013 16.1295 9.96589C15.9019 14.2728 18.6817 18.2048 22.7512 19.2372C24.8562 19.7715 26.9993 19.7298 29.1189 19.2924C29.8 19.152 30.3279 19.1874 30.7877 19.7588C31.1477 20.207 31.5704 20.6055 31.9649 21.0257L31.964 21.0266Z" fill="#A29475"/>
<path d="M12.7103 23.8655C10.3051 23.8655 7.89988 23.8609 5.49555 23.8691C4.97405 23.8709 4.45527 23.8048 4.43441 23.179C4.41174 22.4999 4.94503 22.4193 5.49736 22.4202C10.3314 22.4247 15.1655 22.4238 19.9995 22.422C20.4775 22.422 20.9473 22.4347 21.0534 23.0387C21.145 23.5612 20.7895 23.8618 20.0703 23.8637C17.617 23.8691 15.1637 23.8655 12.7113 23.8655H12.7103Z" fill="#A29475"/>
<path d="M11.2665 27.9072C9.34011 27.9072 7.41465 27.9027 5.48828 27.9108C4.96497 27.9127 4.44892 27.8411 4.43441 27.2126C4.41899 26.5317 4.95681 26.461 5.50733 26.4619C9.40722 26.4674 13.3071 26.4538 17.207 26.4846C17.5317 26.4873 17.9734 26.6838 18.152 26.9373C18.4749 27.3956 18.0387 27.8982 17.3331 27.9027C15.3106 27.9154 13.289 27.9072 11.2665 27.9072Z" fill="#A29475"/>
<path d="M10.4402 18.3814C12.0755 18.3814 13.7107 18.3869 15.3459 18.3787C15.8774 18.376 16.3726 18.4774 16.3699 19.1059C16.3681 19.7353 15.8701 19.8285 15.3405 19.8276C12.0464 19.8213 8.75238 19.8213 5.45743 19.8276C4.92686 19.8285 4.43166 19.7298 4.43348 19.1005C4.43529 18.4711 4.93321 18.376 5.46287 18.3787C7.12168 18.3869 8.7814 18.3814 10.4402 18.3814Z" fill="#A29475"/>
<path d="M26.2902 16.1871C26.7169 16.1871 27.0629 15.8417 27.0629 15.4156C27.0629 14.9895 26.7169 14.644 26.2902 14.644C25.8634 14.644 25.5175 14.9895 25.5175 15.4156C25.5175 15.8417 25.8634 16.1871 26.2902 16.1871Z" fill="#A29475"/>
<path d="M20.1128 27.9814C20.5341 27.9814 20.8756 27.6405 20.8756 27.2198C20.8756 26.7992 20.5341 26.4583 20.1128 26.4583C19.6916 26.4583 19.3501 26.7992 19.3501 27.2198C19.3501 27.6405 19.6916 27.9814 20.1128 27.9814Z" fill="#A29475"/>
<path d="M25.5428 11.8794C25.404 10.7194 25.8157 9.95506 26.9875 9.56385C27.714 9.32115 27.9988 8.54508 27.8228 7.77443C27.6686 7.09615 27.002 6.56368 26.3064 6.56277C25.5935 6.56187 24.9687 7.04091 24.7673 7.74455C24.7474 7.81337 24.7283 7.8831 24.7165 7.95464C24.6258 8.49527 24.4462 9.00511 23.766 8.82852C23.1611 8.67095 23.1928 8.15387 23.2899 7.64674C23.5683 6.18877 24.7501 5.15551 26.1985 5.11747C27.6043 5.08034 28.9184 6.0638 29.2486 7.39952C29.6059 8.84844 28.9366 10.3128 27.5535 10.9159C27.0819 11.1214 26.9585 11.3777 26.9957 11.8341C27.0229 12.1674 27.0701 12.535 26.9594 12.8321C26.8624 13.0938 26.5431 13.4669 26.3499 13.4515C26.0824 13.4297 25.7432 13.1372 25.6144 12.8728C25.4793 12.5957 25.5573 12.2154 25.5428 11.8803V11.8794Z" fill="#A29475"/>
</svg>
