<svg width="40" height="40" viewBox="0 0 40 40" fill="none" xmlns="http://www.w3.org/2000/svg">
<g clip-path="url(#clip0_2226_595)">
<path d="M7.85151e-06 18.3113C0.457896 16.5629 1.27268 15.0434 2.99932 14.2749C3.7641 13.9342 4.63478 13.6875 5.46525 13.6621C8.01354 13.5828 10.5658 13.6249 13.116 13.6347C13.8837 13.6376 14.3524 14.1457 14.0298 14.6665C13.8592 14.9426 13.3719 15.1619 13.0229 15.1678C10.6814 15.2109 8.33808 15.1883 5.99569 15.1913C3.1258 15.1942 1.56487 16.7557 1.56291 19.6271C1.56095 23.317 1.558 27.0078 1.56291 30.6977C1.56683 33.4095 3.166 34.9994 5.88686 35.0062C7.2919 35.0102 8.69988 34.9681 10.102 35.0307C10.5157 35.0493 10.9874 35.2755 11.308 35.5506C11.8933 36.0528 12.3855 36.6627 12.917 37.2286C12.9866 37.2012 13.0572 37.1738 13.1268 37.1454C13.1268 36.8252 13.1238 36.5061 13.1268 36.1859C13.1386 35.2334 13.3631 35.0092 14.3396 35.0072C16.8379 35.0033 19.3362 35.0072 21.8355 35.0053C24.6681 35.0023 26.2467 33.4389 26.2516 30.6311C26.2545 29.1234 26.2555 27.6167 26.2506 26.1091C26.2487 25.552 26.3016 25.0038 27.0154 24.9901C27.7263 24.9754 27.8194 25.5021 27.8165 26.0729C27.8106 27.7098 27.837 29.3476 27.8086 30.9845C27.7537 34.2162 25.4535 36.5149 22.2149 36.5599C19.7696 36.5942 17.3223 36.5766 14.876 36.5834C14.8515 36.5834 14.8279 36.5961 14.6867 36.6343C14.6867 37.2893 14.7436 37.9844 14.6671 38.6657C14.6161 39.121 14.3749 39.5557 14.2181 39.9991H13.5925C12.5846 38.9967 11.5933 37.9756 10.555 37.0054C10.304 36.7714 9.89804 36.5991 9.55585 36.5864C8.26062 36.5374 6.95755 36.6392 5.66919 36.5413C4.78381 36.4738 3.86313 36.2917 3.05129 35.9441C1.29229 35.1923 0.456915 33.6591 -0.00195312 31.8862V18.3113H7.85151e-06Z" fill="#A29475"/>
<path d="M0 31.886C0.458869 33.6599 1.29523 35.1921 3.05324 35.9439C3.86509 36.2915 4.78576 36.4736 5.67114 36.5411C6.96049 36.639 8.26356 36.5372 9.5578 36.5862C9.89999 36.5989 10.3059 36.7712 10.5569 37.0052C11.5962 37.9754 12.5865 38.9965 13.5945 39.999H0V31.885V31.886Z" fill="white"/>
<path d="M27.6448 0.00492859C31.8678 -0.0968874 35.3407 1.37455 37.8694 4.81476C41.1991 9.34557 40.5608 15.8266 36.4075 19.6339C35.9398 20.0627 35.7437 20.4778 35.7711 21.1034C35.8201 22.2184 35.8221 23.3404 35.7613 24.4545C35.7427 24.7883 35.5201 25.2759 35.2613 25.3855C35.0122 25.4912 34.5141 25.2886 34.2641 25.0654C33.4699 24.3566 32.7247 23.589 31.9923 22.8147C31.6737 22.4769 31.3815 22.4113 30.9069 22.4749C27.787 22.891 24.6857 23.0193 21.7354 21.5938C17.1556 19.3823 14.6592 14.5059 15.4927 9.37886C16.2545 4.6914 20.248 0.85568 25.0809 0.197792C25.928 0.0822696 26.7898 0.0666056 27.6448 0.00590759V0.00492859ZM34.0151 22.7314L34.2229 22.6482C34.2229 21.9815 34.272 21.3099 34.2102 20.6491C34.1327 19.8121 34.4553 19.2648 35.0916 18.7195C40.3422 14.219 39.2038 5.67432 32.9875 2.63648C30.4608 1.40196 27.7909 1.4235 25.1181 1.77594C20.6794 2.3604 17.133 6.30284 16.8967 10.7739C16.6506 15.4301 19.6558 19.6809 24.0553 20.7969C26.331 21.3745 28.6479 21.3295 30.9393 20.8567C31.6756 20.7049 32.2463 20.7431 32.7434 21.3608C33.1326 21.8454 33.5895 22.2762 34.016 22.7305L34.0151 22.7314Z" fill="#A29475"/>
<path d="M13.2003 25.8005C10.6001 25.8005 7.99983 25.7956 5.40055 25.8044C4.83677 25.8064 4.27593 25.7349 4.25338 25.0584C4.22887 24.3242 4.80539 24.2371 5.40251 24.238C10.6285 24.2429 15.8545 24.242 21.0805 24.24C21.5972 24.24 22.1051 24.2537 22.2198 24.9067C22.3189 25.4716 21.9345 25.7966 21.157 25.7986C18.5048 25.8044 15.8526 25.8005 13.2013 25.8005H13.2003Z" fill="#A29475"/>
<path d="M11.6394 30.1699C9.5568 30.1699 7.47522 30.165 5.39267 30.1738C4.82693 30.1758 4.26903 30.0984 4.25334 29.419C4.23667 28.6828 4.8181 28.6065 5.41326 28.6074C9.62936 28.6133 13.8455 28.5986 18.0616 28.6319C18.4126 28.6348 18.8901 28.8473 19.0832 29.1214C19.4323 29.6168 18.9607 30.1601 18.1978 30.165C16.0114 30.1787 13.8258 30.1699 11.6394 30.1699Z" fill="#A29475"/>
<path d="M10.7462 19.8719C12.514 19.8719 14.2818 19.8778 16.0496 19.869C16.6242 19.866 17.1595 19.9757 17.1566 20.6551C17.1546 21.3355 16.6163 21.4363 16.0437 21.4354C12.4826 21.4285 8.92147 21.4285 5.35936 21.4354C4.78577 21.4363 4.25042 21.3296 4.25239 20.6492C4.25435 19.9688 4.79264 19.866 5.36524 19.869C7.15855 19.8778 8.95285 19.8719 10.7462 19.8719Z" fill="#A29475"/>
<path d="M27.8812 17.4998C28.3425 17.4998 28.7165 17.1263 28.7165 16.6657C28.7165 16.205 28.3425 15.8315 27.8812 15.8315C27.4198 15.8315 27.0458 16.205 27.0458 16.6657C27.0458 17.1263 27.4198 17.4998 27.8812 17.4998Z" fill="#A29475"/>
<path d="M21.2031 30.2502C21.6585 30.2502 22.0277 29.8816 22.0277 29.4269C22.0277 28.9721 21.6585 28.6035 21.2031 28.6035C20.7477 28.6035 20.3785 28.9721 20.3785 29.4269C20.3785 29.8816 20.7477 30.2502 21.2031 30.2502Z" fill="#A29475"/>
<path d="M27.0732 12.8425C26.9232 11.5884 27.3683 10.7622 28.6351 10.3392C29.4205 10.0769 29.7284 9.23787 29.5382 8.40474C29.3715 7.67147 28.6508 7.09581 27.8988 7.09483C27.1281 7.09386 26.4526 7.61175 26.2349 8.37243C26.2133 8.44683 26.1927 8.52222 26.18 8.59956C26.0819 9.18402 25.8878 9.7352 25.1524 9.54429C24.4985 9.37395 24.5328 8.81494 24.6377 8.2667C24.9387 6.69051 26.2163 5.57347 27.7821 5.53235C29.3019 5.49221 30.7226 6.55541 31.0795 7.99943C31.4658 9.56583 30.7422 11.1489 29.247 11.8009C28.7371 12.0231 28.6038 12.3002 28.644 12.7936C28.6734 13.1539 28.7244 13.5513 28.6047 13.8725C28.4998 14.1554 28.1547 14.5587 27.9458 14.5421C27.6566 14.5186 27.2899 14.2024 27.1507 13.9165C27.0046 13.6169 27.0889 13.2058 27.0732 12.8435V12.8425Z" fill="#A29475"/>
</g>
<defs>
<clipPath id="clip0_2226_595">
<rect width="40" height="40" fill="white"/>
</clipPath>
</defs>
</svg>
