<svg width="40" height="40" viewBox="0 0 40 40" fill="none" xmlns="http://www.w3.org/2000/svg">
<g clip-path="url(#clip0_1520_261)">
<path d="M7.85151e-06 18.3113C0.457896 16.5629 1.27268 15.0434 2.99932 14.2749C3.7641 13.9342 4.63478 13.6875 5.46525 13.6621C8.01354 13.5828 10.5658 13.6249 13.116 13.6347C13.8837 13.6376 14.3524 14.1457 14.0298 14.6665C13.8592 14.9426 13.3719 15.1619 13.0229 15.1678C10.6814 15.2109 8.33808 15.1883 5.99569 15.1913C3.1258 15.1942 1.56487 16.7557 1.56291 19.6271C1.56095 23.317 1.558 27.0078 1.56291 30.6977C1.56683 33.4095 3.166 34.9994 5.88686 35.0062C7.2919 35.0102 8.69988 34.9681 10.102 35.0307C10.5157 35.0493 10.9874 35.2755 11.308 35.5506C11.8933 36.0528 12.3855 36.6627 12.917 37.2286C12.9866 37.2012 13.0572 37.1738 13.1268 37.1454C13.1268 36.8252 13.1238 36.5061 13.1268 36.1859C13.1386 35.2334 13.3631 35.0092 14.3396 35.0072C16.8379 35.0033 19.3362 35.0072 21.8355 35.0053C24.6681 35.0023 26.2467 33.4389 26.2516 30.6311C26.2545 29.1234 26.2555 27.6167 26.2506 26.1091C26.2487 25.552 26.3016 25.0038 27.0154 24.9901C27.7263 24.9754 27.8194 25.5021 27.8165 26.0729C27.8106 27.7098 27.837 29.3476 27.8086 30.9845C27.7537 34.2162 25.4535 36.5149 22.2149 36.5599C19.7696 36.5942 17.3223 36.5766 14.876 36.5834C14.8515 36.5834 14.8279 36.5961 14.6867 36.6343C14.6867 37.2893 14.7436 37.9844 14.6671 38.6657C14.6161 39.121 14.3749 39.5557 14.2181 39.9991H13.5925C12.5846 38.9967 11.5933 37.9756 10.555 37.0054C10.304 36.7714 9.89804 36.5991 9.55585 36.5864C8.26062 36.5374 6.95755 36.6392 5.66919 36.5413C4.78381 36.4738 3.86313 36.2917 3.05129 35.9441C1.29229 35.1923 0.456915 33.6591 -0.00195312 31.8862V18.3113H7.85151e-06Z" fill="#A29475"/>
<path d="M0 31.886C0.458869 33.6599 1.29523 35.1921 3.05324 35.9439C3.86509 36.2915 4.78576 36.4736 5.67114 36.5411C6.96049 36.639 8.26356 36.5372 9.5578 36.5862C9.89999 36.5989 10.3059 36.7712 10.5569 37.0052C11.5962 37.9754 12.5865 38.9965 13.5945 39.999H0V31.885V31.886Z" fill="white"/>
<path d="M27.6449 0.00492859C31.8679 -0.0968874 35.3407 1.37455 37.8694 4.81476C41.1992 9.34557 40.5609 15.8266 36.4075 19.6339C35.9398 20.0627 35.7437 20.4778 35.7712 21.1034C35.8202 22.2184 35.8222 23.3404 35.7614 24.4545C35.7427 24.7883 35.5202 25.2759 35.2613 25.3855C35.0123 25.4912 34.5142 25.2886 34.2642 25.0654C33.47 24.3566 32.7248 23.589 31.9924 22.8147C31.6737 22.4769 31.3815 22.4113 30.907 22.4749C27.7871 22.891 24.6858 23.0193 21.7355 21.5938C17.1556 19.3823 14.6593 14.5059 15.4927 9.37886C16.2546 4.6914 20.2481 0.85568 25.0809 0.197792C25.9281 0.0822696 26.7899 0.0666056 27.6449 0.00590759V0.00492859ZM34.0151 22.7314L34.223 22.6482C34.223 21.9815 34.272 21.3099 34.2102 20.6491C34.1328 19.8121 34.4554 19.2648 35.0917 18.7195C40.3422 14.219 39.2039 5.67432 32.9876 2.63648C30.4609 1.40196 27.791 1.4235 25.1182 1.77594C20.6795 2.3604 17.1331 6.30284 16.8968 10.7739C16.6507 15.4301 19.6559 19.6809 24.0553 20.7969C26.331 21.3745 28.6479 21.3295 30.9393 20.8567C31.6757 20.7049 32.2463 20.7431 32.7434 21.3608C33.1327 21.8454 33.5896 22.2762 34.0161 22.7305L34.0151 22.7314Z" fill="#A29475"/>
<path d="M13.2004 25.8005C10.6001 25.8005 7.99989 25.7956 5.40061 25.8044C4.83683 25.8064 4.27599 25.7349 4.25344 25.0584C4.22893 24.3242 4.80545 24.2371 5.40257 24.238C10.6286 24.2429 15.8546 24.242 21.0806 24.24C21.5973 24.24 22.1052 24.2537 22.2199 24.9067C22.3189 25.4716 21.9346 25.7966 21.1571 25.7986C18.5048 25.8044 15.8526 25.8005 13.2014 25.8005H13.2004Z" fill="#A29475"/>
<path d="M11.6394 30.1699C9.55686 30.1699 7.47529 30.165 5.39273 30.1738C4.82699 30.1758 4.26909 30.0984 4.2534 29.419C4.23673 28.6828 4.81816 28.6065 5.41332 28.6074C9.62942 28.6133 13.8455 28.5986 18.0616 28.6319C18.4126 28.6348 18.8901 28.8473 19.0833 29.1214C19.4323 29.6168 18.9607 30.1601 18.1979 30.165C16.0114 30.1787 13.8259 30.1699 11.6394 30.1699Z" fill="#A29475"/>
<path d="M10.7462 19.8719C12.514 19.8719 14.2819 19.8778 16.0497 19.869C16.6242 19.866 17.1596 19.9757 17.1567 20.6551C17.1547 21.3355 16.6164 21.4363 16.0438 21.4354C12.4827 21.4285 8.92153 21.4285 5.35942 21.4354C4.78583 21.4363 4.25049 21.3296 4.25245 20.6492C4.25441 19.9688 4.7927 19.866 5.3653 19.869C7.15861 19.8778 8.95291 19.8719 10.7462 19.8719Z" fill="#A29475"/>
<path d="M27.8813 17.4998C28.3426 17.4998 28.7167 17.1263 28.7167 16.6657C28.7167 16.205 28.3426 15.8315 27.8813 15.8315C27.4199 15.8315 27.0459 16.205 27.0459 16.6657C27.0459 17.1263 27.4199 17.4998 27.8813 17.4998Z" fill="#A29475"/>
<path d="M21.2031 30.2502C21.6585 30.2502 22.0277 29.8816 22.0277 29.4269C22.0277 28.9721 21.6585 28.6035 21.2031 28.6035C20.7477 28.6035 20.3785 28.9721 20.3785 29.4269C20.3785 29.8816 20.7477 30.2502 21.2031 30.2502Z" fill="#A29475"/>
<path d="M27.0733 12.8425C26.9233 11.5884 27.3685 10.7622 28.6353 10.3392C29.4206 10.0769 29.7285 9.23787 29.5383 8.40474C29.3716 7.67147 28.6509 7.09581 27.8989 7.09483C27.1282 7.09386 26.4527 7.61175 26.235 8.37243C26.2134 8.44683 26.1929 8.52222 26.1801 8.59956C26.0821 9.18402 25.8879 9.7352 25.1526 9.54429C24.4986 9.37395 24.5329 8.81494 24.6378 8.2667C24.9388 6.69051 26.2164 5.57347 27.7822 5.53235C29.302 5.49221 30.7227 6.55541 31.0796 7.99943C31.4659 9.56583 30.7423 11.1489 29.2471 11.8009C28.7372 12.0231 28.6039 12.3002 28.6441 12.7936C28.6735 13.1539 28.7245 13.5513 28.6049 13.8725C28.4999 14.1554 28.1548 14.5587 27.946 14.5421C27.6567 14.5186 27.29 14.2024 27.1508 13.9165C27.0047 13.6169 27.089 13.2058 27.0733 12.8435V12.8425Z" fill="#A29475"/>
</g>
<defs>
<clipPath id="clip0_1520_261">
<rect width="40" height="40" fill="white"/>
</clipPath>
</defs>
</svg>
