<svg xmlns="http://www.w3.org/2000/svg" xmlns:xlink="http://www.w3.org/1999/xlink" id="Layer_2_00000153700138086153872490000004088676485380404154_" x="0px" y="0px" viewBox="0 0 100.1 81.3" style="enable-background:new 0 0 100.1 81.3;" xml:space="preserve"><style type="text/css">	.st0{fill:#0D4261;}	.st1{fill:#8A1538;}</style><g id="Layer_1-2">	<g id="_46_Agent">		<g>			<path class="st0" d="M20.3,56.3h-6.2c-0.9,0-1.6,0.7-1.6,1.6v6.2c0,0.9,0.7,1.6,1.6,1.6h6.2c0.9,0,1.6-0.7,1.6-1.6v-6.2    C21.9,57,21.2,56.3,20.3,56.3z M18.8,62.5h-3.1v-3.1h3.1V62.5z"></path>			<path class="st0" d="M28.2,53.1h6.2c0.9,0,1.6-0.7,1.6-1.6s-0.7-1.6-1.6-1.6h-6.2c-0.9,0-1.6,0.7-1.6,1.6S27.3,53.1,28.2,53.1z"></path>			<path class="st1" d="M96,47.5l-12.8-4.3c-1-0.3-1.9-1.6-1.9-2.6v-2.1c4.7-2.7,7.8-7.7,7.8-13.5v-9.4C89.1,7,82.1,0,73.5,0    S57.9,7,57.9,15.6V25c0,5.8,3.2,10.8,7.8,13.5v2.1c0,1-0.9,2.3-1.9,2.6l-1.2,0.4v-3c0-0.5-0.3-1-0.7-1.3L32.2,19    c-0.5-0.4-1.2-0.4-1.8,0L0.7,39.3C0.3,39.6,0,40.1,0,40.6v7.8C0,49.3,0.7,50,1.6,50h4.7v21.9H1.6c-0.9,0-1.6,0.7-1.6,1.6v6.2    c0,0.9,0.7,1.6,1.6,1.6h96.9c0.9,0,1.6-0.7,1.6-1.6V53.1C100,50.8,98.3,48.3,96,47.5z M61,25v-9.4c0-6.9,5.6-12.5,12.5-12.5    S86,8.7,86,15.6V25c0,6.9-5.6,12.5-12.5,12.5S61,31.9,61,25z M3.2,46.9v-5.4l28.1-19.2l28.1,19.2v3.3l-3.1,1v-2    c0-0.5-0.3-1-0.7-1.3L32.2,26.9c-0.5-0.4-1.2-0.4-1.7,0L7.1,42.5c-0.4,0.3-0.7,0.8-0.7,1.3v3.1C6.4,46.9,3.2,46.9,3.2,46.9z     M47,78.1H3.2V75H47V78.1z M47,53.1v3.1h-0.1v9.4H47v6.2h-9.4l0,0h-3.2v0.1h-6.2v-0.1H25l0,0H9.4V44.6L31.3,30l21.9,14.6v2.2    L51,47.5C48.7,48.3,47,50.7,47,53.1z M96.9,78.1H50v-25c0-1,0.9-2.3,1.9-2.6l12.9-4.3c2.3-0.8,4-3.2,4-5.6v-0.7    c1.5,0.5,3.1,0.7,4.7,0.7s3.2-0.3,4.7-0.7v0.7c0,2.4,1.8,4.8,4,5.6L95,50.5c1,0.3,1.9,1.6,1.9,2.6V78.1z"></path>			<path class="st0" d="M37.6,57.7v14.1h-3.2V59.4h-6.2v12.4H25V57.7c0-0.9,0.7-1.6,1.6-1.6H36C36.9,56.1,37.6,56.8,37.6,57.7z"></path>			<path class="st0" d="M81.2,73.2l-3.1-20l1.5-5.9c0.1-0.5,0-1-0.3-1.3c-0.3-0.4-0.7-0.6-1.2-0.6h-9.3c-0.5,0-0.9,0.2-1.2,0.6    c-0.3,0.4-0.4,0.9-0.3,1.3l1.5,5.9l-3.1,20c-0.1,0.5,0.1,1,0.4,1.3l3.6,3.6h7.5l3.6-3.6C81.2,74.1,81.3,73.7,81.2,73.2z     M76.2,48.5l-0.8,3.1h-3.8l-0.8-3.1C70.8,48.5,76.2,48.5,76.2,48.5z M73.5,77.5l-4.6-4.6l2.8-18.2h3.6l2.8,18.2    C78.1,72.9,73.5,77.5,73.5,77.5z"></path>			<path class="st0" d="M43.8,59.4v3.1h3.1v3.1h-4.6c-0.9,0-1.6-0.7-1.6-1.6v-6.2c0-0.9,0.7-1.6,1.6-1.6h4.6v3.2H43.8z"></path>		</g>	</g></g></svg>