<svg width="33" height="36" viewBox="0 0 33 36" fill="none" xmlns="http://www.w3.org/2000/svg">
<g clip-path="url(#clip0_1520_244)">
<mask id="path-1-outside-1_1520_244" maskUnits="userSpaceOnUse" x="-0.5" y="-1" width="34" height="37" fill="black">
<rect fill="white" x="-0.5" y="-1" width="34" height="37"/>
<path d="M25.9258 2.56141C26.4691 2.56141 26.9565 2.55651 27.4448 2.56239C28.3284 2.57318 28.8589 3.10566 28.8609 3.99019C28.8648 5.46114 28.8619 6.93209 28.8619 8.40304C28.8619 8.53641 28.8619 8.67075 28.8619 8.81981C29.9003 9.12086 30.9222 9.41702 31.944 9.71317C32.449 9.85928 32.4922 9.90929 32.4912 10.4251C32.4892 11.6264 32.5255 12.8296 32.4676 14.0279C32.347 16.5433 31.2095 18.5163 29.1492 19.9529C28.9295 20.1059 28.856 20.2589 28.857 20.5197C28.8648 24.6502 28.8628 28.7816 28.8628 32.912C28.8628 34.0181 28.3764 34.5094 27.2811 34.5094C21.6434 34.5094 16.0058 34.5094 10.3671 34.5094H9.94545C9.91603 34.5496 9.8925 34.5673 9.89152 34.5869C9.84249 35.293 9.81797 35.3155 9.10407 35.3155C6.65249 35.3155 4.20189 35.3155 1.75031 35.3155C1.23351 35.3155 1.12957 35.2096 1.1276 34.6899C1.12662 34.3839 1.12564 34.077 1.1276 33.771C1.13349 33.1091 1.4316 32.6296 2.02096 32.3236C2.12099 32.2716 2.18865 32.1559 2.27102 32.0696C2.25043 32.0382 2.22984 32.0069 2.20924 31.9755C2.05528 31.9667 1.90034 31.9608 1.74736 31.95C1.08053 31.9 0.582373 31.4165 0.519613 30.7526C0.505884 30.6065 0.506864 30.4584 0.506864 30.3123C0.505884 21.9524 0.507845 13.5925 0.5 5.23266C0.5 4.88061 0.59316 4.60799 0.821647 4.33636C1.94153 3.00466 3.0467 1.66021 4.14697 0.312822C4.32643 0.0941407 4.51961 0 4.80498 0C11.3625 0.00686443 17.919 0.00392253 24.4765 0.0058838C25.3796 0.0058838 25.916 0.54229 25.9249 1.44251C25.9288 1.79652 25.9249 2.15053 25.9249 2.56239L25.9258 2.56141ZM5.10603 0.813925C5.10603 1.86222 5.10995 2.86443 5.10505 3.86663C5.10015 4.7188 4.55884 5.2709 3.70765 5.28463C3.04572 5.29542 2.3838 5.28659 1.72187 5.28757C1.59341 5.28757 1.46396 5.28757 1.31491 5.28757C1.31491 5.46997 1.31491 5.59255 1.31491 5.71415C1.31491 13.9269 1.31491 22.1397 1.31589 30.3516C1.31589 30.4859 1.28353 30.6526 1.34923 30.7468C1.45612 30.9017 1.614 31.0762 1.78267 31.1204C1.9886 31.1753 2.24553 31.242 2.40047 30.9203C2.61719 30.4683 3.0163 30.226 3.52623 30.2231C4.85009 30.2162 6.17296 30.2162 7.49681 30.2251C7.99105 30.228 8.37154 30.4702 8.59806 30.9017C8.70201 31.0978 8.81969 31.1498 9.02464 31.1498C14.1602 31.1449 19.2948 31.1469 24.4304 31.1449C24.956 31.1449 25.1158 30.986 25.1168 30.4683C25.1188 27.1959 25.1168 23.9225 25.1217 20.6502C25.1217 20.4472 25.0688 20.3275 24.8824 20.2128C22.4368 18.7065 21.1757 16.5148 21.1286 13.6386C21.1109 12.5482 21.1384 11.4567 21.1188 10.3663C21.1119 9.9897 21.26 9.81515 21.613 9.72003C22.675 9.43172 23.7282 9.1091 24.7912 8.82275C25.057 8.75117 25.1256 8.62957 25.1237 8.36676C25.1139 6.1113 25.1178 3.85585 25.1178 1.60039C25.1178 0.94533 24.9825 0.812944 24.3176 0.812944C18.0543 0.812944 11.792 0.812944 5.52868 0.812944H5.10701L5.10603 0.813925ZM9.89348 33.7004H10.2857C15.9469 33.7004 21.6081 33.7004 27.2703 33.7004C27.9204 33.7004 28.0538 33.5641 28.0538 32.8973C28.0538 28.9385 28.0538 24.9806 28.0538 21.0218V20.5805C27.3419 20.863 26.6731 21.2013 25.9268 20.6825C25.9268 20.9306 25.9268 21.0767 25.9268 21.2238C25.9268 24.3001 25.9249 27.3763 25.9298 30.4526C25.9298 30.8321 25.8719 31.1822 25.6199 31.4812C25.3002 31.8608 24.8815 31.9618 24.4039 31.9608C19.3556 31.9549 14.3063 31.9578 9.25803 31.9578H8.6873C8.80302 32.1324 8.84126 32.2618 8.92069 32.2962C9.52084 32.5599 9.81601 33.0307 9.89544 33.7014L9.89348 33.7004ZM21.9356 10.4741C21.9356 11.6303 21.9229 12.7453 21.9386 13.8603C21.9778 16.6355 23.79 19.1233 26.4103 20.0461C26.6966 20.1471 26.9428 20.1363 27.2213 20.0373C29.764 19.1302 31.5341 16.7943 31.6586 14.0976C31.7106 12.9846 31.6714 11.8666 31.69 10.7517C31.6939 10.5124 31.5841 10.4388 31.386 10.3829C29.9504 9.97401 28.5167 9.55626 27.081 9.14832C26.9467 9.11008 26.7859 9.08752 26.6564 9.12381C25.0903 9.56411 23.5282 10.0162 21.9366 10.4741H21.9356ZM28.0509 8.59623C28.0509 6.98309 28.0617 5.43957 28.0352 3.89703C28.0322 3.72738 27.8234 3.43025 27.689 3.41849C27.1134 3.36455 26.5299 3.39593 25.9533 3.39593V8.52072C26.676 8.07061 27.336 8.3746 28.0519 8.59721L28.0509 8.59623ZM1.96212 34.481H9.06975C9.06975 34.2976 9.06975 34.1397 9.06975 33.9819C9.06975 33.213 8.86578 33.011 8.08715 33.011C6.47205 33.011 4.85597 33.0434 3.24185 33.0002C1.93957 32.9659 1.86308 33.3258 1.96212 34.48V34.481ZM3.05161 32.1755H7.95085C7.95673 32.0647 7.96359 31.9804 7.96458 31.8951C7.9734 31.14 7.85965 31.0253 7.10162 31.0253C6.0494 31.0253 4.99718 31.0253 3.94496 31.0253C3.12319 31.0253 3.02219 31.1292 3.03788 31.9618C3.03886 32.0226 3.04572 32.0824 3.05161 32.1765V32.1755ZM1.766 4.4707C2.51226 4.4707 3.1683 4.49718 3.81944 4.45207C3.98223 4.4403 4.25484 4.20299 4.26269 4.05884C4.30485 3.21353 4.28328 2.36627 4.28328 1.42094C3.41934 2.46727 2.61915 3.43712 1.766 4.4707Z"/>
</mask>
<path d="M25.9258 2.56141C26.4691 2.56141 26.9565 2.55651 27.4448 2.56239C28.3284 2.57318 28.8589 3.10566 28.8609 3.99019C28.8648 5.46114 28.8619 6.93209 28.8619 8.40304C28.8619 8.53641 28.8619 8.67075 28.8619 8.81981C29.9003 9.12086 30.9222 9.41702 31.944 9.71317C32.449 9.85928 32.4922 9.90929 32.4912 10.4251C32.4892 11.6264 32.5255 12.8296 32.4676 14.0279C32.347 16.5433 31.2095 18.5163 29.1492 19.9529C28.9295 20.1059 28.856 20.2589 28.857 20.5197C28.8648 24.6502 28.8628 28.7816 28.8628 32.912C28.8628 34.0181 28.3764 34.5094 27.2811 34.5094C21.6434 34.5094 16.0058 34.5094 10.3671 34.5094H9.94545C9.91603 34.5496 9.8925 34.5673 9.89152 34.5869C9.84249 35.293 9.81797 35.3155 9.10407 35.3155C6.65249 35.3155 4.20189 35.3155 1.75031 35.3155C1.23351 35.3155 1.12957 35.2096 1.1276 34.6899C1.12662 34.3839 1.12564 34.077 1.1276 33.771C1.13349 33.1091 1.4316 32.6296 2.02096 32.3236C2.12099 32.2716 2.18865 32.1559 2.27102 32.0696C2.25043 32.0382 2.22984 32.0069 2.20924 31.9755C2.05528 31.9667 1.90034 31.9608 1.74736 31.95C1.08053 31.9 0.582373 31.4165 0.519613 30.7526C0.505884 30.6065 0.506864 30.4584 0.506864 30.3123C0.505884 21.9524 0.507845 13.5925 0.5 5.23266C0.5 4.88061 0.59316 4.60799 0.821647 4.33636C1.94153 3.00466 3.0467 1.66021 4.14697 0.312822C4.32643 0.0941407 4.51961 0 4.80498 0C11.3625 0.00686443 17.919 0.00392253 24.4765 0.0058838C25.3796 0.0058838 25.916 0.54229 25.9249 1.44251C25.9288 1.79652 25.9249 2.15053 25.9249 2.56239L25.9258 2.56141ZM5.10603 0.813925C5.10603 1.86222 5.10995 2.86443 5.10505 3.86663C5.10015 4.7188 4.55884 5.2709 3.70765 5.28463C3.04572 5.29542 2.3838 5.28659 1.72187 5.28757C1.59341 5.28757 1.46396 5.28757 1.31491 5.28757C1.31491 5.46997 1.31491 5.59255 1.31491 5.71415C1.31491 13.9269 1.31491 22.1397 1.31589 30.3516C1.31589 30.4859 1.28353 30.6526 1.34923 30.7468C1.45612 30.9017 1.614 31.0762 1.78267 31.1204C1.9886 31.1753 2.24553 31.242 2.40047 30.9203C2.61719 30.4683 3.0163 30.226 3.52623 30.2231C4.85009 30.2162 6.17296 30.2162 7.49681 30.2251C7.99105 30.228 8.37154 30.4702 8.59806 30.9017C8.70201 31.0978 8.81969 31.1498 9.02464 31.1498C14.1602 31.1449 19.2948 31.1469 24.4304 31.1449C24.956 31.1449 25.1158 30.986 25.1168 30.4683C25.1188 27.1959 25.1168 23.9225 25.1217 20.6502C25.1217 20.4472 25.0688 20.3275 24.8824 20.2128C22.4368 18.7065 21.1757 16.5148 21.1286 13.6386C21.1109 12.5482 21.1384 11.4567 21.1188 10.3663C21.1119 9.9897 21.26 9.81515 21.613 9.72003C22.675 9.43172 23.7282 9.1091 24.7912 8.82275C25.057 8.75117 25.1256 8.62957 25.1237 8.36676C25.1139 6.1113 25.1178 3.85585 25.1178 1.60039C25.1178 0.94533 24.9825 0.812944 24.3176 0.812944C18.0543 0.812944 11.792 0.812944 5.52868 0.812944H5.10701L5.10603 0.813925ZM9.89348 33.7004H10.2857C15.9469 33.7004 21.6081 33.7004 27.2703 33.7004C27.9204 33.7004 28.0538 33.5641 28.0538 32.8973C28.0538 28.9385 28.0538 24.9806 28.0538 21.0218V20.5805C27.3419 20.863 26.6731 21.2013 25.9268 20.6825C25.9268 20.9306 25.9268 21.0767 25.9268 21.2238C25.9268 24.3001 25.9249 27.3763 25.9298 30.4526C25.9298 30.8321 25.8719 31.1822 25.6199 31.4812C25.3002 31.8608 24.8815 31.9618 24.4039 31.9608C19.3556 31.9549 14.3063 31.9578 9.25803 31.9578H8.6873C8.80302 32.1324 8.84126 32.2618 8.92069 32.2962C9.52084 32.5599 9.81601 33.0307 9.89544 33.7014L9.89348 33.7004ZM21.9356 10.4741C21.9356 11.6303 21.9229 12.7453 21.9386 13.8603C21.9778 16.6355 23.79 19.1233 26.4103 20.0461C26.6966 20.1471 26.9428 20.1363 27.2213 20.0373C29.764 19.1302 31.5341 16.7943 31.6586 14.0976C31.7106 12.9846 31.6714 11.8666 31.69 10.7517C31.6939 10.5124 31.5841 10.4388 31.386 10.3829C29.9504 9.97401 28.5167 9.55626 27.081 9.14832C26.9467 9.11008 26.7859 9.08752 26.6564 9.12381C25.0903 9.56411 23.5282 10.0162 21.9366 10.4741H21.9356ZM28.0509 8.59623C28.0509 6.98309 28.0617 5.43957 28.0352 3.89703C28.0322 3.72738 27.8234 3.43025 27.689 3.41849C27.1134 3.36455 26.5299 3.39593 25.9533 3.39593V8.52072C26.676 8.07061 27.336 8.3746 28.0519 8.59721L28.0509 8.59623ZM1.96212 34.481H9.06975C9.06975 34.2976 9.06975 34.1397 9.06975 33.9819C9.06975 33.213 8.86578 33.011 8.08715 33.011C6.47205 33.011 4.85597 33.0434 3.24185 33.0002C1.93957 32.9659 1.86308 33.3258 1.96212 34.48V34.481ZM3.05161 32.1755H7.95085C7.95673 32.0647 7.96359 31.9804 7.96458 31.8951C7.9734 31.14 7.85965 31.0253 7.10162 31.0253C6.0494 31.0253 4.99718 31.0253 3.94496 31.0253C3.12319 31.0253 3.02219 31.1292 3.03788 31.9618C3.03886 32.0226 3.04572 32.0824 3.05161 32.1765V32.1755ZM1.766 4.4707C2.51226 4.4707 3.1683 4.49718 3.81944 4.45207C3.98223 4.4403 4.25484 4.20299 4.26269 4.05884C4.30485 3.21353 4.28328 2.36627 4.28328 1.42094C3.41934 2.46727 2.61915 3.43712 1.766 4.4707Z" fill="#A29475"/>
<path d="M25.9258 2.56141C26.4691 2.56141 26.9565 2.55651 27.4448 2.56239C28.3284 2.57318 28.8589 3.10566 28.8609 3.99019C28.8648 5.46114 28.8619 6.93209 28.8619 8.40304C28.8619 8.53641 28.8619 8.67075 28.8619 8.81981C29.9003 9.12086 30.9222 9.41702 31.944 9.71317C32.449 9.85928 32.4922 9.90929 32.4912 10.4251C32.4892 11.6264 32.5255 12.8296 32.4676 14.0279C32.347 16.5433 31.2095 18.5163 29.1492 19.9529C28.9295 20.1059 28.856 20.2589 28.857 20.5197C28.8648 24.6502 28.8628 28.7816 28.8628 32.912C28.8628 34.0181 28.3764 34.5094 27.2811 34.5094C21.6434 34.5094 16.0058 34.5094 10.3671 34.5094H9.94545C9.91603 34.5496 9.8925 34.5673 9.89152 34.5869C9.84249 35.293 9.81797 35.3155 9.10407 35.3155C6.65249 35.3155 4.20189 35.3155 1.75031 35.3155C1.23351 35.3155 1.12957 35.2096 1.1276 34.6899C1.12662 34.3839 1.12564 34.077 1.1276 33.771C1.13349 33.1091 1.4316 32.6296 2.02096 32.3236C2.12099 32.2716 2.18865 32.1559 2.27102 32.0696C2.25043 32.0382 2.22984 32.0069 2.20924 31.9755C2.05528 31.9667 1.90034 31.9608 1.74736 31.95C1.08053 31.9 0.582373 31.4165 0.519613 30.7526C0.505884 30.6065 0.506864 30.4584 0.506864 30.3123C0.505884 21.9524 0.507845 13.5925 0.5 5.23266C0.5 4.88061 0.59316 4.60799 0.821647 4.33636C1.94153 3.00466 3.0467 1.66021 4.14697 0.312822C4.32643 0.0941407 4.51961 0 4.80498 0C11.3625 0.00686443 17.919 0.00392253 24.4765 0.0058838C25.3796 0.0058838 25.916 0.54229 25.9249 1.44251C25.9288 1.79652 25.9249 2.15053 25.9249 2.56239L25.9258 2.56141ZM5.10603 0.813925C5.10603 1.86222 5.10995 2.86443 5.10505 3.86663C5.10015 4.7188 4.55884 5.2709 3.70765 5.28463C3.04572 5.29542 2.3838 5.28659 1.72187 5.28757C1.59341 5.28757 1.46396 5.28757 1.31491 5.28757C1.31491 5.46997 1.31491 5.59255 1.31491 5.71415C1.31491 13.9269 1.31491 22.1397 1.31589 30.3516C1.31589 30.4859 1.28353 30.6526 1.34923 30.7468C1.45612 30.9017 1.614 31.0762 1.78267 31.1204C1.9886 31.1753 2.24553 31.242 2.40047 30.9203C2.61719 30.4683 3.0163 30.226 3.52623 30.2231C4.85009 30.2162 6.17296 30.2162 7.49681 30.2251C7.99105 30.228 8.37154 30.4702 8.59806 30.9017C8.70201 31.0978 8.81969 31.1498 9.02464 31.1498C14.1602 31.1449 19.2948 31.1469 24.4304 31.1449C24.956 31.1449 25.1158 30.986 25.1168 30.4683C25.1188 27.1959 25.1168 23.9225 25.1217 20.6502C25.1217 20.4472 25.0688 20.3275 24.8824 20.2128C22.4368 18.7065 21.1757 16.5148 21.1286 13.6386C21.1109 12.5482 21.1384 11.4567 21.1188 10.3663C21.1119 9.9897 21.26 9.81515 21.613 9.72003C22.675 9.43172 23.7282 9.1091 24.7912 8.82275C25.057 8.75117 25.1256 8.62957 25.1237 8.36676C25.1139 6.1113 25.1178 3.85585 25.1178 1.60039C25.1178 0.94533 24.9825 0.812944 24.3176 0.812944C18.0543 0.812944 11.792 0.812944 5.52868 0.812944H5.10701L5.10603 0.813925ZM9.89348 33.7004H10.2857C15.9469 33.7004 21.6081 33.7004 27.2703 33.7004C27.9204 33.7004 28.0538 33.5641 28.0538 32.8973C28.0538 28.9385 28.0538 24.9806 28.0538 21.0218V20.5805C27.3419 20.863 26.6731 21.2013 25.9268 20.6825C25.9268 20.9306 25.9268 21.0767 25.9268 21.2238C25.9268 24.3001 25.9249 27.3763 25.9298 30.4526C25.9298 30.8321 25.8719 31.1822 25.6199 31.4812C25.3002 31.8608 24.8815 31.9618 24.4039 31.9608C19.3556 31.9549 14.3063 31.9578 9.25803 31.9578H8.6873C8.80302 32.1324 8.84126 32.2618 8.92069 32.2962C9.52084 32.5599 9.81601 33.0307 9.89544 33.7014L9.89348 33.7004ZM21.9356 10.4741C21.9356 11.6303 21.9229 12.7453 21.9386 13.8603C21.9778 16.6355 23.79 19.1233 26.4103 20.0461C26.6966 20.1471 26.9428 20.1363 27.2213 20.0373C29.764 19.1302 31.5341 16.7943 31.6586 14.0976C31.7106 12.9846 31.6714 11.8666 31.69 10.7517C31.6939 10.5124 31.5841 10.4388 31.386 10.3829C29.9504 9.97401 28.5167 9.55626 27.081 9.14832C26.9467 9.11008 26.7859 9.08752 26.6564 9.12381C25.0903 9.56411 23.5282 10.0162 21.9366 10.4741H21.9356ZM28.0509 8.59623C28.0509 6.98309 28.0617 5.43957 28.0352 3.89703C28.0322 3.72738 27.8234 3.43025 27.689 3.41849C27.1134 3.36455 26.5299 3.39593 25.9533 3.39593V8.52072C26.676 8.07061 27.336 8.3746 28.0519 8.59721L28.0509 8.59623ZM1.96212 34.481H9.06975C9.06975 34.2976 9.06975 34.1397 9.06975 33.9819C9.06975 33.213 8.86578 33.011 8.08715 33.011C6.47205 33.011 4.85597 33.0434 3.24185 33.0002C1.93957 32.9659 1.86308 33.3258 1.96212 34.48V34.481ZM3.05161 32.1755H7.95085C7.95673 32.0647 7.96359 31.9804 7.96458 31.8951C7.9734 31.14 7.85965 31.0253 7.10162 31.0253C6.0494 31.0253 4.99718 31.0253 3.94496 31.0253C3.12319 31.0253 3.02219 31.1292 3.03788 31.9618C3.03886 32.0226 3.04572 32.0824 3.05161 32.1765V32.1755ZM1.766 4.4707C2.51226 4.4707 3.1683 4.49718 3.81944 4.45207C3.98223 4.4403 4.25484 4.20299 4.26269 4.05884C4.30485 3.21353 4.28328 2.36627 4.28328 1.42094C3.41934 2.46727 2.61915 3.43712 1.766 4.4707Z" stroke="#A29475" stroke-width="0.3" mask="url(#path-1-outside-1_1520_244)"/>
<path d="M12.8893 20.1395C12.9001 20.1161 12.9104 20.0938 12.9203 20.0722C12.9704 19.9637 13.0108 19.8759 13.0452 19.7863L13.0453 19.786C13.123 19.5805 13.2083 19.4176 13.3361 19.3009C13.4619 19.186 13.6363 19.1094 13.9051 19.0918C13.9051 19.0918 13.9052 19.0918 13.9052 19.0918L13.9003 19.0169L12.8893 20.1395ZM12.8893 20.1395C13.6399 20.428 14.3824 20.7137 15.1201 20.9977C16.2326 21.4259 17.3343 21.8499 18.4365 22.2726C19.2885 22.5992 20.1406 22.9252 20.9928 23.2511C22.1295 23.6859 23.2662 24.1207 24.4028 24.5571C25.1819 24.8559 25.7045 25.3091 25.9375 25.8815C26.1706 26.4544 26.1073 27.1307 25.7478 27.8618C25.675 28.01 25.6004 28.1584 25.526 28.3066C25.4731 28.4119 25.4203 28.517 25.3682 28.6218L25.3682 28.6218C25.0198 29.3224 24.5164 29.7842 23.9157 29.9754C23.3151 30.1666 22.6286 30.0837 21.9206 29.7173C19.9121 28.6785 17.9049 27.6378 15.8978 26.5971C14.4408 25.8417 12.984 25.0864 11.5267 24.3317C11.4064 24.2695 11.2857 24.2113 11.1535 24.1476C11.0898 24.1169 11.0235 24.0849 10.9533 24.0506C10.9185 24.1184 10.8837 24.1841 10.8496 24.2485C10.744 24.4478 10.645 24.6347 10.5736 24.8335L10.5736 24.8336C10.556 24.8826 10.5508 24.9513 10.5604 25.0228C10.57 25.0942 10.5933 25.1593 10.6237 25.2021L10.6239 25.2024C10.8709 25.5534 11.0052 25.9117 11.0278 26.2786C11.0504 26.6455 10.9611 27.0156 10.7692 27.3899L10.7691 27.39C10.7091 27.5066 10.6506 27.6276 10.5915 27.7495C10.5045 27.9293 10.4164 28.1113 10.3208 28.285C10.3208 28.285 10.3208 28.285 10.3208 28.285L10.2551 28.2488C9.87289 28.9438 9.21504 29.1817 8.4658 28.8527L12.8893 20.1395ZM3.62219 23.9262L3.62222 23.9261C3.97599 23.2895 4.5386 22.9474 5.28315 22.8496M3.62219 23.9262L5.29291 22.924M3.62219 23.9262C3.41901 24.2926 3.23097 24.6673 3.06372 25.0503L3.62219 23.9262ZM5.28315 22.8496L5.29291 22.924M5.28315 22.8496C5.28313 22.8496 5.28311 22.8496 5.28309 22.8496L5.29291 22.924M5.28315 22.8496C5.36108 22.8393 5.45635 22.8043 5.54129 22.7538C5.62743 22.7026 5.69234 22.642 5.72055 22.5873M5.29291 22.924C5.47296 22.9002 5.71255 22.7668 5.78734 22.6214M5.72055 22.5873C5.72052 22.5874 5.72048 22.5874 5.72044 22.5875L5.78734 22.6214M5.72055 22.5873C6.62324 20.8067 7.50658 19.0156 8.37472 17.219L8.37474 17.219C8.39964 17.1675 8.40944 17.0877 8.40022 17.0006C8.39106 16.9141 8.3644 16.8326 8.32873 16.7795L8.32849 16.7791C7.89112 16.1191 7.82398 15.4377 8.14969 14.7259L8.14971 14.7258C8.30908 14.3781 8.47345 14.0285 8.65903 13.6904L8.65906 13.6903C8.84452 13.353 9.11154 13.114 9.42691 13C9.74263 12.886 10.1004 12.8997 10.4622 13.0564M5.72055 22.5873C5.72058 22.5872 5.72062 22.5872 5.72065 22.5871L5.78734 22.6214M5.78734 22.6214L10.4622 13.0564M10.4622 13.0564C12.0679 13.7517 13.6653 14.4667 15.2529 15.199C15.6108 15.3638 15.8551 15.6176 15.9695 15.9234C16.0838 16.229 16.0654 16.5783 15.9135 16.9287C15.7406 17.328 15.5413 17.716 15.3345 18.0974L15.2686 18.0616L10.4622 13.0564ZM10.4622 13.0564L10.4324 13.1253L10.4622 13.0564C10.4622 13.0564 10.4622 13.0564 10.4622 13.0564ZM13.5641 17.972C13.4756 17.941 13.3985 17.9151 13.3292 17.8917C13.1841 17.8429 13.0733 17.8056 12.9653 17.7578C11.9337 17.2994 10.9022 16.8384 9.87487 16.3708L9.87487 16.3708C9.53542 16.2163 9.34716 16.0514 9.27202 15.8605C9.19728 15.6705 9.22618 15.4335 9.37448 15.1137C9.53334 14.7713 9.73425 14.5659 9.97155 14.4797L13.5641 17.972ZM13.5641 17.972C13.6203 17.9317 13.6821 17.8908 13.744 17.8498C13.793 17.8174 13.842 17.7849 13.8883 17.7528C14.0084 17.6693 14.1208 17.5809 14.2086 17.4768L14.2086 17.4768C14.2962 17.3731 14.3588 17.248 14.4201 17.1113C14.4317 17.0855 14.4433 17.0591 14.455 17.0325C14.504 16.921 14.5554 16.8039 14.6198 16.6965L14.62 16.6962C14.7134 16.5417 14.7258 16.4486 14.6998 16.3832C14.6722 16.3138 14.5905 16.2449 14.415 16.1698L14.4149 16.1697C13.4967 15.7748 12.5856 15.3627 11.6757 14.9512C11.4005 14.8267 11.1255 14.7022 10.8503 14.5784L13.5641 17.972ZM11.6081 22.9644L11.6067 22.9637C11.5801 22.9507 11.5569 22.9362 11.5242 22.9158C11.5206 22.9136 11.517 22.9113 11.5132 22.9089C11.7847 22.3564 12.0427 21.8306 12.3143 21.2769C12.3582 21.2913 12.4008 21.305 12.4425 21.3183C12.5639 21.3573 12.6771 21.3937 12.7892 21.4363C16.4897 22.854 20.1901 24.2731 23.8906 25.6934C24.3642 25.8752 24.63 26.0795 24.7349 26.3293C24.8393 26.5779 24.7945 26.8965 24.5814 27.3345C24.5424 27.414 24.5043 27.4934 24.4664 27.5726C24.3463 27.8231 24.2276 28.0706 24.0871 28.307C23.9347 28.5632 23.7236 28.7312 23.4885 28.8029C23.2536 28.8745 22.9888 28.8519 22.7248 28.716C19.9422 27.2831 17.1643 25.8435 14.3864 24.4039C13.4603 23.924 12.5343 23.4441 11.6081 22.9644ZM6.84039 23.2402C7.61534 21.6655 8.37772 20.1182 9.15324 18.5443C9.30444 18.2375 9.45613 17.9296 9.60852 17.6203C10.4838 18.0129 11.2963 18.3778 12.1326 18.7535C11.7355 19.5586 11.3416 20.3574 10.9474 21.1568C10.4218 22.2224 9.89576 23.2891 9.36123 24.3731C8.51856 23.9937 7.6992 23.6255 6.84039 23.2402ZM5.95706 26.4432C5.36743 26.1784 4.77782 25.9137 4.18327 25.6466C4.24502 25.5231 4.30327 25.4041 4.35981 25.2886C4.50275 24.9965 4.63474 24.7268 4.78464 24.4649C4.8877 24.2849 5.03 24.1644 5.18894 24.1069C5.34759 24.0495 5.52792 24.053 5.71133 24.1295C6.94272 24.6456 8.16172 25.1935 9.36556 25.7677C9.54805 25.8548 9.66435 25.9841 9.71796 26.1339C9.77177 26.2843 9.76522 26.4631 9.68717 26.6533C9.57141 26.9348 9.43467 27.2075 9.28531 27.5053C9.22828 27.619 9.16941 27.7364 9.10916 27.8594C8.04029 27.3786 6.99866 26.9109 5.95706 26.4432Z" fill="#A29475" stroke="#A29475" stroke-width="0.15"/>
<path d="M9.92582 9.19936C9.94981 9.20127 9.97043 9.20273 9.98863 9.20273H10.0071H10.0257H10.0442H10.0627H10.0812H10.0997H10.1182H10.1367H10.1552H10.1738H10.1923H10.2108H10.2293H10.2478H10.2663H10.2848H10.3034H10.3219H10.3404H10.3589H10.3774H10.3959H10.4144H10.4329H10.4515H10.47H10.4885H10.507H10.5255H10.544H10.5625H10.5811H10.5996H10.6181H10.6366H10.6551H10.6736H10.6921H10.7106H10.7292H10.7477H10.7662H10.7847H10.8032H10.8217H10.8402H10.8588H10.8773H10.8958H10.9143H10.9328H10.9513H10.9698H10.9883H11.0069H11.0254H11.0439H11.0624H11.0809H11.0994H11.1179H11.1365H11.155H11.1735H11.192H11.2105H11.229H11.2475H11.266H11.2846H11.3031H11.3216H11.3401H11.3586H11.3771H11.3956H11.4141H11.4327H11.4512H11.4697H11.4882H11.5067H11.5252H11.5437H11.5623H11.5808H11.5993H11.6178H11.6363H11.6548H11.6733H11.6918H11.7104H11.7289H11.7474H11.7659H11.7844H11.8029H11.8214H11.84H11.8585H11.877H11.8955H11.914H11.9325H11.951H11.9695H11.9881H12.0066H12.0251H12.0436H12.0621H12.0806H12.0991H12.1177H12.1362H12.1547H12.1732H12.1917H12.2102H12.2287H12.2472H12.2658H12.2843H12.3028H12.3213H12.3398H12.3583H12.3768H12.3954H12.4139H12.4324H12.4509H12.4694H12.4879H12.5064H12.5249H12.5435H12.562H12.5805H12.599H12.6175H12.636H12.6545H12.6731H12.6916H12.7101H12.7286H12.7471H12.7656H12.7841H12.8026H12.8212H12.8397H12.8582H12.8767H12.8952H12.9137H12.9322H12.9508H12.9693H12.9878H13.0063H13.0248H13.0433H13.0618H13.0803H13.0989H13.1174H13.1359H13.1544H13.1729H13.1914H13.2099H13.2284H13.247H13.2655H13.284H13.3025H13.321H13.3395H13.358H13.3766H13.3951H13.4136H13.4321H13.4506H13.4691H13.4876H13.5061H13.5247H13.5432H13.5617H13.5802H13.5987H13.6172H13.6357H13.6543H13.6728H13.6913H13.7098H13.7283H13.7468H13.7653H13.7838H13.8024H13.8209H13.8394H13.8579H13.8764H13.8949H13.9134H13.932H13.9505H13.969H13.9875H14.006H14.0245H14.043H14.0615H14.0801H14.0986H14.1171H14.1356H14.1541H14.1726H14.1911H14.2097H14.2282H14.2467H14.2652H14.2837H14.3022H14.3207H14.3392H14.3578H14.3763H14.3948H14.4133H14.4318H14.4503H14.4688H14.4874H14.5059H14.5244H14.5429H14.5614H14.5799H14.5984H14.6169H14.6355H14.654H14.6725H14.691H14.7095H14.728H14.7465H14.7651H14.7836H14.8021H14.8206H14.8391H14.8576H14.8761H14.8946H14.9132H14.9317H14.9502H14.9687H14.9872H15.0057H15.0242H15.0427H15.0613H15.0798H15.0983H15.1168H15.1353H15.1538H15.1723H15.1909H15.2094H15.2279H15.2464H15.2649H15.2834H15.3019H15.3204H15.339H15.3575H15.376H15.3945H15.413H15.4315H15.45H15.4686H15.4871H15.5056H15.5241H15.5426H15.5611H15.5796H15.5981H15.6167H15.6352H15.6537H15.6722H15.6907H15.7092H15.7277H15.7463H15.7648H15.7833H15.8018H15.8203H15.8388H15.8573H15.8758H15.8944H15.9129H15.9314H15.9499H15.9684H15.9869H16.0054H16.024H16.0425H16.061H16.0795H16.098H16.1165H16.135H16.1535H16.1721H16.1906H16.2091H16.2276H16.2461H16.2646H16.2831H16.3017H16.3202H16.3387H16.3572H16.3757H16.3942H16.4127H16.4312H16.4498H16.4683H16.4868H16.5053H16.5238H16.5423H16.5608H16.5794H16.5979H16.6164H16.6349H16.6534H16.6719H16.6904H16.7089H16.7275H16.746H16.7645H16.783H16.8015H16.82H16.8385H16.857H16.8756H16.8941H16.9126H16.9311H16.9496H16.9681H16.9866H17.0052H17.0237H17.0422H17.0607H17.0792H17.0977H17.1162H17.1347H17.1533H17.1718H17.1903H17.2088H17.2273H17.2458H17.2643H17.2829H17.3014H17.3199H17.3384H17.3569H17.3754H17.3939H17.4124H17.431H17.4495H17.468H17.4865H17.505H17.5235H17.542H17.5606H17.5791H17.5976H17.6161H17.6346H17.6531H17.6716H17.6901H17.7087H17.7272H17.7457H17.7642H17.7827H17.8012H17.8197H17.8383H17.8568H17.8753H17.8938H17.9123H17.9308H17.9493H17.9678H17.9864H18.0049H18.0234H18.0419H18.0604H18.0789H18.0974H18.116H18.1345H18.153H18.1715H18.19H18.2085H18.227H18.2455H18.2641H18.2826H18.3011H18.3196H18.3381H18.3566H18.3751H18.3937H18.4122H18.4307H18.4492H18.4677H18.4862H18.5047H18.5232H18.5418H18.5603H18.5788H18.5973H18.6158H18.6343H18.6528H18.6714H18.6899H18.7084H18.7269H18.7454H18.7639H18.7824H18.8009H18.8195H18.838H18.8565H18.875H18.8935H18.912H18.9305H18.949H18.9676H18.9861H19.0046H19.0231H19.0416H19.0601H19.0786H19.0972H19.1157H19.1342H19.1527H19.1712H19.1897H19.2082H19.2267H19.2453H19.2638H19.2823H19.3008H19.3193H19.3378H19.3563H19.3749H19.3934H19.4119H19.4304H19.4489H19.4674C19.4857 9.20273 19.5064 9.20135 19.5307 9.19964L19.5345 9.19937C19.5568 9.19779 19.5818 9.19601 19.606 9.19563C19.6313 9.19522 19.6594 9.19623 19.6863 9.20183C19.7129 9.20738 19.7444 9.21871 19.7699 9.24374L19.7175 9.29734L19.7696 9.24344C19.7774 9.25095 19.7854 9.25869 19.7937 9.26662C19.8477 9.3185 19.9106 9.37898 19.9624 9.44207C20.0209 9.51332 20.0763 9.60058 20.0816 9.69601C20.0816 9.69608 20.0816 9.69615 20.0817 9.69622L20.0068 9.70038C20.0136 9.81806 19.844 9.97104 19.7185 10.0632L9.92582 9.19936ZM9.92582 9.19936C9.92348 9.19918 9.92111 9.19899 9.9187 9.19879M9.92582 9.19936L9.9187 9.19879M9.9187 9.19879C9.89755 9.1971 9.874 9.19521 9.85134 9.19455M9.9187 9.19879L9.85134 9.19455M9.85134 9.19455C9.82619 9.19381 9.79821 9.19439 9.77135 9.1995M9.85134 9.19455L9.77135 9.1995M9.77135 9.1995C9.74459 9.20459 9.7135 9.21518 9.68741 9.23865M9.77135 9.1995L9.68741 9.23865M9.68741 9.23865L9.73759 9.2944L9.68741 9.23865Z" fill="#A29475" stroke="#A29475" stroke-width="0.15"/>
<path d="M6.0096 13.884H5.96324C5.80419 13.884 5.64514 13.8838 5.48612 13.8836C5.1682 13.8832 4.85037 13.8827 4.5328 13.884L4.5325 13.809M6.0096 13.884L4.51021 12.925C4.51017 12.925 4.51014 12.925 4.51011 12.925M6.0096 13.884L6.01058 13.8821H6.0123H6.01531H6.01831H6.02132H6.02432H6.02733H6.03034H6.03334H6.03635H6.03935H6.04236H6.04536H6.04837H6.05138H6.05438H6.05739H6.06039H6.0634H6.0664H6.06941H6.07242H6.07542H6.07843H6.08143H6.08444H6.08745H6.09045H6.09346H6.09646H6.09947H6.10248H6.10548H6.10849H6.11149H6.1145H6.11751H6.12051H6.12352H6.12653H6.12953H6.13254H6.13554H6.13855H6.14156H6.14456H6.14757H6.15058H6.15358H6.15659H6.1596H6.1626H6.16561H6.16861H6.17162H6.17463H6.17763H6.18064H6.18365H6.18665H6.18966H6.19267H6.19567H6.19868H6.20169H6.20469H6.2077H6.21071H6.21371H6.21672H6.21973H6.22274H6.22574H6.22875H6.23176H6.23476H6.23777H6.24078H6.24378H6.24679H6.2498H6.2528H6.25581H6.25882H6.26183H6.26483H6.26784H6.27085H6.27385H6.27686H6.27987H6.28288H6.28588H6.28889H6.2919H6.29491H6.29791H6.30092H6.30393H6.30694H6.30994H6.31295H6.31596H6.31896H6.32197H6.32498H6.32799H6.33099H6.334H6.33701H6.34002H6.34302H6.34603H6.34904H6.35205H6.35506H6.35806H6.36107H6.36408H6.36709H6.37009H6.3731H6.37611H6.37912H6.38212H6.38513H6.38814H6.39115H6.39416H6.39716H6.40017H6.40318H6.40619H6.4092H6.4122H6.41521H6.41822H6.42123H6.42424H6.42724H6.43025H6.43326H6.43627H6.43928H6.44228H6.44529H6.4483H6.45131H6.45432H6.45732H6.46033H6.46334H6.46635H6.46936H6.47237H6.47537H6.47838H6.48139H6.4844H6.48741H6.49042H6.49342H6.49643H6.49944H6.50245H6.50546H6.50847H6.51147H6.51448H6.51749H6.5205H6.52351H6.52652H6.52953H6.53253H6.53554H6.53855H6.54156H6.54457H6.54758H6.55059H6.55359H6.5566H6.55961H6.56262H6.56563H6.56864H6.57165H6.57466H6.57766H6.58067H6.58368H6.58669H6.5897H6.59271H6.59572H6.59873H6.60173H6.60474H6.60775H6.61076H6.61377H6.61678H6.61979H6.6228H6.62581H6.62882H6.63182H6.63483H6.63784H6.64085H6.64386H6.64687H6.64988H6.65289H6.6559H6.65891H6.66191H6.66492H6.66793H6.67094H6.67395H6.67696H6.67997H6.68298H6.68599H6.689H6.69201H6.69502H6.69803H6.70103H6.70404H6.70705H6.71006H6.71307H6.71608H6.71909H6.7221H6.72511H6.72812H6.73113H6.73414H6.73715H6.74016H6.74317H6.74618H6.74918H6.75219H6.7552H6.75821H6.76122H6.76423H6.76724H6.77025H6.77326H6.77627H6.77928H6.78229H6.7853H6.78831H6.79132H6.79433H6.79734H6.80035H6.80336H6.80637H6.80938H6.81239H6.8154H6.81841H6.82141H6.82442H6.82743H6.83044H6.83345H6.83646H6.83947H6.84248H6.84549H6.8485H6.85151H6.85452H6.85753H6.86054H6.86355H6.86656H6.86957H6.87258H6.87559H6.8786H6.88161H6.88462H6.88763H6.89064H6.89365H6.89666H6.89967H6.90268H6.90569H6.9087H6.91171H6.91472H6.91773H6.92074H6.92375H6.92676H6.92977H6.93278H6.93579H6.9388H6.94181H6.94482H6.94783H6.95084H6.95385H6.95686H6.95987H6.96288H6.96589H6.9689H6.97191H6.97492H6.97793H6.98094H6.98395H6.98696H6.98997H6.99298H6.99599H6.999H7.00201H7.00502H7.00803H7.01104H7.01406H7.01707H7.02008H7.02309H7.0261H7.02911H7.03212H7.03513H7.03814H7.04115H7.04416H7.04717H7.05018H7.05319H7.0562H7.05921H7.06222H7.06523H7.06824H7.07125H7.07426H7.07727H7.08028H7.08329H7.0863H7.08931H7.09232H7.09533H7.09835H7.10136H7.10437H7.10738H7.11039H7.1134H7.11641H7.11942H7.12243H7.12544H7.12845H7.13146H7.13447H7.13748H7.14049H7.1435H7.14651H7.14952H7.15253H7.15554H7.15856H7.16157H7.16458H7.16759H7.1706H7.17361H7.17662H7.17963H7.18264H7.18565H7.18866H7.19167H7.19468H7.19769H7.2007H7.20371H7.20672H7.20974H7.21275H7.21576H7.21877H7.22178H7.22479H7.2278H7.23081H7.23382H7.23683H7.23984H7.24285H7.24586H7.24887H7.25188H7.2549H7.25791H7.26092H7.26393H7.26694H7.26995H7.27296H7.27597H7.27898H7.28199H7.285H7.28801H7.29102H7.29403H7.29705H7.30006H7.30307H7.30608H7.30909H7.3121H7.31511H7.31812H7.32113H7.32414H7.32715H7.33016H7.33317H7.33619H7.3392H7.34221H7.34522H7.34823H7.35124H7.35425H7.35726H7.36027H7.36328H7.36629H7.3693H7.37231H7.37533H7.37834H7.38135H7.38436H7.38737H7.39038H7.39339H7.3964H7.39941H7.40242H7.40543H7.40844H7.41146H7.41447H7.41748H7.42049H7.4235H7.42651H7.42952H7.43253H7.43554H7.43855H7.44156H7.44457H7.44759H7.4506H7.45361H7.45662H7.45963H7.46264H7.46565H7.46866H7.47167H7.47468H7.47769H7.48071H7.48372H7.48673H7.48974H7.49275H7.49576H7.49877H7.50178H7.50479C7.64747 13.8821 7.79108 13.8601 7.90153 13.7876C8.01749 13.7116 8.08595 13.5872 8.08873 13.4101C8.0915 13.2338 8.02888 13.1062 7.91566 13.0263C7.80754 12.9499 7.66408 12.925 7.51852 12.925C7.18404 12.925 6.84969 12.9251 6.51539 12.9252C5.84699 12.9254 5.17879 12.9257 4.51011 12.925M6.0096 13.884L4.51011 12.925M4.5325 13.809L4.533 13.884C4.38368 13.885 4.23229 13.8644 4.11664 13.7905C3.99461 13.7124 3.9239 13.5828 3.92501 13.3957L3.92501 13.3957C3.92613 13.2203 3.99471 13.0961 4.11087 13.0199C4.22157 12.9473 4.36602 12.9245 4.51011 12.925M4.5325 13.809C4.24321 13.811 3.99805 13.7267 4.00001 13.3962L5.96422 13.8071L5.96324 13.809C5.80441 13.809 5.64548 13.8088 5.48651 13.8086C5.16845 13.8082 4.85026 13.8077 4.5325 13.809Z" fill="#A29475" stroke="#A29475" stroke-width="0.15"/>
<path d="M18.0096 13.884H17.9632C17.8042 13.884 17.6451 13.8838 17.4861 13.8836C17.1682 13.8832 16.8504 13.8827 16.5328 13.884L16.5325 13.809M18.0096 13.884L16.5102 12.925C16.5102 12.925 16.5101 12.925 16.5101 12.925M18.0096 13.884L18.0106 13.8821H18.0123H18.0153H18.0183H18.0213H18.0243H18.0273H18.0303H18.0333H18.0363H18.0394H18.0424H18.0454H18.0484H18.0514H18.0544H18.0574H18.0604H18.0634H18.0664H18.0694H18.0724H18.0754H18.0784H18.0814H18.0844H18.0874H18.0905H18.0935H18.0965H18.0995H18.1025H18.1055H18.1085H18.1115H18.1145H18.1175H18.1205H18.1235H18.1265H18.1295H18.1325H18.1355H18.1386H18.1416H18.1446H18.1476H18.1506H18.1536H18.1566H18.1596H18.1626H18.1656H18.1686H18.1716H18.1746H18.1776H18.1806H18.1836H18.1867H18.1897H18.1927H18.1957H18.1987H18.2017H18.2047H18.2077H18.2107H18.2137H18.2167H18.2197H18.2227H18.2257H18.2287H18.2318H18.2348H18.2378H18.2408H18.2438H18.2468H18.2498H18.2528H18.2558H18.2588H18.2618H18.2648H18.2678H18.2708H18.2739H18.2769H18.2799H18.2829H18.2859H18.2889H18.2919H18.2949H18.2979H18.3009H18.3039H18.3069H18.3099H18.3129H18.316H18.319H18.322H18.325H18.328H18.331H18.334H18.337H18.34H18.343H18.346H18.349H18.352H18.3551H18.3581H18.3611H18.3641H18.3671H18.3701H18.3731H18.3761H18.3791H18.3821H18.3851H18.3881H18.3911H18.3942H18.3972H18.4002H18.4032H18.4062H18.4092H18.4122H18.4152H18.4182H18.4212H18.4242H18.4272H18.4303H18.4333H18.4363H18.4393H18.4423H18.4453H18.4483H18.4513H18.4543H18.4573H18.4603H18.4633H18.4663H18.4694H18.4724H18.4754H18.4784H18.4814H18.4844H18.4874H18.4904H18.4934H18.4964H18.4994H18.5024H18.5055H18.5085H18.5115H18.5145H18.5175H18.5205H18.5235H18.5265H18.5295H18.5325H18.5355H18.5386H18.5416H18.5446H18.5476H18.5506H18.5536H18.5566H18.5596H18.5626H18.5656H18.5686H18.5716H18.5747H18.5777H18.5807H18.5837H18.5867H18.5897H18.5927H18.5957H18.5987H18.6017H18.6047H18.6078H18.6108H18.6138H18.6168H18.6198H18.6228H18.6258H18.6288H18.6318H18.6348H18.6378H18.6409H18.6439H18.6469H18.6499H18.6529H18.6559H18.6589H18.6619H18.6649H18.6679H18.6709H18.674H18.677H18.68H18.683H18.686H18.689H18.692H18.695H18.698H18.701H18.704H18.7071H18.7101H18.7131H18.7161H18.7191H18.7221H18.7251H18.7281H18.7311H18.7341H18.7371H18.7402H18.7432H18.7462H18.7492H18.7522H18.7552H18.7582H18.7612H18.7642H18.7672H18.7703H18.7733H18.7763H18.7793H18.7823H18.7853H18.7883H18.7913H18.7943H18.7973H18.8003H18.8034H18.8064H18.8094H18.8124H18.8154H18.8184H18.8214H18.8244H18.8274H18.8304H18.8335H18.8365H18.8395H18.8425H18.8455H18.8485H18.8515H18.8545H18.8575H18.8605H18.8636H18.8666H18.8696H18.8726H18.8756H18.8786H18.8816H18.8846H18.8876H18.8906H18.8937H18.8967H18.8997H18.9027H18.9057H18.9087H18.9117H18.9147H18.9177H18.9207H18.9238H18.9268H18.9298H18.9328H18.9358H18.9388H18.9418H18.9448H18.9478H18.9508H18.9539H18.9569H18.9599H18.9629H18.9659H18.9689H18.9719H18.9749H18.9779H18.9809H18.984H18.987H18.99H18.993H18.996H18.999H19.002H19.005H19.008H19.011H19.0141H19.0171H19.0201H19.0231H19.0261H19.0291H19.0321H19.0351H19.0381H19.0411H19.0442H19.0472H19.0502H19.0532H19.0562H19.0592H19.0622H19.0652H19.0682H19.0713H19.0743H19.0773H19.0803H19.0833H19.0863H19.0893H19.0923H19.0953H19.0983H19.1014H19.1044H19.1074H19.1104H19.1134H19.1164H19.1194H19.1224H19.1254H19.1284H19.1315H19.1345H19.1375H19.1405H19.1435H19.1465H19.1495H19.1525H19.1555H19.1586H19.1616H19.1646H19.1676H19.1706H19.1736H19.1766H19.1796H19.1826H19.1857H19.1887H19.1917H19.1947H19.1977H19.2007H19.2037H19.2067H19.2097H19.2127H19.2158H19.2188H19.2218H19.2248H19.2278H19.2308H19.2338H19.2368H19.2398H19.2429H19.2459H19.2489H19.2519H19.2549H19.2579H19.2609H19.2639H19.2669H19.2699H19.273H19.276H19.279H19.282H19.285H19.288H19.291H19.294H19.297H19.3001H19.3031H19.3061H19.3091H19.3121H19.3151H19.3181H19.3211H19.3241H19.3272H19.3302H19.3332H19.3362H19.3392H19.3422H19.3452H19.3482H19.3512H19.3543H19.3573H19.3603H19.3633H19.3663H19.3693H19.3723H19.3753H19.3783H19.3813H19.3844H19.3874H19.3904H19.3934H19.3964H19.3994H19.4024H19.4054H19.4084H19.4115H19.4145H19.4175H19.4205H19.4235H19.4265H19.4295H19.4325H19.4355H19.4386H19.4416H19.4446H19.4476H19.4506H19.4536H19.4566H19.4596H19.4626H19.4657H19.4687H19.4717H19.4747H19.4777H19.4807H19.4837H19.4867H19.4897H19.4927H19.4958H19.4988H19.5018H19.5048C19.6475 13.8821 19.7911 13.8601 19.9015 13.7876C20.0175 13.7116 20.0859 13.5872 20.0887 13.4101C20.0915 13.2338 20.0289 13.1062 19.9157 13.0263C19.8075 12.9499 19.6641 12.925 19.5185 12.925C19.184 12.925 18.8497 12.9251 18.5154 12.9252C17.847 12.9254 17.1788 12.9257 16.5101 12.925M18.0096 13.884L16.5101 12.925M16.5325 13.809L16.533 13.884C16.3837 13.885 16.2323 13.8644 16.1166 13.7905C15.9946 13.7124 15.9239 13.5828 15.925 13.3957L15.925 13.3957C15.9261 13.2203 15.9947 13.0961 16.1109 13.0199C16.2216 12.9473 16.366 12.9245 16.5101 12.925M16.5325 13.809C16.2432 13.811 15.9981 13.7267 16 13.3962L17.9642 13.8071L17.9632 13.809C17.8044 13.809 17.6455 13.8088 17.4865 13.8086C17.1685 13.8082 16.8503 13.8077 16.5325 13.809Z" fill="#A29475" stroke="#A29475" stroke-width="0.15"/>
<path d="M11.9632 27.1517L11.9632 27.1517C11.9654 27.0009 12.0162 26.8807 12.1121 26.7994C12.2062 26.7198 12.3335 26.6861 12.4732 26.6855M11.9632 27.1517L12.4733 26.6855C12.4732 26.6855 12.4732 26.6855 12.4732 26.6855M11.9632 27.1517C11.9609 27.3049 12.0118 27.4261 12.1067 27.5094M11.9632 27.1517L12.1067 27.5094M12.4732 26.6855C13.0244 26.6826 13.576 26.6816 14.1278 26.6885L12.4732 26.6855ZM14.6078 27.1401L14.6078 27.1401C14.6134 27.2828 14.5728 27.4026 14.4898 27.489C14.4074 27.5747 14.2912 27.6194 14.1607 27.6287L14.1606 27.6287C13.9533 27.6433 13.7425 27.6399 13.5355 27.6366C13.4728 27.6356 13.4105 27.6346 13.3487 27.6341V27.6377H13.2737H13.2728C13.1928 27.6377 13.1121 27.6386 13.0309 27.6395C12.842 27.6416 12.6507 27.6437 12.4612 27.6347L14.6078 27.1401ZM14.6078 27.1401C14.6023 26.9989 14.5557 26.8837 14.4672 26.8041C14.3797 26.7253 14.2609 26.6901 14.1278 26.6885L14.6078 27.1401ZM12.1067 27.5094C12.1995 27.5908 12.3257 27.6283 12.4612 27.6347L12.1067 27.5094Z" fill="#A29475" stroke="#A29475" stroke-width="0.15"/>
<path d="M16.9251 17.3934L16.9251 17.3934C16.9273 17.2426 16.9781 17.1224 17.074 17.0411C17.1681 16.9615 17.2954 16.9278 17.4351 16.9272M16.9251 17.3934L17.4352 16.9272C17.4352 16.9272 17.4351 16.9272 17.4351 16.9272M16.9251 17.3934C16.9228 17.5466 16.9737 17.6678 17.0686 17.7511M16.9251 17.3934L17.0686 17.7511M17.4351 16.9272C17.9863 16.9243 18.538 16.9233 19.0897 16.9302L17.4351 16.9272ZM19.5697 17.3818L19.5697 17.3818C19.5753 17.5245 19.5347 17.6443 19.4517 17.7307C19.3693 17.8164 19.2531 17.8611 19.1226 17.8704L19.1225 17.8704C18.9152 17.885 18.7044 17.8816 18.4974 17.8783C18.4348 17.8773 18.3724 17.8763 18.3107 17.8758V17.8794H18.2357H18.2347C18.1547 17.8794 18.074 17.8803 17.9928 17.8812C17.8039 17.8833 17.6126 17.8854 17.4231 17.8764L19.5697 17.3818ZM19.5697 17.3818C19.5642 17.2406 19.5176 17.1254 19.4291 17.0458C19.3416 16.967 19.2228 16.9318 19.0897 16.9302L19.5697 17.3818ZM17.0686 17.7511C17.1614 17.8325 17.2876 17.87 17.4231 17.8764L17.0686 17.7511Z" fill="#A29475" stroke="#A29475" stroke-width="0.15"/>
<path d="M16.9251 21.3934L16.9251 21.3934C16.9273 21.2426 16.9781 21.1224 17.074 21.0411C17.1681 20.9615 17.2954 20.9278 17.4351 20.9272M16.9251 21.3934L17.4352 20.9272C17.4352 20.9272 17.4351 20.9272 17.4351 20.9272M16.9251 21.3934C16.9228 21.5466 16.9737 21.6678 17.0686 21.7511M16.9251 21.3934L17.0686 21.7511M17.4351 20.9272C17.9863 20.9243 18.538 20.9233 19.0897 20.9302L17.4351 20.9272ZM19.5697 21.3818L19.5697 21.3818C19.5753 21.5245 19.5347 21.6443 19.4517 21.7307C19.3693 21.8164 19.2531 21.8611 19.1226 21.8704L19.1225 21.8704C18.9152 21.885 18.7044 21.8816 18.4974 21.8783C18.4348 21.8773 18.3724 21.8763 18.3107 21.8758V21.8794H18.2357H18.2347C18.1547 21.8794 18.074 21.8803 17.9928 21.8812C17.8039 21.8833 17.6126 21.8854 17.4231 21.8764L19.5697 21.3818ZM19.5697 21.3818C19.5642 21.2406 19.5176 21.1254 19.4291 21.0458C19.3416 20.967 19.2228 20.9318 19.0897 20.9302L19.5697 21.3818ZM17.0686 21.7511C17.1614 21.8325 17.2876 21.87 17.4231 21.8764L17.0686 21.7511Z" fill="#A29475" stroke="#A29475" stroke-width="0.15"/>
<path d="M4.22833 18.5393C4.59999 18.5883 4.98538 18.5883 5.35704 18.5403L5.36642 18.6147C5.36646 18.6147 5.3665 18.6147 5.36654 18.6147M5.36654 18.6147C4.98853 18.6635 4.59666 18.6635 4.21853 18.6137L4.21823 18.6136C4.16955 18.607 4.12259 18.5812 4.08329 18.5522C4.0426 18.5222 4.00324 18.4838 3.96923 18.4428C3.93524 18.4019 3.90492 18.3564 3.88355 18.3114C3.86309 18.2683 3.84671 18.2172 3.85168 18.168L3.9263 18.1755L3.85165 18.1683C3.86073 18.0743 3.91843 17.979 3.98516 17.9034C4.0531 17.8264 4.14066 17.758 4.22609 17.7212M5.36654 18.6147C5.41549 18.6085 5.46291 18.5832 5.50278 18.5547C5.54403 18.5251 5.58393 18.487 5.61848 18.4465C5.653 18.4059 5.68386 18.3609 5.70579 18.3164C5.72675 18.2738 5.74382 18.2231 5.7397 18.1742C5.73189 18.0795 5.67499 17.9833 5.60893 17.9069C5.54162 17.829 5.45453 17.7597 5.36955 17.7224L5.33939 17.7911L5.36973 17.7225C5.27644 17.6812 5.17188 17.6783 5.07613 17.683C5.03785 17.6848 4.99873 17.6881 4.96116 17.6912C4.95135 17.692 4.94164 17.6928 4.93207 17.6936C4.88498 17.6974 4.84046 17.7004 4.79808 17.7004C4.75545 17.7004 4.71081 17.6974 4.66368 17.6936C4.65372 17.6928 4.6436 17.6919 4.63337 17.6911C4.59616 17.6879 4.55747 17.6847 4.51964 17.6828C4.42394 17.6781 4.31965 17.6807 4.22609 17.7212M4.22609 17.7212C4.22605 17.7212 4.22602 17.7213 4.22598 17.7213L4.25579 17.7901L4.22619 17.7212C4.22616 17.7212 4.22612 17.7212 4.22609 17.7212Z" fill="#A29475" stroke="#A29475" stroke-width="0.15"/>
<path d="M4.30255 9.7832C4.67421 9.83223 5.0596 9.83223 5.43126 9.78418L5.44064 9.85859C5.44068 9.85859 5.44072 9.85858 5.44076 9.85858M5.44076 9.85858C5.06275 9.90744 4.67087 9.90744 4.29274 9.85756L4.29245 9.85752C4.24377 9.8509 4.1968 9.82507 4.15751 9.79611C4.11681 9.76613 4.07746 9.72768 4.04345 9.6867C4.00946 9.64576 3.97914 9.60028 3.95777 9.55531C3.9373 9.51224 3.92093 9.4611 3.9259 9.41186L4.00052 9.41939L3.92587 9.41218C3.93494 9.31815 3.99265 9.22293 4.05938 9.14729C4.12732 9.07027 4.21488 9.00185 4.30031 8.96513M5.44076 9.85858C5.48971 9.85238 5.53713 9.82714 5.577 9.79855C5.61825 9.76897 5.65815 9.73094 5.6927 9.69037C5.72722 9.64984 5.75808 9.6048 5.78001 9.56026C5.80097 9.51768 5.81804 9.46701 5.81392 9.41805C5.8061 9.32336 5.74921 9.22721 5.68314 9.1508C5.61583 9.07294 5.52875 9.00363 5.44377 8.96631L5.41361 9.03498L5.44395 8.96639C5.35066 8.92513 5.2461 8.9222 5.15035 8.92685C5.11207 8.92871 5.07295 8.93196 5.03538 8.93508C5.02556 8.93589 5.01585 8.9367 5.00629 8.93747C4.95919 8.94126 4.91468 8.94429 4.8723 8.94429C4.82967 8.94429 4.78502 8.94126 4.7379 8.93745C4.72794 8.93665 4.71782 8.9358 4.70759 8.93495C4.67038 8.93185 4.63169 8.92862 4.59386 8.92673C4.49815 8.92196 4.39387 8.92464 4.30031 8.96513M4.30031 8.96513C4.30027 8.96515 4.30024 8.96516 4.3002 8.96518L4.33001 9.034L4.30041 8.96509C4.30038 8.9651 4.30034 8.96512 4.30031 8.96513Z" fill="#A29475" stroke="#A29475" stroke-width="0.15"/>
<path d="M30.1267 14.422L30.1273 14.6023C30.1344 16.4427 28.6638 17.9379 26.8315 17.9509C24.9863 17.964 23.4826 16.466 23.4816 14.6173L23.4816 14.6173C23.4816 12.7874 24.9702 11.2926 26.7984 11.2885L30.1267 14.422ZM30.1267 14.422L30.1211 14.4275M30.1267 14.422L30.1211 14.4275M30.1211 14.4275C30.0234 12.6737 28.5718 11.2837 26.7984 11.2885L30.1211 14.4275ZM26.8054 12.2456L26.8054 12.2456C28.1085 12.2465 29.1606 13.2957 29.1683 14.5999L29.1683 14.6006L29.1683 14.601C29.1759 15.922 28.1177 16.9919 26.8065 16.9919C25.5091 16.9919 24.4464 15.9348 24.4407 14.6375L24.4407 14.6375C24.434 13.3165 25.4962 12.2437 26.8054 12.2456Z" fill="#A29475" stroke="#A29475" stroke-width="0.15"/>
<path d="M27.5886 13.5666L27.5887 13.5666C27.6853 13.4527 27.7985 13.3503 27.9287 13.3094C28.0667 13.2662 28.2103 13.296 28.3518 13.4181L28.3519 13.4181C28.4956 13.5424 28.5435 13.6821 28.5182 13.8253C28.4943 13.96 28.4076 14.0861 28.3113 14.196L27.5886 13.5666ZM27.5886 13.5666C27.3423 13.8568 27.0926 14.1432 26.8374 14.4359C26.7318 14.557 26.6252 14.6792 26.5176 14.8032C26.4596 14.7588 26.4029 14.7155 26.3471 14.673C26.1993 14.5601 26.058 14.4524 25.9182 14.3426L25.9181 14.3425C25.8055 14.2543 25.6818 14.1927 25.5547 14.1903C25.423 14.1878 25.3022 14.249 25.2004 14.3763L25.2003 14.3764C25.1 14.5021 25.0644 14.6336 25.093 14.7621C25.1207 14.887 25.2063 14.9957 25.3201 15.0859C25.4268 15.1707 25.5335 15.2543 25.64 15.3376C25.8222 15.4802 26.0036 15.6222 26.1822 15.7687L26.1823 15.7688M27.5886 13.5666L26.1823 15.7688M26.1823 15.7688C26.3245 15.885 26.4684 15.9484 26.6155 15.9357C26.7627 15.9231 26.8941 15.8359 27.0146 15.6935M26.1823 15.7688L27.0146 15.6935M27.0146 15.6935C27.4135 15.2233 27.8192 14.759 28.225 14.2947M27.0146 15.6935L28.225 14.2947M28.225 14.2947C28.2538 14.2618 28.2825 14.2289 28.3112 14.196L28.225 14.2947Z" fill="#A29475" stroke="#A29475" stroke-width="0.15"/>
</g>
<defs>
<clipPath id="clip0_1520_244">
<rect width="32" height="35.3165" fill="white" transform="translate(0.5)"/>
</clipPath>
</defs>
</svg>
