<svg width="35" height="35" viewBox="0 0 35 35" fill="none" xmlns="http://www.w3.org/2000/svg">
<g clip-path="url(#clip0_3406_305)">
<path d="M7.48337 1.21567C7.48337 1.40458 7.48337 1.55002 7.48337 1.69546C7.48337 3.32136 7.48495 4.94806 7.48337 6.57396C7.48258 7.3138 7.31269 7.48453 6.58016 7.48532C4.9547 7.4869 3.32845 7.48532 1.70298 7.48532H1.21621C1.21621 7.66633 1.21621 7.79991 1.21621 7.93349C1.21621 16.4013 1.21858 24.8699 1.20831 33.3377C1.20831 33.7013 1.31025 33.7946 1.66821 33.793C4.55643 33.7788 7.44544 33.7851 10.3345 33.7851C10.9429 33.7851 11.229 33.9788 11.2298 34.3882C11.2313 34.8048 10.9548 34.9937 10.3424 34.9937C7.16571 34.9937 3.98985 34.9937 0.813206 34.9937C0.187359 34.9937 0.00877198 34.819 0.00877198 34.1946C0.00877198 28.1154 0.0111426 22.0362 0.0111426 15.9571C0.0111426 13.0175 0.0135132 10.0779 0.000869879 7.13832C-0.000710542 6.75734 0.119401 6.48148 0.388073 6.21432C2.34147 4.27857 4.28618 2.33175 6.22378 0.378613C6.4806 0.120145 6.74532 0 7.11355 0C13.6288 0.00869467 20.1441 0.00553297 26.6594 0.0063234C27.3137 0.0063234 27.4796 0.174684 27.4796 0.825994C27.4804 8.60614 27.4812 16.3863 27.4812 24.1672C27.4812 24.2795 27.4907 24.3949 27.4694 24.504C27.4069 24.8162 27.1983 24.9837 26.8901 24.9885C26.5812 24.994 26.3623 24.8328 26.2959 24.5229C26.2627 24.3664 26.2738 24.1996 26.2738 24.0368C26.2738 16.5942 26.2762 9.15154 26.2769 1.70969C26.2769 1.3814 26.1171 1.21673 25.7973 1.21567C19.8446 1.21567 13.8928 1.21567 7.94011 1.21567C7.80578 1.21567 7.67144 1.21567 7.48416 1.21567H7.48337ZM6.23721 2.34361C4.94838 3.63279 3.61529 4.96466 2.34621 6.23329H6.23721V2.34282V2.34361Z" fill="#A29475"/>
<path d="M22.0571 26.0365C22.9666 26.5622 23.8398 27.072 24.7217 27.566C24.7999 27.6103 24.9588 27.5802 25.0457 27.5281C25.7316 27.1139 26.4135 27.1076 27.105 27.5067C29.3989 28.8331 31.6953 30.1547 33.9869 31.4849C34.9525 32.0453 35.2718 33.1456 34.7526 34.0633C34.2358 34.9778 33.1232 35.2766 32.1481 34.7201C29.8035 33.382 27.4677 32.0287 25.1342 30.6708C24.5218 30.3143 24.2262 29.7452 24.2468 29.0425C24.2539 28.7872 24.1709 28.6647 23.9623 28.5477C23.1255 28.079 22.2973 27.5937 21.4415 27.1004C21.1254 27.6498 20.822 28.1652 20.5328 28.6892C20.4956 28.7572 20.5004 28.8884 20.5431 28.954C21.0306 29.7128 20.9887 30.4605 20.4901 31.2423C20.6197 31.2549 20.7232 31.2731 20.8267 31.2731C21.5395 31.2763 22.2523 31.2699 22.9651 31.2771C23.5364 31.2826 23.7268 31.4802 23.7284 32.0501C23.73 32.801 23.7316 33.5511 23.7268 34.302C23.7237 34.7857 23.5237 34.992 23.0464 34.9928C19.7576 34.9952 16.4687 34.9952 13.1799 34.9928C12.7476 34.9928 12.5208 34.7881 12.5122 34.3558C12.4963 33.5432 12.4956 32.7299 12.5122 31.9165C12.5216 31.477 12.7698 31.2786 13.2644 31.2763C14.4521 31.2715 15.6406 31.2747 16.8283 31.2747C16.9642 31.2747 17.1001 31.2747 17.3372 31.2747C17.1878 31.1648 17.1214 31.1063 17.0456 31.0621C16.3431 30.6534 15.6382 30.2503 14.9365 29.8401C14.0981 29.3508 13.7457 28.5264 13.9914 27.6474C14.2206 26.8278 14.9721 26.31 15.9014 26.3045C16.0191 26.3045 16.1874 26.2183 16.2451 26.1203C17.0448 24.7632 17.8334 23.3997 18.607 22.0283C18.6663 21.9232 18.6458 21.7184 18.5818 21.6054C18.1353 20.8189 18.223 19.9005 18.8267 19.2832C19.4186 18.6785 20.3305 18.552 21.1049 18.9907C22.1812 19.6009 23.2535 20.2182 24.3203 20.8458C25.101 21.3051 25.436 22.1635 25.1887 23.0045C24.9516 23.8099 24.231 24.3387 23.3491 24.3189C23.1112 24.3134 22.9911 24.3909 22.8837 24.5909C22.6292 25.0635 22.3511 25.5236 22.0563 26.035L22.0571 26.0365ZM19.4304 28.132C20.2783 26.6633 21.1049 25.2303 21.9433 23.7767C21.1989 23.3475 20.4901 22.9389 19.756 22.5152C18.9105 23.9806 18.0839 25.4129 17.2431 26.8689C17.9804 27.2949 18.6805 27.6988 19.4297 28.1312L19.4304 28.132ZM26.1235 28.4355C25.7553 28.4568 25.5554 28.6402 25.4748 28.924C25.3784 29.2631 25.5569 29.5018 25.8406 29.6662C28.1425 30.9972 30.4436 32.3299 32.7526 33.6483C32.9091 33.7376 33.1643 33.8001 33.3065 33.7329C33.4954 33.6436 33.6843 33.4365 33.7514 33.2389C33.8415 32.9725 33.6843 32.7275 33.433 32.5828C31.0995 31.232 28.7644 29.8827 26.4278 28.5374C26.3234 28.4774 26.1954 28.4584 26.1235 28.4355ZM22.5178 32.5291H13.7544V33.7867C13.9203 33.7867 14.0665 33.7867 14.2127 33.7867C16.1368 33.7867 18.0602 33.7867 19.9844 33.7867C20.7216 33.7867 21.4589 33.7946 22.1954 33.7772C22.3044 33.7748 22.4957 33.6618 22.5036 33.5851C22.5376 33.242 22.5186 32.8935 22.5186 32.5291H22.5178ZM19.6762 29.9286C19.5948 29.8306 19.4779 29.5942 19.2874 29.4788C18.2514 28.8528 17.1989 28.2529 16.1479 27.653C15.7844 27.4451 15.4241 27.536 15.2344 27.8569C15.0464 28.1746 15.1467 28.5343 15.5055 28.7516C15.9322 29.0109 16.3684 29.2544 16.8006 29.5041C17.4281 29.8654 18.0499 30.2361 18.6845 30.5839C19.1444 30.836 19.6564 30.5593 19.6762 29.9278V29.9286ZM24.0397 22.3334C23.9742 22.2488 23.8777 22.0243 23.7079 21.9216C22.6387 21.2782 21.5561 20.6561 20.4704 20.0404C20.1527 19.8602 19.8018 19.9692 19.6193 20.2601C19.436 20.5518 19.4905 20.9272 19.8066 21.1154C20.9113 21.773 22.0223 22.4211 23.1484 23.0408C23.5632 23.2685 24.0429 22.9302 24.0397 22.3334Z" fill="#A29475"/>
<path d="M13.7504 13.7653C16.8267 13.7653 19.903 13.7653 22.9793 13.7653C23.4329 13.7653 23.6786 13.9416 23.7237 14.2854C23.7679 14.6285 23.5767 14.9051 23.233 14.9676C23.0868 14.9944 22.9343 14.9897 22.7849 14.9897C16.7572 14.9905 10.7295 14.9905 4.70174 14.9897C4.55239 14.9897 4.39909 14.9952 4.25369 14.9652C3.92812 14.8988 3.75823 14.6878 3.76771 14.3518C3.77719 14.0112 3.97633 13.8294 4.29636 13.7709C4.39356 13.7535 4.49549 13.7638 4.59585 13.7638C7.64685 13.7638 10.6986 13.7638 13.7496 13.7638L13.7504 13.7653Z" fill="#A29475"/>
<path d="M13.7481 10.0115C16.8244 10.0115 19.9015 10.0115 22.9778 10.0115C23.4906 10.0115 23.7593 10.2558 23.7269 10.6787C23.6985 11.043 23.4503 11.2351 22.9762 11.2359C21.5507 11.2399 20.1251 11.2375 18.6988 11.2375C14.0215 11.2375 9.34428 11.2375 4.66703 11.2367C4.53032 11.2367 4.38887 11.2422 4.25691 11.2146C3.93292 11.1466 3.75907 10.9379 3.76777 10.6028C3.77725 10.2645 3.97164 10.0756 4.29405 10.0202C4.41574 9.99889 4.54375 10.0115 4.66861 10.0115C7.69511 10.0115 10.7216 10.0115 13.7481 10.0115Z" fill="#A29475"/>
<path d="M10.633 17.5182C12.6583 17.5182 14.6836 17.5103 16.7082 17.5293C16.9302 17.5317 17.2099 17.636 17.3593 17.7917C17.6367 18.081 17.4589 18.5703 17.0717 18.6968C16.9563 18.7347 16.8259 18.7426 16.7026 18.7426C12.6528 18.745 8.60219 18.745 4.55236 18.7434C4.06559 18.7434 3.81667 18.5719 3.77084 18.2193C3.71553 17.7949 3.98894 17.5198 4.48282 17.519C6.53263 17.5167 8.58322 17.5182 10.633 17.5174V17.5182Z" fill="#A29475"/>
<path d="M16.9011 4.96855C14.9145 4.96855 12.9271 4.96855 10.9405 4.96855C10.8157 4.96855 10.69 4.97408 10.566 4.96143C10.2325 4.92744 10.0112 4.68557 10.0112 4.36545C10.0112 4.03189 10.2515 3.77421 10.6031 3.76868C11.3404 3.75841 12.0776 3.76394 12.8149 3.76394C16.2017 3.76394 19.5878 3.76236 22.9746 3.76947C23.1524 3.76947 23.3531 3.80899 23.5025 3.89831C23.7498 4.04612 23.8059 4.33779 23.6842 4.55911C23.587 4.73537 23.3524 4.92112 23.1603 4.94325C22.6791 4.99937 22.1876 4.96617 21.7 4.96697C20.1006 4.96697 18.5013 4.96697 16.9011 4.96697V4.96855Z" fill="#A29475"/>
<path d="M9.99385 21.2712C11.7821 21.2712 13.5703 21.2712 15.3586 21.2712C15.4708 21.2712 15.5862 21.2594 15.6952 21.2799C16.0145 21.3392 16.2128 21.5226 16.2207 21.8633C16.2286 22.1992 16.0571 22.4071 15.7324 22.475C15.5996 22.5027 15.4589 22.498 15.3222 22.498C11.771 22.4995 8.21982 22.4995 4.66862 22.498C4.53191 22.498 4.39126 22.5027 4.2585 22.475C3.93372 22.4079 3.76067 22.1992 3.76857 21.864C3.77647 21.525 3.97323 21.3384 4.29406 21.2799C4.40311 21.2602 4.51848 21.2712 4.63069 21.2712C6.41894 21.2712 8.20718 21.2712 9.99543 21.2712H9.99385Z" fill="#A29475"/>
<path d="M8.75789 25.0255C10.1953 25.0255 11.6319 25.0216 13.0693 25.0271C13.4723 25.0287 13.7338 25.284 13.7315 25.6373C13.7291 25.9804 13.4889 26.2167 13.1025 26.2475C12.991 26.2562 12.878 26.2515 12.765 26.2515C10.5161 26.2515 8.26638 26.2515 6.01744 26.2515C5.51724 26.2515 5.01782 26.2546 4.51762 26.2507C4.03006 26.2467 3.77798 26.0412 3.77008 25.6547C3.76218 25.2461 4.01109 25.0295 4.52157 25.0279C5.93368 25.0232 7.34578 25.0263 8.75789 25.0255Z" fill="#A29475"/>
<path d="M8.1147 28.7794C9.32688 28.7794 10.5399 28.7794 11.752 28.7794C12.1969 28.7794 12.4601 28.9968 12.4688 29.3667C12.4782 29.7556 12.2167 30.0022 11.756 30.003C9.33083 30.007 6.90647 30.007 4.48131 30.0022C4.00719 30.0014 3.7559 29.7659 3.76617 29.3723C3.77565 28.9826 4.02773 28.7794 4.5145 28.7786C5.71483 28.7763 6.91437 28.7786 8.1147 28.7786V28.7802V28.7794Z" fill="#A29475"/>
<path d="M20.6339 6.26168C21.421 6.26168 22.208 6.2601 22.9951 6.26168C23.4779 6.26326 23.726 6.47194 23.7268 6.86794C23.7268 7.25841 23.4755 7.48131 22.9967 7.48289C21.4099 7.48763 19.8232 7.48763 18.2364 7.48289C17.7805 7.48131 17.5063 7.22916 17.515 6.85055C17.5237 6.48933 17.7939 6.26168 18.2349 6.25931C19.0345 6.25536 19.8342 6.25852 20.6339 6.25852V6.26168Z" fill="#A29475"/>
</g>
<defs>
<clipPath id="clip0_3406_305">
<rect width="35" height="35" fill="white"/>
</clipPath>
</defs>
</svg>
