<svg width="80" height="72" viewBox="0 0 80 72" fill="none" xmlns="http://www.w3.org/2000/svg">
<path d="M25.0092 22.7731C21.7177 22.7731 18.4262 22.7747 15.1347 22.7714C14.9051 22.7714 14.6641 22.7845 14.4492 22.7206C13.9703 22.5779 13.7227 22.2335 13.7719 21.7235C13.8195 21.2413 14.1097 20.9724 14.5771 20.8953C14.7198 20.8723 14.8707 20.8821 15.0167 20.8821C21.6636 20.8821 28.3089 20.8821 34.9558 20.8821C35.1017 20.8821 35.251 20.8723 35.3953 20.8936C35.8955 20.9658 36.1907 21.2528 36.2251 21.7645C36.2596 22.2811 35.9841 22.6009 35.5085 22.7354C35.3117 22.7911 35.0935 22.7731 34.8836 22.7731C31.5921 22.7731 28.3007 22.7731 25.0092 22.7731Z" fill="#8A1538"/>
<path d="M24.9928 26.9403C28.263 26.9403 31.5348 26.9403 34.8049 26.9403C34.9935 26.9403 35.1854 26.9255 35.3707 26.9501C35.8972 27.0206 36.212 27.3191 36.2268 27.862C36.2416 28.4097 35.925 28.7115 35.4117 28.8181C35.2707 28.8476 35.1198 28.8312 34.9722 28.8312C28.3253 28.8312 21.68 28.8312 15.0331 28.8312C14.9068 28.8312 14.7805 28.8377 14.6559 28.8246C14.1098 28.7656 13.7588 28.3868 13.7637 27.8718C13.7686 27.3536 14.1229 26.9813 14.6772 26.9468C15.0528 26.9239 15.4316 26.9386 15.8088 26.9386C18.8707 26.9403 21.9326 26.9403 24.9928 26.9403Z" fill="#8A1538"/>
<path d="M21.898 61.7034C19.6562 61.7034 17.4143 61.705 15.1724 61.7001C14.9231 61.7001 14.6624 61.7001 14.4246 61.6361C13.9588 61.5099 13.744 61.1671 13.7702 60.6899C13.7948 60.2389 14.0408 59.9486 14.4836 59.8518C14.646 59.8157 14.8165 59.8141 14.9838 59.8141C19.5512 59.8125 24.1202 59.8125 28.6876 59.8141C28.8746 59.8141 29.0698 59.8141 29.2485 59.86C29.688 59.9699 29.9193 60.27 29.934 60.7227C29.9488 61.1737 29.7405 61.5017 29.3076 61.6296C29.0714 61.7001 28.8106 61.7017 28.5614 61.7017C26.3408 61.7067 24.1186 61.7034 21.898 61.7034Z" fill="#8A1538"/>
<path d="M19.9678 49.5658C18.3541 49.5658 16.742 49.5674 15.1282 49.5641C14.9199 49.5641 14.7051 49.5691 14.5017 49.5297C14.0589 49.4428 13.8047 49.1591 13.7703 48.7081C13.7342 48.2325 13.9392 47.8831 14.4033 47.7487C14.6395 47.6798 14.8986 47.6781 15.1479 47.6781C18.3524 47.6732 21.5586 47.6749 24.7632 47.6749C24.9092 47.6749 25.0568 47.6683 25.2027 47.6814C25.8079 47.7355 26.1621 48.0931 26.1572 48.6359C26.1523 49.1853 25.8046 49.5395 25.1814 49.5559C24.2597 49.5789 23.338 49.5658 22.4164 49.5658C21.6013 49.5658 20.7846 49.5658 19.9678 49.5658Z" fill="#8A1538"/>
<path d="M20.0301 53.7411C21.6225 53.7411 23.2133 53.7378 24.8058 53.7444C25.0551 53.746 25.3847 53.6968 25.5356 53.8313C25.8013 54.0691 26.1096 54.4299 26.1129 54.7415C26.1161 55.0187 25.7701 55.3549 25.4995 55.5582C25.3306 55.6845 25.0141 55.6304 24.7648 55.632C21.5602 55.6353 18.3557 55.6337 15.1511 55.6337C15.0461 55.6337 14.9412 55.637 14.8362 55.6304C14.131 55.596 13.7538 55.2565 13.7669 54.6677C13.7784 54.1068 14.1474 53.7788 14.8149 53.7444C14.9822 53.7362 15.1495 53.7411 15.3167 53.7411C16.8879 53.7411 18.459 53.7411 20.0301 53.7411Z" fill="#8A1538"/>
<path d="M58.0552 66.4725C56.1872 66.4593 54.3209 66.4692 52.4529 66.4675C52.225 66.4675 51.9986 66.4675 51.7313 66.4675C51.7313 63.732 51.7313 61.049 51.7313 58.2692C52.5349 58.2692 53.3451 58.2692 54.1553 58.2692C55.8149 58.2675 56.3709 57.705 56.3725 56.0322C56.3742 55.0236 56.3824 54.0134 56.3693 53.0048C56.3545 51.7928 55.7247 51.1385 54.5062 51.1007C53.5894 51.0729 52.6727 51.0958 51.7231 51.0958C51.7231 48.7457 51.7231 46.4595 51.7231 44.1422H49.7682C49.7682 46.4661 49.7682 48.7506 49.7682 51.0925C48.8826 51.0925 48.0282 51.0893 47.1738 51.0942C46.398 51.0975 45.6207 51.0794 44.8466 51.1303C44.3136 51.1647 44.0086 51.5255 44.0184 52.0618C44.0282 52.5964 44.3431 52.9097 44.8778 52.9703C45.086 52.9933 45.296 52.9851 45.5059 52.9851C48.2332 52.9867 50.9605 52.9851 53.6878 52.9851C53.9338 52.9851 54.1799 52.9851 54.4422 52.9851C54.4422 54.1495 54.4422 55.2319 54.4422 56.3783C54.1569 56.3783 53.9109 56.3783 53.6632 56.3783C48.7744 56.3783 43.8856 56.3783 38.9984 56.3783C37.8389 56.3783 37.5798 56.6357 37.5781 57.7723C37.5781 58.3512 37.5781 58.9317 37.5781 59.655C35.3953 57.9559 33.324 56.3422 31.1985 54.6891C33.3453 53.0195 35.415 51.4091 37.5798 49.7248C37.5798 50.5841 37.5683 51.2779 37.583 51.9699C37.5978 52.6063 37.9176 52.9507 38.5474 52.9736C39.2804 52.9999 40.0168 52.9966 40.7499 52.9769C41.3846 52.9605 41.7372 52.6259 41.7568 52.0815C41.7765 51.5107 41.419 51.1417 40.7646 51.1024C40.353 51.0778 39.9397 51.0975 39.4674 51.0975C39.4674 50.5382 39.4658 50.0577 39.4674 49.5788C39.4707 48.8228 39.1902 48.2225 38.4965 47.8765C37.8044 47.5305 37.1566 47.6518 36.558 48.1192C34.3572 49.8363 32.1481 51.5435 29.9554 53.2721C28.9665 54.0511 28.9452 55.3073 29.9226 56.0814C32.1284 57.8264 34.3555 59.5451 36.5744 61.272C37.1534 61.7214 37.7897 61.8362 38.4604 61.5197C39.1607 61.19 39.4625 60.598 39.4658 59.8387C39.469 59.3401 39.4658 58.8399 39.4658 58.3135C42.9393 58.3135 46.3456 58.3135 49.7666 58.3135C49.7666 61.0375 49.7666 63.7205 49.7666 66.4708C49.4681 66.4708 49.2008 66.4708 48.9351 66.4708C38.8229 66.4708 28.7106 66.4708 18.5968 66.4708C16.8731 66.4708 16.409 66.9399 16.409 68.6848C16.409 70.3461 16.4303 72.0058 16.4024 73.6671C16.3647 75.8811 14.3869 77.3817 12.3713 76.7536C11.0282 76.3354 10.1672 75.1136 10.1622 73.5737C10.154 70.6315 10.1622 67.6877 10.1573 64.7439C10.1557 63.9993 9.80308 63.5795 9.21432 63.5861C8.65672 63.5926 8.27624 64.0174 8.2746 64.7013C8.26804 67.75 8.2254 70.7988 8.29264 73.8459C8.33856 75.9402 9.40784 77.4555 11.3004 78.3575C11.6907 78.5429 12.1204 78.6478 12.532 78.7905C26.8837 78.7905 41.2353 78.7905 55.587 78.7905C56.0757 78.615 56.5906 78.492 57.0482 78.2559C58.7997 77.3571 59.7673 75.891 59.8395 73.9312C59.9117 71.9993 59.8723 70.0641 59.8543 68.1305C59.8493 67.0743 59.1901 66.4807 58.0552 66.4725ZM57.9732 73.677C57.9551 75.5449 56.6087 76.8914 54.7374 76.8914C42.4014 76.8979 30.0669 76.8947 17.7308 76.893C17.5931 76.893 17.4553 76.8783 17.2028 76.8635C18.3163 75.4679 18.336 73.8984 18.3048 72.3109C18.2802 71.0317 18.2999 69.7508 18.2999 68.4142C31.5216 68.4142 44.7023 68.4142 57.9272 68.4142C57.942 68.5438 57.9732 68.6815 57.9732 68.8209C57.9781 70.4396 57.9896 72.0583 57.9732 73.677Z" fill="#8A1538"/>
<path d="M30.0833 36.859C27.9087 35.1436 25.7143 33.4511 23.5299 31.7471C22.9313 31.2797 22.2851 31.1502 21.5897 31.4831C20.8911 31.8176 20.5992 32.4146 20.5992 33.1723C20.5992 33.6692 20.5992 34.1661 20.5992 34.6827C17.0912 34.6827 13.662 34.6827 10.1639 34.6827C10.1639 34.3957 10.1639 34.1497 10.1639 33.9037C10.1639 29.5741 10.1573 25.2429 10.1671 20.9133C10.1704 19.2569 10.2934 17.5841 9.08145 16.1376C9.28809 16.1163 9.36517 16.1015 9.44389 16.1015C20.9829 16.1015 32.522 16.0966 44.061 16.1064V14.2057C30.8246 14.2057 17.5881 14.2057 4.35169 14.2057C4.30085 14.2385 4.25329 14.2877 4.19753 14.3024C1.54401 14.9994 0.125414 16.81 0.112294 19.5406C0.104094 21.2019 0.107374 22.8616 0.112294 24.5229C0.115574 25.9497 0.678094 26.5204 2.08849 26.5254C3.91381 26.5303 5.73913 26.527 7.56445 26.527C7.78585 26.527 8.00561 26.527 8.23521 26.527C8.23521 29.3019 8.23521 31.9816 8.23521 34.727C7.29877 34.727 6.40005 34.7106 5.50297 34.7303C4.37137 34.7549 3.71701 35.4158 3.69897 36.5507C3.68257 37.6232 3.69241 38.6942 3.69405 39.7667C3.69733 41.2854 4.30577 41.8922 5.83917 41.9004C6.62965 41.9053 7.41849 41.902 8.27293 41.902C8.27293 42.2267 8.27293 42.4744 8.27293 42.722C8.27293 48.439 8.27293 54.1577 8.27457 59.8748C8.27457 60.1257 8.26637 60.3848 8.32869 60.6242C8.45333 61.1146 8.80921 61.3786 9.30613 61.3311C9.79485 61.2852 10.1081 60.9867 10.1507 60.4701C10.1688 60.2618 10.1606 60.0502 10.1606 59.8403C10.1606 54.1233 10.1606 48.4046 10.1606 42.6876C10.1606 42.4448 10.1606 42.2021 10.1606 41.9479C13.6849 41.9479 17.1142 41.9479 20.5959 41.9479C20.5959 42.4498 20.6025 42.909 20.5943 43.3682C20.5811 44.1488 20.8599 44.7687 21.5799 45.1246C22.3031 45.4821 22.9591 45.3066 23.5692 44.8294C25.7373 43.1386 27.9136 41.4576 30.0751 39.7585C31.1165 38.9418 31.1231 37.679 30.0833 36.859ZM8.22537 24.6328C7.13969 24.6328 6.07533 24.6328 5.01097 24.6328C4.17293 24.6328 3.33325 24.623 2.49521 24.6377C2.16885 24.6426 1.99009 24.5754 1.99501 24.1916C2.01141 22.5106 1.95729 20.8296 2.02125 19.1519C2.09013 17.3627 3.49725 16.0704 5.21761 16.1015C6.92977 16.1343 8.25161 17.5004 8.27129 19.2913C8.28933 20.9084 8.27621 22.5254 8.27457 24.1441C8.27293 24.2818 8.24669 24.4245 8.22537 24.6328ZM22.4868 43.273C22.4868 42.494 22.4901 41.8692 22.4868 41.2444C22.4819 40.3096 22.1867 40.0111 21.2371 40.0111C16.2876 40.0078 11.3381 40.0094 6.38857 40.0094C6.14257 40.0094 5.89493 40.0094 5.62105 40.0094C5.62105 38.8516 5.62105 37.7708 5.62105 36.6163C5.90149 36.6163 6.14749 36.6163 6.39185 36.6163C11.2791 36.6163 16.1663 36.6163 21.0518 36.6163C22.2392 36.6163 22.4868 36.3654 22.4885 35.1731C22.4885 34.6122 22.4885 34.0497 22.4885 33.3363C24.6647 35.0304 26.7344 36.6425 28.8697 38.3038C26.7393 39.9602 24.6779 41.5674 22.4868 43.273Z" fill="#8A1538"/>
<path d="M44.927 36.2309C44.927 31.5077 44.927 26.8796 44.927 22.1531C43.3641 22.1531 41.8274 22.1531 40.2907 22.1531C39.7839 22.1531 39.2772 22.1433 38.7704 22.1547C38.121 22.1711 37.6142 21.9432 37.3699 21.3134C37.1206 20.6722 37.3928 20.1835 37.8783 19.7653C40.2382 17.7267 42.5933 15.6817 44.9499 13.6399C48.8187 10.2893 52.6875 6.93883 56.5546 3.58667C57.5484 2.72567 57.9617 2.72403 58.967 3.59651C65.1318 8.93799 71.2965 14.2811 77.4646 19.6177C77.9992 20.0801 78.4305 20.5689 78.1271 21.3315C77.8434 22.0432 77.2448 22.1646 76.556 22.158C74.588 22.1416 72.62 22.1515 70.6012 22.1515C70.6012 26.855 70.6012 31.5011 70.6012 36.2292C70.9899 36.2292 71.3556 36.2177 71.7197 36.2309C72.5823 36.2637 73.0874 36.7196 73.1005 37.5576C73.1251 39.237 73.1251 40.9163 73.0989 42.5957C73.0858 43.3944 72.5839 43.8667 71.7771 43.8979C71.1375 43.9241 70.4979 43.9044 69.8583 43.9044C61.327 43.9044 52.7957 43.9044 44.2644 43.9044C42.7491 43.9044 42.3981 43.5469 42.3965 42.0119C42.3965 40.6786 42.3948 39.3452 42.3965 38.0135C42.3981 36.6064 42.7753 36.2358 44.207 36.2259C44.4202 36.2292 44.6318 36.2309 44.927 36.2309ZM67.9919 36.1931C67.9919 31.3568 68.0001 26.6155 67.9706 21.8743C67.969 21.5939 67.7246 21.2478 67.495 21.0461C64.4495 18.3778 61.3876 15.7292 58.3291 13.0773C58.1519 12.9248 57.9601 12.7903 57.7616 12.6362C57.6222 12.7346 57.5091 12.8018 57.4107 12.8855C54.2291 15.6407 51.0409 18.3893 47.8823 21.1691C47.6543 21.3692 47.5329 21.8054 47.5313 22.1334C47.5083 26.5827 47.5149 31.0321 47.5182 35.4797C47.5182 35.711 47.5444 35.9422 47.5592 36.1718C49.2746 36.1718 50.9343 36.1718 52.6383 36.1718C52.6383 34.4137 52.6137 32.7098 52.6432 31.0091C52.6891 28.4097 54.6768 26.2711 57.245 26.0104C59.8395 25.7463 62.3143 27.4749 62.7144 30.0874C62.9703 31.7553 62.8358 33.4839 62.8719 35.1862C62.8784 35.5207 62.8735 35.8553 62.8735 36.1915C64.6283 36.1931 66.2699 36.1931 67.9919 36.1931ZM41.9914 19.5931C43.182 19.5931 44.1168 19.6423 45.0434 19.5717C45.478 19.5389 45.9815 19.3717 46.3062 19.0945C49.7125 16.1868 53.0876 13.243 56.4742 10.3139C57.5747 9.36275 57.9502 9.36767 59.0753 10.3418C62.4405 13.2561 65.8025 16.1737 69.1678 19.0879C69.3679 19.2601 69.5811 19.5439 69.7976 19.5521C70.9669 19.598 72.1395 19.5734 73.5023 19.5734C68.1395 14.9273 62.9506 10.432 57.7534 5.93023C52.5071 10.4796 47.3378 14.9601 41.9914 19.5931ZM70.5143 38.845C61.9682 38.845 53.4861 38.845 45.0205 38.845C45.0205 39.7093 45.0205 40.5178 45.0205 41.3099C53.5485 41.3099 62.0125 41.3099 70.5143 41.3099C70.5143 40.4801 70.5143 39.6913 70.5143 38.845ZM60.2987 36.2145C60.2987 34.3645 60.3594 32.5835 60.279 30.809C60.22 29.5151 59.0047 28.5327 57.7108 28.554C56.3775 28.5753 55.2705 29.62 55.2081 30.9714C55.1671 31.8488 55.1967 32.7295 55.1967 33.6085C55.1967 34.4744 55.1967 35.3403 55.1967 36.2145C56.9449 36.2145 58.5669 36.2145 60.2987 36.2145Z" fill="#8A1538"/>
<path d="M61.5894 19.5423C61.6025 21.6776 59.8822 23.4225 57.7617 23.4258C55.6707 23.4291 53.9405 21.7235 53.9191 19.639C53.8978 17.5136 55.6165 15.7703 57.7485 15.7572C59.8313 15.744 61.5779 17.4644 61.5894 19.5423ZM59.0277 19.5685C59.0163 18.883 58.4373 18.3156 57.7502 18.3172C57.0647 18.3188 56.489 18.8896 56.4792 19.5767C56.4693 20.295 57.0811 20.8953 57.7961 20.8674C58.4816 20.8412 59.0392 20.254 59.0277 19.5685Z" fill="#8A1538"/>
<path d="M52.5775 25.9579C51.7362 25.9579 50.949 25.9579 50.1191 25.9579C50.1191 25.1379 50.1191 24.3507 50.1191 23.4979C50.9047 23.4979 51.7116 23.4979 52.5775 23.4979C52.5775 24.2769 52.5775 25.0838 52.5775 25.9579Z" fill="#8A1538"/>
<path d="M62.9325 23.4651C63.7673 23.4651 64.5545 23.4651 65.3876 23.4651C65.3876 24.3031 65.3876 25.1084 65.3876 25.953C64.5676 25.953 63.7804 25.953 62.9325 25.953C62.9325 25.151 62.9325 24.3458 62.9325 23.4651Z" fill="#8A1538"/>
</svg>
