<svg width="28" height="28" viewBox="0 0 28 28" fill="none" xmlns="http://www.w3.org/2000/svg">
<mask id="mask0_1317_304" style="mask-type:alpha" maskUnits="userSpaceOnUse" x="0" y="0" width="28" height="28">
<rect width="28" height="28" fill="#D9D9D9"/>
</mask>
<g mask="url(#mask0_1317_304)">
<path d="M20.7083 23.625C19.4833 23.625 18.4479 23.2021 17.602 22.3562C16.7562 21.5104 16.3333 20.475 16.3333 19.25C16.3333 18.025 16.7562 16.9896 17.602 16.1438C18.4479 15.2979 19.4833 14.875 20.7083 14.875C21.9333 14.875 22.9687 15.2979 23.8145 16.1438C24.6604 16.9896 25.0833 18.025 25.0833 19.25C25.0833 20.475 24.6604 21.5104 23.8145 22.3562C22.9687 23.2021 21.9333 23.625 20.7083 23.625ZM20.7083 21.2917C21.2722 21.2917 21.7534 21.0924 22.152 20.6937C22.5507 20.2951 22.75 19.8139 22.75 19.25C22.75 18.6861 22.5507 18.2049 22.152 17.8062C21.7534 17.4076 21.2722 17.2083 20.7083 17.2083C20.1444 17.2083 19.6632 17.4076 19.2645 17.8062C18.8659 18.2049 18.6666 18.6861 18.6666 19.25C18.6666 19.8139 18.8659 20.2951 19.2645 20.6937C19.6632 21.0924 20.1444 21.2917 20.7083 21.2917ZM4.66663 20.4167V18.0833H14V20.4167H4.66663ZM7.29163 13.125C6.06663 13.125 5.03121 12.7021 4.18538 11.8562C3.33954 11.0104 2.91663 9.975 2.91663 8.75C2.91663 7.525 3.33954 6.48958 4.18538 5.64375C5.03121 4.79792 6.06663 4.375 7.29163 4.375C8.51663 4.375 9.55204 4.79792 10.3979 5.64375C11.2437 6.48958 11.6666 7.525 11.6666 8.75C11.6666 9.975 11.2437 11.0104 10.3979 11.8562C9.55204 12.7021 8.51663 13.125 7.29163 13.125ZM7.29163 10.7917C7.85551 10.7917 8.33676 10.5924 8.73538 10.1938C9.13399 9.79514 9.33329 9.31389 9.33329 8.75C9.33329 8.18611 9.13399 7.70486 8.73538 7.30625C8.33676 6.90764 7.85551 6.70833 7.29163 6.70833C6.72774 6.70833 6.24649 6.90764 5.84788 7.30625C5.44926 7.70486 5.24996 8.18611 5.24996 8.75C5.24996 9.31389 5.44926 9.79514 5.84788 10.1938C6.24649 10.5924 6.72774 10.7917 7.29163 10.7917ZM14 9.91667V7.58333H23.3333V9.91667H14Z" fill="#A0A0A0"/>
</g>
</svg>
