<svg width="28" height="28" viewBox="0 0 28 28" fill="none" xmlns="http://www.w3.org/2000/svg">
<path d="M17.7917 19.625C16.5667 19.625 15.5313 19.2021 14.6854 18.3562C13.8396 17.5104 13.4167 16.475 13.4167 15.25C13.4167 14.025 13.8396 12.9896 14.6854 12.1438C15.5313 11.2979 16.5667 10.875 17.7917 10.875C19.0167 10.875 20.0521 11.2979 20.8979 12.1438C21.7437 12.9896 22.1667 14.025 22.1667 15.25C22.1667 16.475 21.7437 17.5104 20.8979 18.3562C20.0521 19.2021 19.0167 19.625 17.7917 19.625ZM1.75 16.4167V14.0833H11.0833V16.4167H1.75ZM4.375 9.125C3.15 9.125 2.11458 8.70208 1.26875 7.85625C0.422917 7.01042 0 5.975 0 4.75C0 3.525 0.422917 2.48958 1.26875 1.64375C2.11458 0.797917 3.15 0.375 4.375 0.375C5.6 0.375 6.63542 0.797917 7.48125 1.64375C8.32708 2.48958 8.75 3.525 8.75 4.75C8.75 5.975 8.32708 7.01042 7.48125 7.85625C6.63542 8.70208 5.6 9.125 4.375 9.125ZM11.0833 5.91667V3.58333H20.4167V5.91667H11.0833Z" fill="#8A1538"/>
</svg>
