<svg width="30" height="26" viewBox="0 0 30 26" fill="none" xmlns="http://www.w3.org/2000/svg">
<path d="M23.625 25.375C22.05 25.375 20.7188 24.8313 19.6313 23.7438C18.5438 22.6562 18 21.325 18 19.75C18 18.175 18.5438 16.8438 19.6313 15.7563C20.7188 14.6688 22.05 14.125 23.625 14.125C25.2 14.125 26.5312 14.6688 27.6188 15.7563C28.7063 16.8438 29.25 18.175 29.25 19.75C29.25 21.325 28.7063 22.6562 27.6188 23.7438C26.5312 24.8313 25.2 25.375 23.625 25.375ZM23.625 22.375C24.35 22.375 24.9688 22.1187 25.4813 21.6063C25.9938 21.0938 26.25 20.475 26.25 19.75C26.25 19.025 25.9938 18.4062 25.4813 17.8937C24.9688 17.3813 24.35 17.125 23.625 17.125C22.9 17.125 22.2812 17.3813 21.7687 17.8937C21.2563 18.4062 21 19.025 21 19.75C21 20.475 21.2563 21.0938 21.7687 21.6063C22.2812 22.1187 22.9 22.375 23.625 22.375ZM3 21.25V18.25H15V21.25H3ZM6.375 11.875C4.8 11.875 3.46875 11.3313 2.38125 10.2437C1.29375 9.15625 0.75 7.825 0.75 6.25C0.75 4.675 1.29375 3.34375 2.38125 2.25625C3.46875 1.16875 4.8 0.625 6.375 0.625C7.95 0.625 9.28125 1.16875 10.3687 2.25625C11.4563 3.34375 12 4.675 12 6.25C12 7.825 11.4563 9.15625 10.3687 10.2437C9.28125 11.3313 7.95 11.875 6.375 11.875ZM6.375 8.875C7.1 8.875 7.71875 8.61875 8.23125 8.10625C8.74375 7.59375 9 6.975 9 6.25C9 5.525 8.74375 4.90625 8.23125 4.39375C7.71875 3.88125 7.1 3.625 6.375 3.625C5.65 3.625 5.03125 3.88125 4.51875 4.39375C4.00625 4.90625 3.75 5.525 3.75 6.25C3.75 6.975 4.00625 7.59375 4.51875 8.10625C5.03125 8.61875 5.65 8.875 6.375 8.875ZM15 7.75V4.75H27V7.75H15Z" fill="#676767"/>
</svg>
