<svg xmlns="http://www.w3.org/2000/svg" xmlns:xlink="http://www.w3.org/1999/xlink" id="Layer_2_00000061468001281605670110000015052477526920447423_" x="0px" y="0px" viewBox="0 0 100 100" style="enable-background:new 0 0 100 100;" xml:space="preserve"><style type="text/css">	.st0{fill:#8A1538;}	.st1{fill:#0D4261;}	.st2{fill:none;}</style><g id="Layer_1-2">	<g>		<g>			<g>				<path class="st0" d="M72.4,70.9c-7.2,0-13-5.8-13-13s5.9-13,13-13s13.1,5.8,13.1,13S79.6,70.9,72.4,70.9z M72.4,48.1     c-5.3,0-9.7,4.4-9.7,9.7s4.4,9.7,9.7,9.7s9.7-4.4,9.7-9.7S77.8,48.1,72.4,48.1z"></path>				<path class="st0" d="M98.3,100H46.5v-8.2c0-5,1.5-9.7,4.3-13.8c1.9-2.8,4.5-5.2,7.5-7c2.3-1.4,4.9-2.4,7.6-3     c1.6-0.3,3.2-0.5,4.8-0.5H74c1.6,0,3.2,0.2,4.7,0.5C90,70.2,98.2,80.2,98.2,91.8L98.3,100L98.3,100L98.3,100z M49.9,96.7H95     v-4.9c0-9.9-6.9-18.4-16.6-20.4c0.4,0.5,0.5,1.2,0.2,1.8L76,78.4h-7.4l-2.5-5.2c-0.3-0.6-0.2-1.3,0.2-1.8     c-2.2,0.5-4.3,1.3-6.2,2.5c-2.5,1.5-4.8,3.6-6.4,6c-2.5,3.5-3.7,7.6-3.7,11.9L49.9,96.7L49.9,96.7z M70.6,75h3.2l1.7-3.4     c0.1-0.3,0.3-0.5,0.6-0.7c-0.7-0.1-1.4-0.1-2.1-0.1h-3.3c-0.8,0-1.5,0-2.3,0.1c0.2,0.2,0.5,0.4,0.6,0.7L70.6,75L70.6,75z"></path>				<path class="st1" d="M76,78.3h-7.4l-4-8.5c-0.4-0.8,0-1.8,0.8-2.2s1.8,0,2.2,0.8l3.1,6.5h3.2l3.3-6.6c0.4-0.8,1.4-1.2,2.2-0.8     c0.8,0.4,1.2,1.4,0.8,2.2L76,78.3L76,78.3z"></path>				<path class="st1" d="M72,100L72,100c-0.5,0-0.9-0.2-1.2-0.5l-6-6.4c-0.4-0.4-0.5-1-0.4-1.5L68,76.3c0.2-0.9,1.1-1.5,2-1.3     s1.5,1.1,1.3,2L68,91.4l4.2,4.5l4.8-4.7l-3.1-14.1c-0.2-0.9,0.4-1.8,1.3-2s1.8,0.4,2,1.3l3.3,15c0.1,0.6-0.1,1.2-0.4,1.6     l-6.7,6.6C72.9,99.8,72.5,100,72,100L72,100L72,100z"></path>				<path class="st0" d="M57.2,100c-0.9,0-1.7-0.8-1.7-1.7V86.1c0-0.9,0.8-1.7,1.7-1.7s1.7,0.8,1.7,1.7v12.2     C58.9,99.2,58.1,100,57.2,100z"></path>				<path class="st0" d="M87.3,100c-0.9,0-1.7-0.8-1.7-1.7V86.1c0-0.9,0.8-1.7,1.7-1.7s1.7,0.8,1.7,1.7v12.2     C89,99.2,88.3,100,87.3,100z"></path>			</g>			<g>				<path class="st1" d="M52.2,80.6H3.8v-9.9h55.4V74h-52v3.2h45.1C52.2,77.2,52.2,80.6,52.2,80.6z"></path>				<path class="st1" d="M71,35.9h3.3v10.6H71V35.9z"></path>				<path class="st1" d="M59.2,74.1H11.4V35.5h3.4v35.3h44.4V74.1z"></path>				<path class="st1" d="M8.6,41.2l-6.9-9L42.8,0L84,32.1l-7.7,9L42.8,13.9L8.6,41.2z M42.9,9.6L76,36.5l3.3-3.8L42.8,4.3L6.4,32.8     l2.8,3.7L42.9,9.6z"></path>				<path class="st0" d="M74.1,25.2h-3.3V4.7H61c0,4.2,0,9.6,0,10.1l-1.6,0.1l-1.1,1.4c-0.5-0.4-0.7-4.8-0.7-13.3V1.3H74L74.1,25.2     L74.1,25.2L74.1,25.2z"></path>				<path class="st0" d="M35.1,72.4h-3.4V39.6h21.6V72H50V43H35.1V72.4z"></path>				<path class="st0" d="M42.8,36.8c-3.9,0-7.2-3.2-7.2-7.1s3.2-7.1,7.2-7.1s7.2,3.2,7.2,7.1S46.7,36.8,42.8,36.8z M42.8,25.8     c-2.1,0-3.8,1.7-3.8,3.8s1.7,3.8,3.8,3.8s3.8-1.7,3.8-3.8S44.9,25.8,42.8,25.8z"></path>			</g>		</g>		<rect y="0" class="st2" width="100" height="100"></rect>	</g></g></svg>