<svg xmlns="http://www.w3.org/2000/svg" xmlns:xlink="http://www.w3.org/1999/xlink" id="Layer_2_00000133510179093638638550000009373635907669818757_" x="0px" y="0px" viewBox="0 0 100 100" style="enable-background:new 0 0 100 100;" xml:space="preserve"><style type="text/css">	.st0{fill:#8A1538;}	.st1{fill:#0D4261;}</style><g id="Layer_1-2">	<g>		<path class="st0" d="M88.6,81.1c0,0-6.6-1.4-8.2-2c-1.6-0.5-2.9-1.7-3.7-3.2c5.9-2.9,9-9.7,9.5-16.5v-0.5h2.1   c1.1,0,1.9-0.9,1.9-1.9S89.2,55,88.1,55h-1.3l-0.2-1.5c-0.5-4.8-3.8-8.9-8.4-10.2l-2.2-0.7V42c0-1-0.8-1.9-1.9-1.9h-7.9   c-1.1,0-1.9,0.8-1.9,1.9v0.6l-2.2,0.7c-4.6,1.4-7.9,5.4-8.4,10.2L53.6,55h-1.2c-1,0-1.9,0.9-1.9,1.9s0.8,1.9,1.9,1.9h2.1v0.7   c0.5,6.7,3.6,13.5,9.5,16.3c-0.8,1.6-2.1,2.7-3.8,3.3c-1.7,0.5-8.2,2-8.2,2l0,0l0,0c-1,0.2-9.2,2.3-10.2,9.1   c-0.5,3.9-1.2,7.6-1.2,7.6c-0.1,0.6,0.1,1.1,0.4,1.6c0.4,0.4,0.9,0.7,1.5,0.7h55.7c0.6,0,1.1-0.2,1.4-0.7s0.5-1,0.4-1.6   c0,0-0.7-3.7-1.2-7.6C97.8,83.3,89.5,81.3,88.6,81.1L88.6,81.1L88.6,81.1z M88.2,85v11.2h-7.5l3-12.3C84.8,84.2,87.9,84.9,88.2,85   z M77.2,46.9c3.2,0.9,5.4,3.7,5.7,7l0.1,1.1h-6.9v-8.4C76.1,46.6,77.2,46.9,77.2,46.9z M72.3,44V55h-4.2l0-11.1   C68.2,44,72.3,44,72.3,44z M57.5,53.9c0.3-3.3,2.6-6,5.7-6.9l1.1-0.3l0,8.4h-7L57.5,53.9L57.5,53.9z M58.3,59.4v-0.5h24v0.4   c-0.5,7.1-4.4,14.2-12,14.2S58.8,66.3,58.3,59.4L58.3,59.4L58.3,59.4z M70.3,77.3c0.9,0,1.8-0.1,2.7-0.2c0.4,1.1,1.1,2.1,1.9,2.9   l-4.5,3.7l-4.6-3.7c0.7-0.8,1.3-1.8,1.8-2.9C68.4,77.2,69.3,77.3,70.3,77.3z M56.8,83.9l3.1,12.3h-7.7V84.9   C52.6,84.8,55.8,84.1,56.8,83.9C56.8,83.9,56.8,83.9,56.8,83.9z M45.5,90.7c0.3-1.8,1.5-3.1,3-4.1v9.5h-3.8   C44.9,94.7,45.2,92.7,45.5,90.7C45.5,90.7,45.5,90.7,45.5,90.7z M63.8,96.2L60.5,83c0.3-0.1,1.7-0.5,2.1-0.7l6.5,5.3   c0.3,0.3,0.8,0.4,1.2,0.4s0.8-0.1,1.2-0.4l6.4-5.3c0.4,0.2,1.8,0.6,2,0.7l-3.2,13.2L63.8,96.2L63.8,96.2z M95,90.7   c0.3,2,0.6,4,0.8,5.5H92v-9.5C93.5,87.6,94.8,88.9,95,90.7z"></path>		<path class="st1" d="M31.6,98.1c0-1.1-0.9-1.9-1.9-1.9H5.1c-0.7,0-1.3-0.6-1.3-1.3V29.1c0-0.3,0.1-0.7,0.3-0.9l24-24   c0.5-0.5,1.2-0.5,1.7,0L53.2,28c0,0.1,0,11.5,0,11.5c0,1,0.8,1.9,1.9,1.9s1.9-0.9,1.9-1.9V28.7c0-0.8,0.1-2.1-1-3.2l-23.5-24   c-1.9-1.9-5.1-1.9-7,0l-24,24C0.5,26.4,0,27.7,0,29.1v65.8c0,2.8,2.3,5.1,5.1,5.1h24.7C30.8,100,31.6,99.1,31.6,98.1L31.6,98.1z"></path>		<path class="st0" d="M39.9,65.6h-7c-1,0-1.9,0.9-1.9,1.9s0.9,1.9,1.9,1.9h7c1,0,1.9-0.9,1.9-1.9S40.9,65.6,39.9,65.6z"></path>		<path class="st0" d="M22.1,65.6h-7c-1.1,0-1.9,0.9-1.9,1.9s0.9,1.9,1.9,1.9h7c1,0,1.9-0.9,1.9-1.9S23.2,65.6,22.1,65.6z"></path>		<path class="st1" d="M39.9,77.8h-7c-1,0-1.9,0.9-1.9,1.9s0.9,1.9,1.9,1.9h7c1,0,1.9-0.9,1.9-1.9S40.9,77.8,39.9,77.8z"></path>		<path class="st1" d="M22.1,77.8h-7c-1.1,0-1.9,0.9-1.9,1.9s0.9,1.9,1.9,1.9h7c1,0,1.9-0.9,1.9-1.9S23.2,77.8,22.1,77.8z"></path>		<path class="st1" d="M39.9,52.9h-7c-1,0-1.9,0.9-1.9,1.9s0.9,1.9,1.9,1.9h7c1,0,1.9-0.9,1.9-1.9S40.9,52.9,39.9,52.9z"></path>		<path class="st1" d="M22.1,52.9h-7c-1.1,0-1.9,0.9-1.9,1.9s0.9,1.9,1.9,1.9h7c1,0,1.9-0.9,1.9-1.9S23.2,52.9,22.1,52.9z"></path>		<path class="st0" d="M39.9,39.9h-7c-1,0-1.9,0.9-1.9,1.9s0.9,1.9,1.9,1.9h7c1,0,1.9-0.9,1.9-1.9S40.9,39.9,39.9,39.9z"></path>		<path class="st0" d="M22.1,39.9h-7c-1.1,0-1.9,0.9-1.9,1.9s0.9,1.9,1.9,1.9h7c1,0,1.9-0.9,1.9-1.9S23.2,39.9,22.1,39.9z"></path>	</g></g></svg>