<svg width="69" height="62" viewBox="0 0 69 62" fill="none" xmlns="http://www.w3.org/2000/svg">
<path d="M9.49577 0.421331C7.96101 1.11348 7.84063 1.77553 7.93091 10.5327L8.01217 17.6046C8.01818 18.1042 8.42444 18.5074 8.92399 18.5074H8.93001C9.42655 18.5074 9.83281 18.1102 9.84184 17.6107L9.97726 10.5327L10.1097 3.44873C10.1187 2.9552 10.522 2.55796 11.0155 2.55194L30.528 2.40749C48.2229 2.28712 50.9614 2.19684 51.2022 1.80563C51.6235 1.14357 51.5633 0.993107 50.841 0.48152C50.2392 0.0602112 47.8016 2.47955e-05 30.2873 2.47955e-05C14.3709 0.0301189 10.2481 0.0903053 9.49577 0.421331Z" fill="white"/>
<path d="M54.8765 0.481499C54.5154 0.722244 54.2145 1.05327 54.2145 1.20374C54.2145 1.8357 55.2376 2.40747 56.3511 2.40747H57.5247V13.4818V24.5261L54.8163 33.1629C53.3417 37.9176 52.1079 42.1909 52.1079 42.6724C52.1079 43.1539 52.3788 43.9062 52.7399 44.3576C53.3117 45.11 53.3417 45.2604 52.9806 46.6748C52.6195 48.0892 52.6195 48.2397 53.1311 48.6309C53.9436 49.2027 54.6358 48.7212 55.0872 47.2767C55.2677 46.5845 55.4784 46.0429 55.5085 46.0429C55.5386 46.0429 56.0201 45.9225 56.5617 45.772L57.5247 45.4711V52.9944V60.4877H52.4389C47.4735 60.4877 47.293 60.5178 46.4805 61.2099L45.6378 61.9322L45.5476 67.3791L45.4573 72.826L27.7925 72.7658L10.1277 72.6755L10.0374 70.7796L9.94711 68.9138H12.9865C16.2667 68.9138 17.8316 68.4925 18.3733 67.4693C18.5839 67.0781 18.7043 64.4299 18.7043 60.3673V53.8671H19.4265C20.3293 53.8671 21.1117 53.1449 21.1117 52.2722C21.1117 51.8208 19.3663 49.8647 15.5445 46.0429L9.9772 40.4756V31.2068C9.9772 22.9011 9.91702 21.9381 9.49571 21.7575C9.22487 21.6672 8.77347 21.6973 8.50263 21.8779C8.08132 22.1487 8.02113 23.202 7.93085 30.1837L7.87067 38.1885L7.11833 37.8575C6.42618 37.5565 6.00488 37.9176 -0.705944 44.3877C-4.67827 48.2397 -7.86817 51.58 -7.95845 51.9713C-8.19919 52.8741 -7.35658 53.8671 -6.39359 53.8671H-5.70144L-5.61116 60.4877L-5.44866 67.0631L-5.37042 67.4874C-5.15976 68.02 -4.73545 68.4383 -4.19677 68.64L-3.86575 68.7634L2.00246 68.8536L7.87067 68.9439V70.9C7.87067 73.4278 8.41235 74.5112 9.91702 74.9325C10.6693 75.1732 16.7181 75.2334 29.2069 75.1732L47.3833 75.083L53.5223 68.7634L59.6313 62.4437V51.8208V41.1677L61.9184 33.9152C65.4092 22.6904 65.349 22.9011 65.8004 23.0515C66.8236 23.4427 66.7935 24.7368 65.7402 28.2577C64.6569 31.8689 64.717 32.6212 66.0712 32.4407C66.5828 32.3805 66.9139 31.7184 67.8167 29.0401C68.4185 27.2044 68.9301 25.3386 68.9301 24.8872C68.9602 23.834 67.9671 21.8478 67.0944 21.2158C66.5226 20.8246 66.4023 20.4635 66.4023 19.1394C66.4023 17.1532 65.6499 16.1902 63.7541 15.6486C62.2494 15.2573 60.9855 15.5884 60.1729 16.6416C59.6614 17.2736 59.6313 16.9727 59.6313 9.69006C59.6313 4.81494 59.5109 1.8357 59.3002 1.44448C58.9391 0.782433 57.3141 0 56.2608 0C55.8696 0 55.2376 0.210655 54.8765 0.481499ZM63.9647 18.2065C64.3559 18.5977 64.3559 18.8385 63.9948 19.9519C63.7541 20.6441 62.8212 23.6233 61.8883 26.5724C60.5341 30.8457 60.0827 31.899 59.7215 31.7786C59.4808 31.6883 58.9391 31.5078 58.5479 31.4175C58.1567 31.3272 57.8257 31.1767 57.8257 31.0865C57.8257 30.8457 61.798 18.2366 61.9484 17.9657C62.1892 17.5745 63.4832 17.725 63.9647 18.2065ZM58.7586 33.7949L59.541 34.156L58.7886 36.5334L58.0664 38.8806L57.1335 38.7001C56.6219 38.5797 56.0802 38.3991 55.9298 38.2487C55.7793 38.0982 55.9298 37.0149 56.321 35.6907C57.0432 33.2532 57.2539 33.1027 58.7586 33.7949ZM17.8015 51.5198C17.8015 51.6402 12.6856 51.7606 6.45628 51.7606H-4.91902L0.768632 46.073L6.45628 40.3853L12.1439 45.8322C15.2435 48.8114 17.8015 51.3694 17.8015 51.5198ZM56.5015 40.8066C57.3141 41.0173 57.3743 41.3182 56.8928 42.7025C56.5316 43.7257 55.6589 43.9363 54.6959 43.2442C54.2145 42.8831 54.2145 42.7025 54.5154 41.5589C54.7561 40.596 54.9668 40.3251 55.3279 40.4455C55.5687 40.5358 56.1103 40.7163 56.5015 40.8066ZM16.5376 60.0965L16.4473 66.3559L13.9796 66.4462L11.4819 66.5364V62.4437C11.4819 57.057 11.6022 57.1774 6.60674 57.1774C1.67143 57.1774 1.85199 56.9667 1.85199 62.3535V66.5063H-0.705944H-3.26388V60.1867V53.8671H6.66693H16.5977L16.5376 60.0965ZM9.0744 62.8951V66.5063H6.51647H3.95853V62.8951V59.2839H6.51647H9.0744V62.8951ZM52.8603 66.2656C50.9042 68.3119 48.9782 70.2981 48.587 70.7194L47.8948 71.4718V67.0179V62.5942H52.1681H56.4113L52.8603 66.2656Z" fill="white"/>
<path d="M17.8315 9.81042C17.2899 10.5026 17.1996 11.0442 17.1996 13.7526C17.1996 16.6717 17.2598 16.9425 17.9519 17.6046L18.6742 18.3569H33.8412H49.0083L49.6402 17.6648C50.2421 17.0328 50.3023 16.6416 50.3023 13.6022C50.3023 10.6229 50.2421 10.1715 49.7004 9.62986C49.1286 9.05808 48.7073 9.02799 33.781 9.02799H18.4334L17.8315 9.81042ZM48.1958 13.6925V16.2504H33.7509H19.3061V13.6925V11.1345H33.7509H48.1958V13.6925Z" fill="white"/>
<path d="M17.5005 25.4288C17.32 25.6696 17.1996 26.0909 17.2598 26.3918C17.3501 26.9034 18.1927 26.9335 32.9986 26.9335C47.8046 26.9335 48.6472 26.9034 48.7375 26.3918C49.0083 24.9774 49.0986 24.9774 32.9986 24.9774C20.1488 24.9774 17.8316 25.0376 17.5005 25.4288Z" fill="white"/>
<path d="M17.5607 31.9591C17.019 32.5008 17.1393 33.3434 17.7713 33.7045C18.5838 34.1258 47.4133 34.1258 48.2258 33.7045C48.8578 33.3434 48.9781 32.5008 48.4365 31.9591C47.9249 31.4475 18.0722 31.4475 17.5607 31.9591Z" fill="white"/>
<path d="M17.4705 38.3991C17.1997 38.7301 17.1696 39.0009 17.4103 39.3621C17.6812 39.8135 18.6441 39.8737 26.5587 39.8737H35.4061V38.9709V38.0681L26.649 37.9778C18.915 37.9176 17.8316 37.9778 17.4705 38.3991Z" fill="white"/>
<path d="M30.5009 48.8415C30.3204 49.0522 29.6282 50.7374 28.9662 52.5731C27.9731 55.3417 27.8226 56.0038 28.1536 56.4251C28.575 57.0269 29.5079 56.9367 29.869 56.2746C30.0194 56.0339 30.3204 55.3417 30.531 54.7699L30.9523 53.7167L31.3135 54.9204C31.7047 56.094 32.3667 56.8765 32.9686 56.8765C33.1491 56.8765 34.1121 55.9737 35.1353 54.8602L37.0011 52.844L38.1446 53.837C40.5521 55.9436 42.117 56.0639 44.4342 54.2884C45.1865 53.7167 45.9388 53.2653 46.1194 53.2653C46.2999 53.2653 46.8416 53.5963 47.3532 54.0176C49.3093 55.6727 54.1242 54.5292 52.6497 52.7537C52.3788 52.4226 51.9274 52.3625 50.844 52.5129C49.55 52.6935 49.219 52.6333 48.1657 51.881C46.631 50.8277 45.5175 50.8277 43.9828 51.9412C43.2906 52.4226 42.5684 52.9342 42.3577 53.0847C41.6656 53.5662 40.522 53.0245 38.9873 51.4597C38.1747 50.6471 37.302 49.955 37.0011 49.955C36.7303 49.955 35.7673 50.7976 34.8645 51.8208L33.2394 53.6565L32.7278 51.4597C32.0959 48.6008 31.3736 47.7582 30.5009 48.8415Z" fill="white"/>
</svg>
