<svg width="29" height="28" viewBox="0 0 29 28" fill="none" xmlns="http://www.w3.org/2000/svg">
<mask id="mask0_1321_415" style="mask-type:alpha" maskUnits="userSpaceOnUse" x="0" y="0" width="29" height="28">
<rect x="0.0834961" width="28" height="28" fill="#D9D9D9"/>
</mask>
<g mask="url(#mask0_1321_415)">
<path d="M16.7084 24.9666C16.2612 25.4138 15.707 25.6374 15.0459 25.6374C14.3848 25.6374 13.8306 25.4138 13.3834 24.9666L3.11675 14.6999C2.90286 14.486 2.73272 14.2333 2.60633 13.9416C2.47994 13.6499 2.41675 13.3388 2.41675 13.0083V4.66659C2.41675 4.02492 2.64522 3.47561 3.10216 3.01867C3.55911 2.56172 4.10841 2.33325 4.75008 2.33325H13.0917C13.4223 2.33325 13.7334 2.39645 14.0251 2.52284C14.3167 2.64922 14.5695 2.81936 14.7834 3.03325L25.0501 13.3291C25.4973 13.7763 25.7209 14.3256 25.7209 14.977C25.7209 15.6284 25.4973 16.1777 25.0501 16.6249L16.7084 24.9666ZM7.66675 9.33325C8.15286 9.33325 8.56605 9.16311 8.90633 8.82284C9.24661 8.48256 9.41675 8.06936 9.41675 7.58325C9.41675 7.09714 9.24661 6.68395 8.90633 6.34367C8.56605 6.00339 8.15286 5.83325 7.66675 5.83325C7.18064 5.83325 6.76744 6.00339 6.42716 6.34367C6.08689 6.68395 5.91675 7.09714 5.91675 7.58325C5.91675 8.06936 6.08689 8.48256 6.42716 8.82284C6.76744 9.16311 7.18064 9.33325 7.66675 9.33325Z" fill="#8A1538"/>
</g>
</svg>
