<svg width="28" height="28" viewBox="0 0 28 28" fill="none" xmlns="http://www.w3.org/2000/svg">
<mask id="mask0_1390_18" style="mask-type:alpha" maskUnits="userSpaceOnUse" x="0" y="0" width="28" height="28">
<rect width="28" height="28" fill="#D9D9D9"/>
</mask>
<g mask="url(#mask0_1390_18)">
<path d="M16.625 24.9667C16.1778 25.4139 15.6236 25.6375 14.9625 25.6375C14.3014 25.6375 13.7472 25.4139 13.3 24.9667L3.03331 14.7C2.81942 14.4862 2.64929 14.2334 2.5229 13.9417C2.39651 13.65 2.33331 13.3389 2.33331 13.0084V4.66671C2.33331 4.02504 2.56179 3.47574 3.01873 3.01879C3.47567 2.56185 4.02498 2.33337 4.66665 2.33337H13.0083C13.3389 2.33337 13.65 2.39657 13.9416 2.52296C14.2333 2.64935 14.4861 2.81949 14.7 3.03337L24.9666 13.3292C25.4139 13.7764 25.6375 14.3257 25.6375 14.9771C25.6375 15.6285 25.4139 16.1778 24.9666 16.625L16.625 24.9667ZM14.9625 23.3334L23.3041 14.9917L13.0083 4.66671H4.66665V13.0084L14.9625 23.3334ZM7.58331 9.33337C8.06942 9.33337 8.48262 9.16324 8.8229 8.82296C9.16317 8.48268 9.33331 8.06949 9.33331 7.58337C9.33331 7.09726 9.16317 6.68407 8.8229 6.34379C8.48262 6.00351 8.06942 5.83337 7.58331 5.83337C7.0972 5.83337 6.68401 6.00351 6.34373 6.34379C6.00345 6.68407 5.83331 7.09726 5.83331 7.58337C5.83331 8.06949 6.00345 8.48268 6.34373 8.82296C6.68401 9.16324 7.0972 9.33337 7.58331 9.33337Z" fill="#676767"/>
</g>
</svg>
