<svg width="66" height="56" viewBox="0 0 66 56" fill="none" xmlns="http://www.w3.org/2000/svg">
<path d="M23.0599 53.4688C20.6165 54.6594 18.3766 53.5559 17.8093 50.9568C17.7657 50.7535 17.5475 50.5067 17.3439 50.4341C15.9622 49.9404 15.1477 48.9821 14.8131 47.5591C14.7695 47.3558 14.6386 47.0654 14.4641 47.0073C11.7297 45.9038 11.017 43.6677 12.7042 41.2864C11.0461 40.1683 9.40255 39.0648 7.70083 37.9177C7.55538 38.121 7.42448 38.3097 7.29358 38.484C6.52271 39.573 5.19915 39.8924 4.03558 39.21C3.032 38.6292 2.05751 38.0048 1.09757 37.3659C-0.0950905 36.5673 -0.342349 35.1443 0.486694 33.8956C2.15933 31.3545 3.8465 28.828 5.51913 26.287C6.47908 24.835 7.43902 23.3684 8.41351 21.9164C9.388 20.4644 10.6388 20.1885 12.1515 21.1033C12.9514 21.5825 13.7514 22.0616 14.5368 22.5553C16.0931 23.5282 16.3985 24.864 15.3949 26.4177C15.3368 26.5048 15.2931 26.6064 15.2059 26.7516C16.064 27.2163 16.8785 27.6664 17.7948 28.1746V17.996C17.6348 18.0686 17.5039 18.1267 17.373 18.1847C16.6894 18.4897 16.0785 18.2719 15.8167 17.5749C15.5258 16.8053 15.2349 16.0357 15.0604 15.2517C14.755 13.7561 15.2786 12.5364 16.5149 11.6216C20.9073 8.35456 25.2853 5.073 29.6777 1.80596C30.1723 1.44295 30.6668 1.06543 31.1468 0.702425C32.4121 -0.226867 33.5903 -0.241388 34.8411 0.702425C36.6737 2.0528 38.4772 3.4177 40.3099 4.76808C40.528 4.9278 40.7462 5.073 41.0953 5.33436C41.0953 4.72452 41.0953 4.24535 41.0953 3.76618C41.1244 2.90949 41.5171 2.50293 42.3607 2.48841C43.6842 2.47389 44.9932 2.47389 46.3168 2.48841C47.204 2.48841 47.5967 2.90949 47.6113 3.79522C47.6113 5.74093 47.6113 7.70116 47.6113 9.64686C47.6113 10.0534 47.7276 10.3148 48.0622 10.5471C48.6439 10.9392 49.2112 11.3602 49.7493 11.8104C50.9129 12.7832 51.2911 14.0174 50.8984 15.4695C50.7529 16.0212 50.5493 16.544 50.3748 17.0812C49.9384 18.388 49.4584 18.5913 48.2221 17.9669V27.5938C49.0803 27.2308 49.8802 26.8823 50.6656 26.5484C50.6656 26.4758 50.6947 26.4177 50.6656 26.4032C49.5748 25.0673 49.8511 23.2087 51.6256 22.3085C52.4546 21.8874 53.211 21.3356 54.0109 20.871C55.349 20.0869 56.7308 20.4208 57.5452 21.7567C60.236 26.1708 62.9268 30.585 65.5884 35.0136C66.3593 36.2769 66.0248 37.6127 64.7739 38.4404C63.9449 38.9922 63.0868 39.5149 62.2432 40.0376C60.7742 40.9524 59.436 40.6329 58.5197 39.1809C58.4034 38.9922 58.287 38.8034 58.1125 38.5275C55.4945 39.9215 52.8764 41.3154 50.2875 42.6948C51.1456 45.2504 49.3275 47.6317 46.9859 47.7043C46.4332 50.6374 45.0514 51.7699 42.4625 51.3488C42.1716 52.4088 41.6043 53.2655 40.528 53.7156C39.4517 54.1658 38.4336 54.0206 37.4155 53.3817C37.0664 54.2819 36.5283 55.0079 35.6556 55.4435C34.3466 56.0824 33.0812 55.8791 31.874 55.2112C31.1177 54.7901 30.4195 54.2964 29.6487 53.8028C29.3141 54.0786 28.9796 54.369 28.6305 54.6594C26.7979 56.2421 24.6744 55.9517 23.3363 53.9334C23.2345 53.7882 23.1472 53.6285 23.0309 53.4543L23.0599 53.4688ZM24.6308 44.234C26.4198 44.5244 27.5106 45.5262 27.9324 47.2541C27.9615 47.3993 28.1797 47.5591 28.3396 47.6026C30.3613 48.198 31.3213 49.6064 31.1322 51.6683C31.1177 51.828 31.1322 52.0894 31.2195 52.1475C32.0194 52.6411 32.8194 53.1784 33.6775 53.5704C34.332 53.8608 34.9284 53.5414 35.2338 52.9751C35.5538 52.3798 35.4229 51.857 34.812 51.3779C34.2157 50.8987 33.5466 50.4776 33.0085 49.9259C32.7467 49.6645 32.5721 49.1563 32.6303 48.8078C32.6885 48.4884 33.0957 48.0818 33.4157 48.0237C33.7648 47.9656 34.2593 48.1544 34.5793 48.4012C35.8738 49.3596 37.1246 50.376 38.4045 51.3634C39.1318 51.9296 39.7426 51.9442 40.1208 51.4214C40.6008 50.768 40.4408 50.0711 39.6699 49.5483C38.4336 48.7062 37.1828 47.8785 35.9756 46.9928C35.6701 46.775 35.4083 46.2958 35.4229 45.9328C35.4229 45.6134 35.801 45.1197 36.0919 45.0471C36.4701 44.9454 37.0082 45.0616 37.3428 45.2939C39.1172 46.4701 40.848 47.7188 42.5934 48.924C43.4079 49.4903 44.0478 49.4322 44.4987 48.7788C45.0078 48.0382 44.8332 47.1815 44.0624 46.6879C42.6225 45.7731 41.168 44.9019 39.7572 43.9435C39.4226 43.7257 39.1027 43.2611 39.0736 42.8836C38.9863 41.9833 39.9899 41.5042 40.8189 42.0269C42.4479 43.0288 44.0333 44.0597 45.6623 45.0616C45.9241 45.2213 46.215 45.381 46.5204 45.4536C47.3495 45.6569 47.9603 45.3375 48.2803 44.5679C48.5276 43.9581 48.324 43.5079 47.5531 43.0288C44.6151 41.1702 41.6771 39.3261 38.7536 37.453C38.3318 37.1771 38.0264 37.1917 37.59 37.424C34.5938 39.0502 31.5104 39.239 28.3687 37.8305C27.2052 37.3078 26.4343 36.4802 26.347 35.1588C26.2598 33.7939 26.8706 32.8066 28.0342 32.1386C28.9505 31.6014 29.8668 31.0496 30.7831 30.4979C31.1322 30.28 31.4813 30.0622 31.8885 29.8009C31.4667 29.4814 31.1322 29.2056 30.7831 28.9442C29.1396 27.6809 27.4088 27.3615 25.4307 28.2037C23.3799 29.0604 21.271 29.7573 19.2056 30.5705C18.5366 30.8318 17.9693 30.7883 17.3439 30.4253C16.2385 29.7718 15.0895 29.191 13.9405 28.5521C13.0678 29.8444 12.2242 31.0932 11.3952 32.3274C10.5661 33.5616 9.73707 34.7958 8.87894 36.0736C10.5516 37.2062 12.2097 38.2807 13.8096 39.4132C14.3186 39.7763 14.6095 39.7472 15.0749 39.3406C16.224 38.3097 17.5475 38.1355 18.7838 38.7889C19.7438 39.2826 20.2965 40.1393 20.6746 41.0976C22.9872 41.1992 24.1362 42.114 24.6599 44.234H24.6308ZM28.4705 25.5319C28.4705 25.2851 28.4705 25.0673 28.4705 24.8495C28.4705 23.6443 28.4705 22.4391 28.4705 21.2485C28.4705 20.1595 28.8342 19.811 29.8814 19.7965C31.9758 19.7965 34.0557 19.7965 36.1501 19.7965C37.1828 19.7965 37.5464 20.1595 37.5464 21.1904C37.5464 22.715 37.5464 24.2251 37.5464 25.7498C37.5464 25.9821 37.5755 26.2144 37.59 26.5048C40.528 25.3867 43.2624 25.8514 45.9386 27.0856C45.9677 26.9404 45.9823 26.8823 45.9823 26.8097C45.9823 23.4265 45.9823 20.0433 45.9677 16.6746C45.9677 16.4133 45.7496 16.0938 45.5314 15.9196C41.5898 12.9575 37.6337 10.0244 33.7066 7.06227C33.1975 6.68474 32.8339 6.68474 32.3249 7.06227C28.4124 10.0099 24.4708 12.9284 20.5292 15.847C20.1656 16.1229 20.0056 16.3988 20.0201 16.8634C20.0347 20.2902 20.0201 23.7169 20.0201 27.1437C20.0201 27.3615 20.0347 27.5793 20.0492 27.8116C22.8854 27.1146 25.3435 25.3287 28.4415 25.5319H28.4705ZM52.0037 28.3779C50.6366 28.9587 49.3421 29.5105 48.0622 30.0768C47.4658 30.3381 46.9713 30.251 46.4041 29.9316C45.3859 29.3653 44.3387 28.7845 43.2333 28.4215C41.3571 27.7971 39.4663 27.8697 37.7064 28.9006C34.8702 30.5705 32.0485 32.2548 29.2414 33.9682C28.9214 34.1569 28.6451 34.578 28.5578 34.941C28.4415 35.4347 28.9214 35.6525 29.3141 35.8413C32.1212 37.1191 34.7538 36.6835 37.27 35.0717C37.91 34.6651 38.4336 34.6506 39.0736 35.0717C42.0843 37.0174 45.1387 38.905 48.1494 40.8362C48.4985 41.054 48.7458 41.0976 49.1239 40.8798C51.5529 39.5584 54.0109 38.2662 56.4399 36.9593C56.5853 36.8722 56.7308 36.7706 56.8907 36.6689C55.2617 33.8956 53.6473 31.1658 52.0037 28.3634V28.3779ZM63.8722 36.3785C63.7703 36.2043 63.7267 36.1026 63.6685 36.001C61.036 31.6595 58.4034 27.3325 55.7708 22.9909C55.5672 22.6715 55.3781 22.6134 55.0581 22.8312C54.2582 23.3394 53.4437 23.8476 52.6146 24.3123C52.1637 24.5591 52.2074 24.8059 52.4692 25.1689C52.8764 25.7062 53.2837 26.258 53.6327 26.8388C55.8581 30.5124 58.0834 34.2005 60.2796 37.8886C60.556 38.3533 60.7887 38.484 61.2687 38.15C61.9668 37.6563 62.7231 37.2207 63.4504 36.7561C63.6104 36.6544 63.7267 36.5092 63.8576 36.3785H63.8722ZM13.8677 24.7914C13.7223 24.6607 13.5914 24.5155 13.4314 24.4139C12.6605 23.9347 11.8606 23.4991 11.1188 22.9909C10.6825 22.7005 10.4643 22.8022 10.2025 23.2087C9.00984 25.0528 7.78809 26.8823 6.56635 28.7119C5.19915 30.7737 3.8465 32.8356 2.47931 34.8829C2.20296 35.304 2.2175 35.5364 2.66839 35.7977C3.43925 36.2333 4.18103 36.727 4.90826 37.2062C5.24279 37.4385 5.4755 37.4095 5.67912 37.0319C5.95547 36.5382 6.23182 36.0446 6.5518 35.5799C8.89349 32.1386 11.2497 28.6973 13.5914 25.2415C13.6787 25.1109 13.7514 24.9802 13.8823 24.7769L13.8677 24.7914ZM17.4457 15.4259C17.6057 15.3097 17.7221 15.2517 17.8384 15.1645C22.2454 11.883 26.6525 8.60141 31.0595 5.31984C32.4994 4.24535 33.6048 4.24535 35.0302 5.31984C38.9863 8.26744 42.9279 11.215 46.884 14.1626C47.4658 14.5982 48.0476 15.0048 48.6294 15.4404C49.0948 14.4095 48.9639 13.9303 48.1058 13.2914C43.3206 9.71946 38.5209 6.16202 33.7502 2.57553C33.2412 2.198 32.8776 2.18348 32.3685 2.57553C27.5688 6.17654 22.7691 9.7485 17.9548 13.335C17.1257 13.9594 17.0094 14.395 17.4457 15.4549V15.4259ZM33.8957 28.5231C35.1756 28.2182 35.612 27.4341 35.4083 26.2144C35.3356 25.7788 35.4083 25.3141 35.4083 24.864V22.0035H30.6813C30.6813 23.3684 30.6813 24.6753 30.6813 25.9821C30.6813 26.1273 30.8122 26.316 30.9286 26.4177C31.9176 27.1292 32.9212 27.8407 33.8957 28.5231ZM25.9398 47.6898C25.6053 47.2977 25.3435 46.8766 24.9798 46.6007C24.5871 46.2958 24.1653 46.4701 23.8017 46.775C22.6963 47.7478 21.5764 48.7062 20.471 49.679C19.831 50.2453 19.8165 50.7535 20.3546 51.3779C20.8637 51.9587 21.4019 52.0168 22.0127 51.494C23.1472 50.5212 24.2817 49.5483 25.3871 48.5464C25.5907 48.3577 25.7071 48.0818 25.9398 47.7043V47.6898ZM22.6091 44.4808C22.26 44.0887 21.9982 43.6096 21.6055 43.4353C21.3 43.3047 20.7328 43.4208 20.4565 43.6386C19.3947 44.4808 18.3911 45.3956 17.3875 46.3103C16.8639 46.7895 16.8494 47.2832 17.3294 47.8495C17.8384 48.4593 18.362 48.5464 18.9147 48.0818C19.9765 47.1961 21.0237 46.2958 22.0418 45.3665C22.26 45.1778 22.3764 44.8728 22.6236 44.4663L22.6091 44.4808ZM18.6675 41.8236C18.3475 41.4461 18.1002 40.9524 17.7075 40.7636C17.4166 40.6184 16.8494 40.7346 16.5585 40.9524C15.7876 41.5042 15.0895 42.1576 14.3914 42.7965C13.8096 43.3192 13.8096 43.8419 14.3477 44.4518C14.8568 45.0326 15.3368 45.0906 15.9331 44.5824C16.6894 43.9581 17.4166 43.3192 18.1293 42.6658C18.3329 42.477 18.4348 42.1866 18.6675 41.8091V41.8236ZM29.1541 50.8987C28.8051 50.5212 28.5287 50.1146 28.1506 49.8533C27.7433 49.5629 27.3361 49.7807 26.987 50.0856C26.4779 50.5357 25.9543 50.9713 25.4453 51.4214C24.9217 51.8861 24.9071 52.4088 25.358 52.9751C25.838 53.5704 26.3907 53.6866 26.9434 53.251C27.5106 52.8009 28.0633 52.3217 28.5724 51.828C28.776 51.6247 28.8923 51.3198 29.1396 50.9132L29.1541 50.8987ZM45.3859 8.55785V4.73904H43.2915C43.2915 5.42149 43.2915 6.06037 43.2915 6.68474C43.2915 6.84446 43.3788 7.04775 43.4951 7.14939C44.0915 7.62855 44.7023 8.06416 45.3714 8.57237L45.3859 8.55785Z" fill="#8A1538"/>
</svg>
