<svg width="28" height="28" viewBox="0 0 28 28" fill="none" xmlns="http://www.w3.org/2000/svg">
<mask id="mask0_1317_314" style="mask-type:alpha" maskUnits="userSpaceOnUse" x="0" y="0" width="28" height="28">
<rect width="28" height="28" fill="#D9D9D9"/>
</mask>
<g mask="url(#mask0_1317_314)">
<path d="M16.625 24.9667C16.1778 25.4139 15.6237 25.6375 14.9625 25.6375C14.3014 25.6375 13.7473 25.4139 13.3 24.9667L3.03337 14.7C2.81949 14.4862 2.64935 14.2334 2.52296 13.9417C2.39657 13.65 2.33337 13.3389 2.33337 13.0084V4.66671C2.33337 4.02504 2.56185 3.47574 3.01879 3.01879C3.47574 2.56185 4.02504 2.33337 4.66671 2.33337H13.0084C13.3389 2.33337 13.65 2.39657 13.9417 2.52296C14.2334 2.64935 14.4862 2.81949 14.7 3.03337L24.9667 13.3292C25.4139 13.7764 25.6375 14.3257 25.6375 14.9771C25.6375 15.6285 25.4139 16.1778 24.9667 16.625L16.625 24.9667ZM14.9625 23.3334L23.3042 14.9917L13.0084 4.66671H4.66671V13.0084L14.9625 23.3334ZM7.58337 9.33337C8.06949 9.33337 8.48268 9.16324 8.82296 8.82296C9.16324 8.48268 9.33337 8.06949 9.33337 7.58337C9.33337 7.09726 9.16324 6.68407 8.82296 6.34379C8.48268 6.00351 8.06949 5.83337 7.58337 5.83337C7.09726 5.83337 6.68407 6.00351 6.34379 6.34379C6.00351 6.68407 5.83337 7.09726 5.83337 7.58337C5.83337 8.06949 6.00351 8.48268 6.34379 8.82296C6.68407 9.16324 7.09726 9.33337 7.58337 9.33337Z" fill="#A0A0A0"/>
</g>
</svg>
