<svg width="36" height="36" viewBox="0 0 36 36" fill="none" xmlns="http://www.w3.org/2000/svg">
<mask id="mask0_619_408" style="mask-type:alpha" maskUnits="userSpaceOnUse" x="0" y="0" width="36" height="36">
<rect width="36" height="36" fill="#D9D9D9"/>
</mask>
<g mask="url(#mask0_619_408)">
<path d="M21.375 32.1C20.8 32.675 20.0875 32.9625 19.2375 32.9625C18.3875 32.9625 17.675 32.675 17.1 32.1L3.9 18.9C3.625 18.625 3.40625 18.3 3.24375 17.925C3.08125 17.55 3 17.15 3 16.725V6C3 5.175 3.29375 4.46875 3.88125 3.88125C4.46875 3.29375 5.175 3 6 3H16.725C17.15 3 17.55 3.08125 17.925 3.24375C18.3 3.40625 18.625 3.625 18.9 3.9L32.1 17.1375C32.675 17.7125 32.9625 18.4188 32.9625 19.2563C32.9625 20.0938 32.675 20.8 32.1 21.375L21.375 32.1ZM19.2375 30L29.9625 19.275L16.725 6H6V16.725L19.2375 30ZM9.75 12C10.375 12 10.9062 11.7812 11.3438 11.3438C11.7812 10.9062 12 10.375 12 9.75C12 9.125 11.7812 8.59375 11.3438 8.15625C10.9062 7.71875 10.375 7.5 9.75 7.5C9.125 7.5 8.59375 7.71875 8.15625 8.15625C7.71875 8.59375 7.5 9.125 7.5 9.75C7.5 10.375 7.71875 10.9062 8.15625 11.3438C8.59375 11.7812 9.125 12 9.75 12Z" fill="#676767"/>
</g>
</svg>
