<svg width="29" height="28" viewBox="0 0 29 28" fill="none" xmlns="http://www.w3.org/2000/svg">
<mask id="mask0_1390_23" style="mask-type:alpha" maskUnits="userSpaceOnUse" x="0" y="0" width="29" height="28">
<rect x="0.5" width="28" height="28" fill="#D9D9D9"/>
</mask>
<g mask="url(#mask0_1390_23)">
<path d="M8.66669 21C6.72224 21 5.06946 20.3194 3.70835 18.9583C2.34724 17.5972 1.66669 15.9444 1.66669 14C1.66669 12.0556 2.34724 10.4028 3.70835 9.04167C5.06946 7.68056 6.72224 7 8.66669 7C9.95002 7 11.1264 7.32083 12.1959 7.9625C13.2653 8.60417 14.1111 9.45 14.7334 10.5H27.3334V17.5H25V21H18V17.5H14.7334C14.1111 18.55 13.2653 19.3958 12.1959 20.0375C11.1264 20.6792 9.95002 21 8.66669 21ZM8.66669 18.6667C9.95002 18.6667 10.9806 18.2729 11.7584 17.4854C12.5361 16.6979 13.0028 15.925 13.1584 15.1667H20.3334V18.6667H22.6667V15.1667H25V12.8333H13.1584C13.0028 12.075 12.5361 11.3021 11.7584 10.5146C10.9806 9.72708 9.95002 9.33333 8.66669 9.33333C7.38335 9.33333 6.28474 9.79028 5.37085 10.7042C4.45696 11.6181 4.00002 12.7167 4.00002 14C4.00002 15.2833 4.45696 16.3819 5.37085 17.2958C6.28474 18.2097 7.38335 18.6667 8.66669 18.6667ZM8.66669 16.3333C9.30835 16.3333 9.85766 16.1049 10.3146 15.6479C10.7715 15.191 11 14.6417 11 14C11 13.3583 10.7715 12.809 10.3146 12.3521C9.85766 11.8951 9.30835 11.6667 8.66669 11.6667C8.02502 11.6667 7.47571 11.8951 7.01877 12.3521C6.56183 12.809 6.33335 13.3583 6.33335 14C6.33335 14.6417 6.56183 15.191 7.01877 15.6479C7.47571 16.1049 8.02502 16.3333 8.66669 16.3333Z" fill="#676767"/>
</g>
</svg>
