<svg width="29" height="28" viewBox="0 0 29 28" fill="none" xmlns="http://www.w3.org/2000/svg">
<mask id="mask0_1321_418" style="mask-type:alpha" maskUnits="userSpaceOnUse" x="0" y="0" width="29" height="28">
<rect x="0.583496" width="28" height="28" fill="#D9D9D9"/>
</mask>
<g mask="url(#mask0_1321_418)">
<path d="M8.75024 21C6.8058 21 5.15302 20.3194 3.79191 18.9583C2.4308 17.5972 1.75024 15.9444 1.75024 14C1.75024 12.0556 2.4308 10.4028 3.79191 9.04167C5.15302 7.68056 6.8058 7 8.75024 7C10.3252 7 11.7009 7.44236 12.8773 8.32708C14.0537 9.21181 14.8752 10.325 15.3419 11.6667H27.4169V16.3333H25.0836V21H20.4169V16.3333H15.3419C14.8752 17.675 14.0537 18.7882 12.8773 19.6729C11.7009 20.5576 10.3252 21 8.75024 21ZM8.75024 16.3333C9.39191 16.3333 9.94122 16.1049 10.3982 15.6479C10.8551 15.191 11.0836 14.6417 11.0836 14C11.0836 13.3583 10.8551 12.809 10.3982 12.3521C9.94122 11.8951 9.39191 11.6667 8.75024 11.6667C8.10858 11.6667 7.55927 11.8951 7.10233 12.3521C6.64538 12.809 6.41691 13.3583 6.41691 14C6.41691 14.6417 6.64538 15.191 7.10233 15.6479C7.55927 16.1049 8.10858 16.3333 8.75024 16.3333Z" fill="#8A1538"/>
</g>
</svg>
