<svg width="29" height="28" viewBox="0 0 29 28" fill="none" xmlns="http://www.w3.org/2000/svg">
<mask id="mask0_1317_319" style="mask-type:alpha" maskUnits="userSpaceOnUse" x="0" y="0" width="29" height="28">
<rect x="0.5" width="28" height="28" fill="#D9D9D9"/>
</mask>
<g mask="url(#mask0_1317_319)">
<path d="M8.66663 21C6.72218 21 5.0694 20.3194 3.70829 18.9583C2.34718 17.5972 1.66663 15.9444 1.66663 14C1.66663 12.0556 2.34718 10.4028 3.70829 9.04167C5.0694 7.68056 6.72218 7 8.66663 7C9.94996 7 11.1263 7.32083 12.1958 7.9625C13.2652 8.60417 14.1111 9.45 14.7333 10.5H27.3333V17.5H25V21H18V17.5H14.7333C14.1111 18.55 13.2652 19.3958 12.1958 20.0375C11.1263 20.6792 9.94996 21 8.66663 21ZM8.66663 18.6667C9.94996 18.6667 10.9805 18.2729 11.7583 17.4854C12.5361 16.6979 13.0027 15.925 13.1583 15.1667H20.3333V18.6667H22.6666V15.1667H25V12.8333H13.1583C13.0027 12.075 12.5361 11.3021 11.7583 10.5146C10.9805 9.72708 9.94996 9.33333 8.66663 9.33333C7.38329 9.33333 6.28468 9.79028 5.37079 10.7042C4.4569 11.6181 3.99996 12.7167 3.99996 14C3.99996 15.2833 4.4569 16.3819 5.37079 17.2958C6.28468 18.2097 7.38329 18.6667 8.66663 18.6667ZM8.66663 16.3333C9.30829 16.3333 9.8576 16.1049 10.3145 15.6479C10.7715 15.191 11 14.6417 11 14C11 13.3583 10.7715 12.809 10.3145 12.3521C9.8576 11.8951 9.30829 11.6667 8.66663 11.6667C8.02496 11.6667 7.47565 11.8951 7.01871 12.3521C6.56176 12.809 6.33329 13.3583 6.33329 14C6.33329 14.6417 6.56176 15.191 7.01871 15.6479C7.47565 16.1049 8.02496 16.3333 8.66663 16.3333Z" fill="#A0A0A0"/>
</g>
</svg>
